<?xml version="1.0" standalone="no"?>
<!DOCTYPE svg PUBLIC "-//W3C//DTD SVG 20010904//EN"
 "http://www.w3.org/TR/2001/REC-SVG-20010904/DTD/svg10.dtd">
<svg version="1.0" xmlns="http://www.w3.org/2000/svg"
 width="700.000000pt" height="700.000000pt" viewBox="0 0 700.000000 700.000000"
 preserveAspectRatio="xMidYMid meet">
<metadata>
Created by potrace 1.14, written by Peter Selinger 2001-2017
</metadata>
<g transform="translate(0.000000,700.000000) scale(0.100000,-0.100000)"
fill="#000000" stroke="none">
<path d="M3278 6995 c-1 -1 -42 -5 -89 -9 -47 -4 -95 -8 -105 -10 -10 -2 -48
-7 -84 -12 -36 -4 -67 -8 -70 -9 -3 -1 -25 -5 -50 -9 -25 -4 -101 -21 -170
-38 -69 -16 -135 -31 -147 -34 -40 -8 -263 -84 -365 -125 -242 -96 -604 -297
-768 -426 -8 -6 -51 -40 -95 -74 -340 -264 -650 -624 -875 -1014 -47 -81 -170
-327 -170 -339 0 -3 -11 -29 -24 -58 -41 -92 -114 -303 -142 -413 -4 -16 -8
-34 -10 -40 -5 -16 -25 -98 -30 -120 -39 -194 -47 -242 -60 -350 -26 -230 -26
-667 1 -826 2 -13 6 -46 9 -74 9 -78 22 -152 51 -285 20 -95 90 -337 114 -395
4 -11 27 -69 51 -130 49 -125 131 -299 186 -395 20 -36 45 -81 56 -100 11 -19
29 -47 39 -62 11 -14 19 -29 19 -32 0 -4 5 -12 10 -19 6 -7 40 -55 76 -107 36
-52 89 -117 118 -145 28 -27 76 -79 106 -115 73 -88 341 -354 417 -414 35 -27
60 -52 58 -56 -5 -9 127 -107 256 -192 169 -110 392 -228 574 -304 253 -104
580 -194 844 -230 25 -3 57 -7 70 -10 167 -25 682 -25 842 1 13 2 47 7 74 10
72 10 86 12 120 19 17 3 44 8 60 11 343 65 740 212 1039 384 49 28 90 51 92
51 2 0 56 35 121 79 672 447 1160 1091 1407 1856 30 95 68 233 82 300 17 81
54 301 59 350 4 33 9 71 11 85 9 47 11 525 4 605 -12 129 -21 202 -25 227 -3
13 -8 43 -11 68 -3 25 -8 53 -10 62 -3 10 -7 30 -10 45 -12 64 -55 244 -74
306 -11 37 -21 69 -21 72 0 13 -76 213 -121 320 -62 144 -138 294 -221 433
-75 124 -234 348 -246 345 -4 -1 -49 47 -100 106 -93 110 -271 289 -370 371
-29 25 -67 57 -85 72 -17 15 -35 28 -39 28 -5 0 -6 4 -3 8 8 14 -7 28 -109
101 -55 39 -104 75 -110 79 -76 60 -415 241 -590 314 -239 100 -572 194 -785
223 -19 3 -46 7 -60 10 -13 2 -52 7 -86 11 -33 3 -74 8 -90 10 -33 5 -540 14
-546 9z"/>
</g>
</svg>
