<svg
  xmlns="http://www.w3.org/2000/svg"
  xmlns:xlink="http://www.w3.org/1999/xlink"
>
  <symbol viewBox="0 0 16 16" id="size-16">
    <path
      fill-rule="evenodd"
      clip-rule="evenodd"
      d="M9.24332 4.22823C9.24332 5.45881 8.24572 6.45646 7.01509 6.45646C5.78451 6.45646 4.78687 5.45885 4.78687 4.22823C4.78687 2.99757 5.78447 2 7.01509 2C8.24576 2 9.24332 2.99761 9.24332 4.22823ZM7.67451 10.5264C7.67451 9.59409 8.04967 8.75288 8.6522 8.13896C8.83412 7.95705 8.7545 7.65016 8.5158 7.57054C8.03832 7.42272 7.53811 7.33176 7.01512 7.33176C5.20754 7.34318 3.63867 8.30953 2.78603 9.75345C2.14941 10.8561 2.92251 12.2318 4.19575 12.2318H7.59493C7.83371 12.2318 8.0042 11.993 7.91325 11.7657C7.7541 11.3792 7.67447 10.9585 7.67447 10.5265L7.67451 10.5264ZM8.24304 10.6182C8.24304 8.75138 9.75807 7.23636 11.6248 7.23636C13.4916 7.23636 15.0067 8.75138 15.0067 10.6182C15.0067 12.4849 13.4916 14 11.6248 14C9.75807 14 8.24304 12.4849 8.24304 10.6182ZM11.3002 11.9709L13.3834 9.91475C13.5051 9.79303 13.5052 9.60365 13.37 9.48183C13.2482 9.36011 13.0588 9.36011 12.9371 9.48183L11.3003 11.1051L10.2992 10.0905C10.1774 9.96881 9.98803 9.96881 9.86631 10.0905C9.74459 10.2123 9.74459 10.4017 9.86631 10.5234L11.3002 11.9709Z"
      fill="#fff"
    />
  </symbol>

  <symbol viewBox="0 0 24 24" id="size-24">
    <path
      fill-rule="evenodd"
      clip-rule="evenodd"
      d="M13.1384 6.34234C13.1384 8.18821 11.642 9.68469 9.79608 9.68469C7.95021 9.68469 6.45374 8.18828 6.45374 6.34234C6.45374 4.49635 7.95015 3 9.79608 3C11.6421 3 13.1384 4.49641 13.1384 6.34234ZM10.7852 15.7895C10.7852 14.3911 11.3479 13.1293 12.2517 12.2084C12.5246 11.9356 12.4052 11.4752 12.0471 11.3558C11.3309 11.1341 10.5806 10.9976 9.79611 10.9976C7.08475 11.0148 4.73144 12.4643 3.45248 14.6302C2.49756 16.2842 3.6572 18.3477 5.56706 18.3477H10.6658C11.024 18.3477 11.2797 17.9895 11.1433 17.6485C10.9046 17.0687 10.7851 16.4378 10.7851 15.7898L10.7852 15.7895ZM11.638 15.9272C11.638 13.1271 13.9105 10.8545 16.7107 10.8545C19.5109 10.8545 21.7834 13.1271 21.7834 15.9272C21.7834 18.7274 19.5109 21 16.7107 21C13.9105 21 11.638 18.7274 11.638 15.9272ZM16.2237 17.9564L19.3486 14.8721C19.5311 14.6895 19.5312 14.4055 19.3285 14.2227C19.1458 14.0402 18.8617 14.0402 18.6791 14.2227L16.2238 16.6576L14.7223 15.1358C14.5396 14.9532 14.2555 14.9532 14.0729 15.1358C13.8903 15.3185 13.8903 15.6026 14.0729 15.7852L16.2237 17.9564Z"
      fill="#fff"
    />
  </symbol>

  <symbol viewBox="0 0 32 32" id="size-32">
    <path
      fill-rule="evenodd"
      clip-rule="evenodd"
      d="M16.9212 8.45646C16.9212 10.9176 14.926 12.9129 12.4648 12.9129C10.0036 12.9129 8.0083 10.9177 8.0083 8.45646C8.0083 5.99513 10.0035 4 12.4648 4C14.9261 4 16.9212 5.99522 16.9212 8.45646ZM13.7836 21.0527C13.7836 19.1882 14.5339 17.5058 15.739 16.2779C16.1028 15.9141 15.9436 15.3003 15.4662 15.1411C14.5112 14.8454 13.5108 14.6635 12.4648 14.6635C8.84966 14.6864 5.71191 16.6191 4.00663 19.5069C2.7334 21.7122 4.27958 24.4636 6.82606 24.4636H13.6244C14.102 24.4636 14.443 23.986 14.2611 23.5313C13.9428 22.7583 13.7835 21.9171 13.7835 21.053L13.7836 21.0527ZM14.9207 21.2363C14.9207 17.5028 17.9507 14.4727 21.6843 14.4727C25.4178 14.4727 28.4479 17.5028 28.4479 21.2363C28.4479 24.9699 25.4178 27.9999 21.6843 27.9999C17.9507 27.9999 14.9207 24.9699 14.9207 21.2363ZM21.0349 23.9418L25.2014 19.8295C25.4448 19.5861 25.4449 19.2073 25.1746 18.9637C24.931 18.7202 24.5522 18.7202 24.3088 18.9637L21.0351 22.2101L19.033 20.1811C18.7894 19.9376 18.4106 19.9376 18.1672 20.1811C17.9237 20.4247 17.9237 20.8035 18.1672 21.0469L21.0349 23.9418Z"
      fill="#fff"
    />
  </symbol>
</svg>
