<svg
  viewBox="0 0 150 44"
  xmlns="http://www.w3.org/2000/svg"
  xmlns:xlink="http://www.w3.org/1999/xlink"
>
  <path
    d="M15.7824 27.6478L12.1504 16.3518H14.6464L17.3024 25.0398H16.3264L18.9184 16.3518H20.8864L23.4784 25.0398H22.5184L25.1584 16.3518H27.6384L24.0064 27.6478H22.0384L19.4304 18.9598H20.3584L17.7504 27.6478H15.7824Z"
    fill="#fff"
  />
  <path
    d="M28.9976 27.6478V16.3518H30.7576L31.5096 18.6078V27.6478H28.9976ZM36.7896 27.6478L30.1336 19.1198L30.7576 16.3518L37.4136 24.8798L36.7896 27.6478ZM36.7896 27.6478L36.1176 25.3918V16.3518H38.6296V27.6478H36.7896Z"
    fill="#fff"
  />
  <path
    d="M46.1701 27.8238C45.3275 27.8238 44.5435 27.6798 43.8181 27.3918C43.1035 27.0931 42.4741 26.6771 41.9301 26.1438C41.3968 25.6104 40.9808 24.9918 40.6821 24.2878C40.3835 23.5731 40.2341 22.8051 40.2341 21.9838C40.2341 21.1624 40.3835 20.3998 40.6821 19.6958C40.9808 18.9811 41.3968 18.3624 41.9301 17.8398C42.4635 17.3171 43.0875 16.9118 43.8021 16.6238C44.5275 16.3251 45.3115 16.1758 46.1541 16.1758C47.0501 16.1758 47.8448 16.3198 48.5381 16.6078C49.2421 16.8958 49.8555 17.2904 50.3781 17.7918L48.6981 19.4878C48.3995 19.1678 48.0368 18.9171 47.6101 18.7358C47.1941 18.5544 46.7088 18.4638 46.1541 18.4638C45.6635 18.4638 45.2101 18.5491 44.7941 18.7198C44.3888 18.8798 44.0368 19.1144 43.7381 19.4238C43.4501 19.7331 43.2208 20.1064 43.0501 20.5438C42.8901 20.9811 42.8101 21.4611 42.8101 21.9838C42.8101 22.5171 42.8901 23.0024 43.0501 23.4398C43.2208 23.8771 43.4501 24.2504 43.7381 24.5598C44.0368 24.8691 44.3888 25.1091 44.7941 25.2798C45.2101 25.4504 45.6635 25.5358 46.1541 25.5358C46.7301 25.5358 47.2315 25.4451 47.6581 25.2638C48.0848 25.0824 48.4528 24.8318 48.7621 24.5118L50.4581 26.2078C49.9141 26.7091 49.2901 27.1038 48.5861 27.3918C47.8928 27.6798 47.0875 27.8238 46.1701 27.8238Z"
    fill="#fff"
  />
  <path
    d="M56.7163 27.8238C55.8949 27.8238 55.1216 27.6744 54.3963 27.3758C53.6816 27.0771 53.0576 26.6664 52.5243 26.1438C51.9909 25.6104 51.5696 24.9918 51.2603 24.2878C50.9616 23.5731 50.8123 22.8051 50.8123 21.9838C50.8123 21.1624 50.9669 20.3998 51.2763 19.6958C51.5856 18.9918 52.0123 18.3784 52.5563 17.8558C53.1109 17.3224 53.7563 16.9118 54.4923 16.6238C55.2283 16.3251 56.0176 16.1758 56.8603 16.1758C57.8309 16.1758 58.7109 16.3518 59.5003 16.7038C60.3003 17.0558 60.9616 17.5411 61.4843 18.1598L59.7723 19.8718C59.4096 19.4024 58.9829 19.0504 58.4923 18.8158C58.0016 18.5811 57.4469 18.4638 56.8283 18.4638C56.1669 18.4638 55.5749 18.6131 55.0523 18.9118C54.5296 19.1998 54.1189 19.6104 53.8203 20.1438C53.5323 20.6664 53.3883 21.2798 53.3883 21.9838C53.3883 22.6878 53.5323 23.3064 53.8203 23.8398C54.1083 24.3731 54.5029 24.7891 55.0043 25.0878C55.5056 25.3864 56.0816 25.5358 56.7323 25.5358C57.3936 25.5358 57.9536 25.4131 58.4123 25.1678C58.8816 24.9118 59.2389 24.5491 59.4843 24.0798C59.7403 23.5998 59.8683 23.0184 59.8683 22.3358L61.5323 23.4558L56.4923 23.3758V21.2478H62.4283V21.6158C62.4283 22.9704 62.1829 24.1118 61.6923 25.0398C61.2123 25.9571 60.5403 26.6504 59.6763 27.1198C58.8229 27.5891 57.8363 27.8238 56.7163 27.8238Z"
    fill="#fff"
  />
  <path
    d="M73.4365 27.8238C72.5085 27.8238 71.7085 27.6744 71.0365 27.3758C70.3752 27.0664 69.7672 26.6024 69.2125 25.9838L70.8445 24.3678C71.2072 24.7838 71.6072 25.1091 72.0445 25.3438C72.4925 25.5678 73.0098 25.6798 73.5965 25.6798C74.1298 25.6798 74.5405 25.5838 74.8285 25.3918C75.1272 25.1998 75.2765 24.9331 75.2765 24.5918C75.2765 24.2824 75.1805 24.0318 74.9885 23.8398C74.7965 23.6478 74.5405 23.4824 74.2205 23.3438C73.9112 23.2051 73.5645 23.0718 73.1805 22.9438C72.8072 22.8158 72.4338 22.6718 72.0605 22.5118C71.6872 22.3411 71.3405 22.1331 71.0205 21.8878C70.7112 21.6318 70.4605 21.3171 70.2685 20.9438C70.0765 20.5598 69.9805 20.0798 69.9805 19.5038C69.9805 18.8104 70.1459 18.2131 70.4765 17.7118C70.8179 17.2104 71.2872 16.8318 71.8845 16.5758C72.4819 16.3091 73.1699 16.1758 73.9485 16.1758C74.7379 16.1758 75.4578 16.3144 76.1085 16.5918C76.7698 16.8691 77.3138 17.2478 77.7405 17.7278L76.1085 19.3438C75.7672 18.9918 75.4205 18.7304 75.0685 18.5598C74.7272 18.3891 74.3378 18.3038 73.9005 18.3038C73.4632 18.3038 73.1165 18.3891 72.8605 18.5598C72.6045 18.7198 72.4765 18.9544 72.4765 19.2638C72.4765 19.5518 72.5725 19.7864 72.7645 19.9678C72.9565 20.1384 73.2072 20.2878 73.5165 20.4158C73.8365 20.5438 74.1832 20.6718 74.5565 20.7998C74.9405 20.9278 75.3192 21.0771 75.6925 21.2478C76.0658 21.4184 76.4072 21.6371 76.7165 21.9038C77.0365 22.1598 77.2925 22.4904 77.4845 22.8958C77.6765 23.2904 77.7725 23.7811 77.7725 24.3678C77.7725 25.4451 77.3885 26.2931 76.6205 26.9118C75.8525 27.5198 74.7912 27.8238 73.4365 27.8238Z"
    fill="#fff"
  />
  <path
    d="M81.7188 27.6478V16.5118H84.2308V27.6478H81.7188ZM78.1828 18.5438V16.3518H87.7668V18.5438H78.1828Z"
    fill="#fff"
  />
  <path
    d="M86.9309 27.6478L91.4109 16.3518H93.6829L98.1149 27.6478H95.4589L92.0669 18.2718H92.9789L89.5389 27.6478H86.9309ZM89.4749 25.5998V23.5518H95.6349V25.5998H89.4749Z"
    fill="#fff"
  />
  <path
    d="M106.142 27.6478L101.566 21.7598L105.998 16.3518H109.102L104.11 22.2238V21.1998L109.262 27.6478H106.142ZM99.3101 27.6478V16.3518H101.822V27.6478H99.3101Z"
    fill="#fff"
  />
  <path d="M110.31 27.6478V16.3518H112.822V27.6478H110.31Z" fill="#fff" />
  <path
    d="M114.998 27.6478V16.3518H116.758L117.51 18.6078V27.6478H114.998ZM122.79 27.6478L116.134 19.1198L116.758 16.3518L123.414 24.8798L122.79 27.6478ZM122.79 27.6478L122.118 25.3918V16.3518H124.63V27.6478H122.79Z"
    fill="#fff"
  />
  <path
    d="M132.138 27.8238C131.317 27.8238 130.543 27.6744 129.818 27.3758C129.103 27.0771 128.479 26.6664 127.946 26.1438C127.413 25.6104 126.991 24.9918 126.682 24.2878C126.383 23.5731 126.234 22.8051 126.234 21.9838C126.234 21.1624 126.389 20.3998 126.698 19.6958C127.007 18.9918 127.434 18.3784 127.978 17.8558C128.533 17.3224 129.178 16.9118 129.914 16.6238C130.65 16.3251 131.439 16.1758 132.282 16.1758C133.253 16.1758 134.133 16.3518 134.922 16.7038C135.722 17.0558 136.383 17.5411 136.906 18.1598L135.194 19.8718C134.831 19.4024 134.405 19.0504 133.914 18.8158C133.423 18.5811 132.869 18.4638 132.25 18.4638C131.589 18.4638 130.997 18.6131 130.474 18.9118C129.951 19.1998 129.541 19.6104 129.242 20.1438C128.954 20.6664 128.81 21.2798 128.81 21.9838C128.81 22.6878 128.954 23.3064 129.242 23.8398C129.53 24.3731 129.925 24.7891 130.426 25.0878C130.927 25.3864 131.503 25.5358 132.154 25.5358C132.815 25.5358 133.375 25.4131 133.834 25.1678C134.303 24.9118 134.661 24.5491 134.906 24.0798C135.162 23.5998 135.29 23.0184 135.29 22.3358L136.954 23.4558L131.914 23.3758V21.2478H137.85V21.6158C137.85 22.9704 137.605 24.1118 137.114 25.0398C136.634 25.9571 135.962 26.6504 135.098 27.1198C134.245 27.5891 133.258 27.8238 132.138 27.8238Z"
    fill="#fff"
  />
</svg>
