<svg
  viewBox="0 0 32 32"
  xmlns="http://www.w3.org/2000/svg"
  xmlns:xlink="http://www.w3.org/1999/xlink"
>
  <path
    fill-rule="evenodd"
    clip-rule="evenodd"
    d="M16 0C24.8372 0 32 7.16282 32 16C32 24.8372 24.8372 32 16 32C7.16282 32 0 24.8372 0 16C0 7.16282 7.16282 0 16 0Z"
    fill="#E5BA41"
  />
  <path
    fill-rule="evenodd"
    clip-rule="evenodd"
    d="M20.897 13.0869L20.907 15.2383L17.8058 17.0757V20.7595L16.0048 21.8252L14.2039 20.7595V17.0757L11.1027 15.2383V13.0869L12.9113 12.0111L15.9938 13.8575L19.095 12.0111L20.9048 13.0869H20.897ZM11.1016 9.41314L15.9949 6.5L20.897 9.41314L19.0961 10.4889L15.9949 8.64254L12.9025 10.4889L11.1016 9.41314ZM9.81087 19.6748L9.80095 16L8.0011 14.9254V20.7606L12.9032 23.6637V21.5122L9.81087 19.6748ZM9.80095 14.4666V12.3252L11.6107 11.2494L9.80095 10.1737L8 11.2494V13.3909L9.80095 14.4666ZM15.9956 10.1737L14.1947 11.2494L15.9956 12.3252L17.8054 11.2494L15.9956 10.1737ZM12.9025 17.8374L11.1016 16.7617V18.9131L12.9025 19.9788V17.8374ZM15.9949 23.3586L14.1939 22.2829V24.4243L15.9949 25.5L17.8047 24.4243V22.2829L15.9949 23.3586ZM22.1885 10.1737L20.3875 11.2494L22.1885 12.3252V14.4666L23.9982 13.3909V11.2494L22.1885 10.1737ZM23.9993 14.9243L22.1984 16L22.1885 19.6748L19.0972 21.5111V23.6626L23.9993 20.7595V14.9243ZM19.0957 19.9789L20.8966 18.9132V16.7617L19.0957 17.8374V19.9789Z"
    fill="#fff"
  />
</svg>
