<svg
  viewBox="0 0 32 32"
  xmlns="http://www.w3.org/2000/svg"
  xmlns:xlink="http://www.w3.org/1999/xlink"
>
  <path
    d="M16 31.98C24.8255 31.98 31.98 24.8255 31.98 16C31.98 7.17446 24.8255 0.0199585 16 0.0199585C7.17446 0.0199585 0.0199585 7.17446 0.0199585 16C0.0199585 24.8255 7.17446 31.98 16 31.98Z"
    fill="#121212"
  />
  <path
    d="M10.0405 16L7.59553 18.4619L5.13361 16L7.59553 13.5381L10.0405 16ZM16 10.0405L20.2108 14.2512L22.6727 11.7893L18.4619 7.59553L16 5.13361L13.5381 7.59553L9.34434 11.7893L11.8063 14.2512L16 10.0405ZM24.4045 13.5381L21.9596 16L24.4215 18.4619L26.8664 16L24.4045 13.5381ZM16 21.9596L11.7893 17.7488L9.34434 20.2108L13.5551 24.4215L16 26.8664L18.4619 24.4045L22.6727 20.1938L20.2108 17.7488L16 21.9596ZM16 18.4619L18.4619 16L16 13.5381L13.5381 16L16 18.4619Z"
    fill="#f0b90b"
  />
</svg>
