<svg
  xmlns="http://www.w3.org/2000/svg"
  xmlns:xlink="http://www.w3.org/1999/xlink"
>
  <symbol viewBox="0 0 16 16" id="size-16">
    <path
      d="M12.2 4.39998C13.2164 4.39998 14 5.3142 14 6.39994V12C14 13.0858 13.2164 14 12.2 14H6.2C5.18356 14 4.4 13.0858 4.4 12H5.6C5.6 12.4606 5.89096 12.8 6.2 12.8H12.2C12.509 12.8 12.8 12.4606 12.8 12V6.39994C12.8 5.9394 12.509 5.59997 12.2 5.59997V4.39998ZM9.8 2C10.7941 2 11.6 2.8059 11.6 3.79999V9.79994C11.6 10.794 10.7941 11.5999 9.8 11.5999H3.8C2.80591 11.5999 2 10.794 2 9.79994V3.79999C2 2.8059 2.80591 2 3.8 2H9.8ZM9.8 3.19999H3.8C3.46861 3.19999 3.2 3.4686 3.2 3.79999V9.79994C3.2 10.1313 3.46861 10.3999 3.8 10.3999H9.8C10.1314 10.3999 10.4 10.1313 10.4 9.79994V3.79999C10.4 3.4686 10.1314 3.19999 9.8 3.19999Z"
      fill="currentColor"
    />
  </symbol>

  <symbol viewBox="0 0 24 24" id="size-24">
    <path
      d="M18.3 6.59997C19.8247 6.59997 21 7.97131 21 9.59991V18.0001C21 19.6287 19.8247 21 18.3 21H9.3C7.77534 21 6.6 19.6287 6.6 18.0001H8.4C8.4 18.6909 8.83644 19.2 9.3 19.2H18.3C18.7636 19.2 19.2 18.6909 19.2 18.0001V9.59991C19.2 8.9091 18.7636 8.39996 18.3 8.39996V6.59997ZM14.7 3C16.1911 3 17.4 4.20885 17.4 5.69998V14.6999C17.4 16.191 16.1911 17.3999 14.7 17.3999H5.7C4.20886 17.3999 3 16.191 3 14.6999V5.69998C3 4.20885 4.20886 3 5.7 3H14.7ZM14.7 4.79999H5.7C5.20291 4.79999 4.8 5.20289 4.8 5.69998V14.6999C4.8 15.197 5.20291 15.5999 5.7 15.5999H14.7C15.1971 15.5999 15.6 15.197 15.6 14.6999V5.69998C15.6 5.20289 15.1971 4.79999 14.7 4.79999Z"
      fill="currentColor"
    />
  </symbol>

  <symbol viewBox="0 0 32 32" id="size-32">
    <path
      d="M24.4 8.79997C26.4329 8.79997 28 10.6284 28 12.7999V24.0001C28 26.1716 26.4329 28 24.4 28H12.4C10.3671 28 8.8 26.1716 8.8 24.0001H11.2C11.2 24.9212 11.7819 25.6 12.4 25.6H24.4C25.0181 25.6 25.6 24.9212 25.6 24.0001V12.7999C25.6 11.8788 25.0181 11.1999 24.4 11.1999V8.79997ZM19.6 4C21.5882 4 23.2 5.6118 23.2 7.59997V19.5999C23.2 21.5881 21.5882 23.1999 19.6 23.1999H7.6C5.61181 23.1999 4 21.5881 4 19.5999V7.59997C4 5.6118 5.61181 4 7.6 4H19.6ZM19.6 6.39998H7.6C6.93721 6.39998 6.4 6.93719 6.4 7.59997V19.5999C6.4 20.2627 6.93721 20.7999 7.6 20.7999H19.6C20.2628 20.7999 20.8 20.2627 20.8 19.5999V7.59997C20.8 6.93719 20.2628 6.39998 19.6 6.39998Z"
      fill="currentColor"
    />
  </symbol>
</svg>
