<svg
  xmlns="http://www.w3.org/2000/svg"
  xmlns:xlink="http://www.w3.org/1999/xlink"
>
  <symbol viewBox="0 0 16 16" id="size-16">
    <path
      fill-rule="evenodd"
      clip-rule="evenodd"
      d="M12.5303 5.46967C12.8232 5.76256 12.8232 6.23744 12.5303 6.53033L8.53033 10.5303C8.23744 10.8232 7.76256 10.8232 7.46967 10.5303L3.46967 6.53033C3.17678 6.23744 3.17678 5.76256 3.46967 5.46967C3.76256 5.17678 4.23744 5.17678 4.53033 5.46967L8 8.93934L11.4697 5.46967C11.7626 5.17678 12.2374 5.17678 12.5303 5.46967Z"
      fill="currentColor"
    />
  </symbol>

  <symbol viewBox="0 0 24 24" id="size-24">
    <path
      fill-rule="evenodd"
      clip-rule="evenodd"
      d="M18.7071 8.29289C19.0976 8.68342 19.0976 9.31658 18.7071 9.70711L12.7071 15.7071C12.3166 16.0976 11.6834 16.0976 11.2929 15.7071L5.29289 9.70711C4.90237 9.31658 4.90237 8.68342 5.29289 8.29289C5.68342 7.90237 6.31658 7.90237 6.70711 8.29289L12 13.5858L17.2929 8.29289C17.6834 7.90237 18.3166 7.90237 18.7071 8.29289Z"
      fill="currentColor"
    />
  </symbol>

  <symbol viewBox="0 0 32 32" id="size-32">
    <path
      fill-rule="evenodd"
      clip-rule="evenodd"
      d="M24.7071 11.2929C25.0976 11.6834 25.0976 12.3166 24.7071 12.7071L16.7071 20.7071C16.3166 21.0976 15.6834 21.0976 15.2929 20.7071L7.29289 12.7071C6.90237 12.3166 6.90237 11.6834 7.29289 11.2929C7.68342 10.9024 8.31658 10.9024 8.70711 11.2929L16 18.5858L23.2929 11.2929C23.6834 10.9024 24.3166 10.9024 24.7071 11.2929Z"
      fill="currentColor"
    />
  </symbol>
</svg>
