<svg
  viewBox="0 0 64 64"
  xmlns="http://www.w3.org/2000/svg"
  xmlns:xlink="http://www.w3.org/1999/xlink"
>
  <defs>
    <clipPath id="logo_box_clip">
      <rect width="64" height="64" fill="#fff" />
    </clipPath>
  </defs>

  <g clip-path="url(#logo_box_clip)">
    <path
      d="M32 0C49.675 0 64 14.325 64 32C64 49.675 49.675 64 32 64C14.325 64 0 49.675 0 32C0 14.325 14.325 0 32 0Z"
      fill="#0052ff"
    />
    <path
      d="M32.0062 43.25C25.7937 43.25 20.7563 38.2188 20.7563 32C20.7563 25.7812 25.7937 20.75 32.0062 20.75C37.575 20.75 42.2 24.8125 43.0875 30.125H54.4188C53.4625 18.575 43.7938 9.5 32 9.5C19.575 9.5 9.5 19.575 9.5 32C9.5 44.425 19.575 54.5 32 54.5C43.7938 54.5 53.4625 45.425 54.4188 33.875H43.0812C42.1875 39.1875 37.575 43.25 32.0062 43.25Z"
      fill="#fff"
    />
  </g>
</svg>
