<svg
  xmlns="http://www.w3.org/2000/svg"
  xmlns:xlink="http://www.w3.org/1999/xlink"
>
  <symbol viewBox="0 0 16 16" id="size-16">
    <path
      d="M8.38524 4.72932L1.87103 6.76752C1.75782 6.80195 1.63789 6.73913 1.60186 6.62638L1.34375 5.80279C1.30853 5.68958 1.37157 5.56919 1.48466 5.53362L7.99916 3.49542C8.05354 3.47855 8.11237 3.48402 8.16276 3.51059C8.21326 3.53681 8.25134 3.58207 8.26833 3.63645L8.52644 4.4598V4.45991C8.56178 4.57324 8.49851 4.69385 8.38519 4.72931L8.38524 4.72932ZM7.55345 1.24398L14.07 3.2741C14.1833 3.30841 14.3031 3.24548 14.3392 3.13262L14.5957 2.30891C14.6303 2.19559 14.5673 2.07554 14.4544 2.03963L7.93759 0.00974866C7.88321 -0.00723818 7.82427 -0.00188001 7.77376 0.0246835C7.72337 0.0511328 7.68541 0.0966199 7.66853 0.151001L7.41179 0.974908C7.37736 1.08823 7.44041 1.20816 7.55328 1.24396L7.55345 1.24398ZM11.3913 7.82794C11.4684 7.82794 11.545 7.82999 11.6212 7.8341V7.20261C11.621 7.08393 11.5247 6.98782 11.4061 6.98771H4.58073C4.46205 6.98782 4.36594 7.08393 4.36583 7.20261V8.06551C4.36594 8.18419 4.46205 8.2803 4.58073 8.28041H9.46813C10.0653 7.98193 10.7238 7.82713 11.3914 7.82792L11.3913 7.82794ZM8.73797 8.74136H6.09715C5.97847 8.74148 5.88236 8.8377 5.88225 8.95638V9.81916C5.88236 9.93784 5.97847 10.0339 6.09715 10.0342H7.62677C7.90813 9.53414 8.28583 9.09468 8.73797 8.74136ZM4.36598 10.71V11.5729C4.3661 11.6916 4.46221 11.7877 4.58089 11.7878H7.08959C7.12584 11.3431 7.23152 10.9067 7.40254 10.4945H4.581C4.52389 10.4945 4.46916 10.5172 4.42881 10.5577C4.38856 10.5981 4.36587 10.6529 4.36598 10.71ZM7.07612 12.2494H3.75218C3.6335 12.2495 3.5374 12.3458 3.53717 12.4644V13.3272C3.5374 13.4459 3.6335 13.542 3.75218 13.5422H7.30698C7.16424 13.1257 7.08638 12.6896 7.07612 12.2494ZM7.49578 14.0025H4.58088C4.4622 14.0026 4.36609 14.0987 4.36598 14.2174V15.0803C4.36643 15.1986 4.46254 15.2944 4.58088 15.2945H8.44446C8.05068 14.9265 7.72883 14.4884 7.49569 14.0025L7.49578 14.0025ZM15.2472 12.1444C15.2472 13.1671 14.8408 14.1477 14.1177 14.8709C13.3946 15.5939 12.4138 16.0001 11.3913 16C10.3686 16 9.38782 15.5937 8.66481 14.8705C7.94179 14.1475 7.53559 13.1667 7.53559 12.1441C7.5357 11.1215 7.94191 10.1408 8.66504 9.41776C9.38817 8.69464 10.369 8.28843 11.3916 8.28855C12.4138 8.28969 13.3938 8.69636 14.1166 9.41914C14.8393 10.1419 15.246 11.1219 15.2472 12.1441V12.1444ZM14.476 12.1444C14.476 11.3263 14.1511 10.5417 13.5725 9.96315C12.9941 9.3847 12.2095 9.05977 11.3914 9.05977C10.5733 9.05977 9.78856 9.38481 9.21011 9.96327C8.63165 10.5418 8.30673 11.3264 8.30673 12.1445C8.30673 12.9626 8.63177 13.7472 9.21034 14.3257C9.7888 14.9041 10.5735 15.2292 11.3916 15.2291C12.2095 15.2282 12.9935 14.9029 13.5719 14.3245C14.1501 13.7461 14.4753 12.9619 14.476 12.1441V12.1444ZM14.0151 12.1444H14.0152C14.0152 12.8403 13.7389 13.5077 13.2468 13.9999C12.7548 14.4919 12.0874 14.7684 11.3915 14.7684C10.6956 14.7684 10.0282 14.492 9.53605 13.9999C9.04401 13.5078 8.76754 12.8404 8.76765 12.1445C8.76765 11.4486 9.04412 10.7813 9.53616 10.2892C10.0282 9.79718 10.6957 9.52082 11.3916 9.52082C12.087 9.52162 12.754 9.79819 13.2458 10.29C13.7376 10.7817 14.0143 11.4485 14.0152 12.1441L14.0151 12.1444ZM12.0375 11.1053C12.0372 10.9747 11.9973 10.8473 11.9231 10.7398C11.8489 10.6324 11.7439 10.5498 11.6219 10.5032V10.2646C11.6185 10.1398 11.5163 10.0404 11.3915 10.0404C11.2666 10.0404 11.1644 10.1398 11.1611 10.2646V10.5025C11.0391 10.5492 10.9341 10.6317 10.8599 10.7391C10.7858 10.8466 10.7459 10.9741 10.7455 11.1046V11.6336C10.7455 12.0956 11.0755 12.25 11.2938 12.3521C11.5193 12.4576 11.5766 12.5009 11.5766 12.6532V13.1823C11.5766 13.2846 11.4937 13.3675 11.3916 13.3675C11.2893 13.3675 11.2065 13.2846 11.2065 13.1823V12.7963C11.2082 12.734 11.1846 12.6739 11.1412 12.6292C11.0978 12.5846 11.0382 12.5595 10.976 12.5595C10.9138 12.5595 10.8542 12.5846 10.8107 12.6292C10.7674 12.6738 10.7438 12.734 10.7455 12.7963V13.183C10.7459 13.3137 10.7858 13.441 10.8599 13.5485C10.9341 13.656 11.0391 13.7385 11.1611 13.7852V14.0231C11.1644 14.1479 11.2666 14.2473 11.3915 14.2473C11.5163 14.2473 11.6185 14.1479 11.6219 14.0231V13.7859C11.7439 13.7392 11.8489 13.6567 11.9231 13.5492C11.9973 13.4418 12.0372 13.3143 12.0375 13.1837V12.654C12.0375 12.192 11.7074 12.0376 11.489 11.9354C11.2635 11.83 11.2064 11.7867 11.2064 11.6344V11.1053C11.2064 11.0031 11.2893 10.9202 11.3916 10.9202C11.4937 10.9202 11.5766 11.0031 11.5766 11.1053V11.4924C11.58 11.6173 11.6822 11.7167 11.8071 11.7167C11.932 11.7167 12.0341 11.6173 12.0375 11.4924L12.0375 11.1053Z"
      fill="currentColor"
    />
  </symbol>

  <symbol viewBox="0 0 24 24" fill="none" id="size-24">
    <path
      d="M12.5769 7.09397L2.80557 10.1513C2.63576 10.2029 2.45586 10.1087 2.40182 9.93956L2.01465 8.70419C1.96181 8.53438 2.05638 8.35379 2.22602 8.30043L11.9978 5.24313C12.0793 5.21783 12.1676 5.22603 12.2432 5.26588C12.3189 5.30521 12.376 5.3731 12.4015 5.45467L12.7887 6.6897V6.68987C12.8417 6.85985 12.7468 7.04078 12.5768 7.09397L12.5769 7.09397ZM11.3292 1.86597L21.104 4.91115C21.274 4.96262 21.4537 4.86822 21.5078 4.69892L21.8925 3.46337C21.9445 3.29339 21.85 3.11331 21.6807 3.05944L11.9054 0.014623C11.8238 -0.0108573 11.7354 -0.00282002 11.6597 0.0370252C11.5841 0.0766993 11.5271 0.14493 11.5018 0.226502L11.1167 1.46236C11.0651 1.63234 11.1596 1.81225 11.3289 1.86595L11.3292 1.86597ZM17.086 11.7419C17.2016 11.7419 17.3166 11.745 17.4308 11.7511V10.8039C17.4305 10.6259 17.2861 10.4817 17.1081 10.4816H6.87012C6.6921 10.4817 6.54794 10.6259 6.54776 10.8039V12.0983C6.54794 12.2763 6.6921 12.4204 6.87012 12.4206H14.2012C15.097 11.9729 16.0847 11.7407 17.0861 11.7419L17.086 11.7419ZM13.106 13.112H9.14475C8.96673 13.1122 8.82257 13.2565 8.8224 13.4346V14.7287C8.82257 14.9068 8.96673 15.0509 9.14475 15.0513H11.4392C11.8612 14.3012 12.4278 13.642 13.106 13.112ZM6.548 16.065V17.3594C6.54817 17.5374 6.69233 17.6815 6.87035 17.6817H10.6334C10.6878 17.0146 10.8463 16.36 11.1028 15.7418H6.87053C6.78485 15.7418 6.70277 15.7758 6.64223 15.8366C6.58187 15.8971 6.54783 15.9793 6.548 16.065ZM10.6132 18.3741H5.6273C5.44928 18.3743 5.30512 18.5186 5.30478 18.6967V19.9908C5.30512 20.1689 5.44928 20.313 5.6273 20.3134H10.9595C10.7454 19.6885 10.6286 19.0344 10.6132 18.3741ZM11.2427 21.0037H6.87034C6.69232 21.0039 6.54816 21.1481 6.54799 21.3261V22.6204C6.54867 22.7979 6.69283 22.9416 6.87034 22.9418H12.6657C12.0751 22.3898 11.5923 21.7326 11.2426 21.0037L11.2427 21.0037ZM22.8698 18.2166C22.8698 19.7506 22.2603 21.2216 21.1756 22.3063C20.0909 23.3908 18.6197 24.0001 17.0859 24C15.552 24 14.0808 23.3905 12.9962 22.3058C11.9117 21.2213 11.3024 19.7501 11.3024 18.2161C11.3026 16.6822 11.9119 15.2112 12.9966 14.1266C14.0813 13.042 15.5525 12.4326 17.0864 12.4328C18.6197 12.4345 20.0897 13.0445 21.1739 14.1287C22.258 15.2129 22.8681 16.6829 22.8698 18.2161V18.2166ZM21.7131 18.2166C21.7131 16.9895 21.2257 15.8126 20.3578 14.9447C19.4901 14.077 18.3132 13.5897 17.0861 13.5897C15.8589 13.5897 14.6819 14.0772 13.8142 14.9449C12.9465 15.8128 12.4591 16.9897 12.4591 18.2168C12.4591 19.444 12.9467 20.6208 13.8145 21.4885C14.6822 22.3562 15.8593 22.8438 17.0864 22.8436C18.3132 22.8422 19.4893 22.3543 20.3568 21.4868C21.2241 20.6191 21.712 19.4429 21.7131 18.2161V18.2166ZM21.0217 18.2166H21.0218C21.0218 19.2605 20.6073 20.2616 19.8692 20.9998C19.1312 21.7378 18.1301 22.1526 17.0863 22.1526C16.0425 22.1526 15.0413 21.738 14.3031 20.9998C13.565 20.2617 13.1503 19.2606 13.1505 18.2168C13.1505 17.173 13.5652 16.1719 14.3033 15.4338C15.0413 14.6958 16.0426 14.2812 17.0864 14.2812C18.1296 14.2824 19.13 14.6973 19.8677 15.435C20.6055 16.1726 21.0205 17.1728 21.0218 18.2161L21.0217 18.2166ZM18.0553 16.6579C18.0548 16.4621 17.995 16.2709 17.8836 16.1097C17.7723 15.9486 17.6148 15.8248 17.4318 15.7548V15.3969C17.4267 15.2096 17.2735 15.0605 17.0862 15.0605C16.899 15.0605 16.7456 15.2096 16.7406 15.3969V15.7538C16.5577 15.8237 16.4002 15.9475 16.2888 16.1086C16.1777 16.2699 16.1178 16.4611 16.1173 16.6569V17.4504C16.1173 18.1435 16.6122 18.375 16.9397 18.5282C17.278 18.6864 17.364 18.7514 17.364 18.9798V19.7735C17.364 19.9269 17.2396 20.0512 17.0864 20.0512C16.933 20.0512 16.8087 19.9269 16.8087 19.7735V19.1944C16.8113 19.1011 16.7759 19.0108 16.7109 18.9437C16.6457 18.8769 16.5563 18.8393 16.4631 18.8393C16.3697 18.8393 16.2803 18.8769 16.2151 18.9437C16.1501 19.0108 16.1147 19.1011 16.1173 19.1944V19.7745C16.1178 19.9705 16.1777 20.1615 16.2888 20.3227C16.4002 20.484 16.5577 20.6078 16.7406 20.6778V21.0346C16.7456 21.2219 16.899 21.371 17.0862 21.371C17.2735 21.371 17.4267 21.2219 17.4318 21.0346V20.6788C17.6148 20.6088 17.7723 20.485 17.8836 20.3238C17.995 20.1627 18.0548 19.9715 18.0553 19.7755V18.981C18.0553 18.2879 17.5601 18.0564 17.2326 17.9032C16.8943 17.745 16.8087 17.68 16.8087 17.4516V16.6579C16.8087 16.5047 16.933 16.3804 17.0864 16.3804C17.2396 16.3804 17.3639 16.5047 17.3639 16.6579V17.2387C17.3691 17.4259 17.5223 17.575 17.7097 17.575C17.897 17.575 18.0502 17.4259 18.0553 17.2387L18.0553 16.6579Z"
      fill="currentColor"
    />
  </symbol>

  <symbol viewBox="0 0 32 32" id="size-32">
    <path
      d="M16.7685 9.45863L3.74011 13.535C3.5137 13.6039 3.27383 13.4783 3.20177 13.2528L2.68555 11.6056C2.6151 11.3792 2.74119 11.1384 2.96737 11.0672L15.9964 6.99085C16.1051 6.9571 16.2228 6.96805 16.3236 7.02117C16.4246 7.07362 16.5007 7.16413 16.5347 7.2729L17.0509 8.9196V8.91983C17.1216 9.14647 16.9951 9.38771 16.7684 9.45862L16.7685 9.45863ZM15.1049 2.48797L28.138 6.5482C28.3647 6.61683 28.6043 6.49096 28.6764 6.26523L29.1894 4.61783C29.2587 4.39118 29.1326 4.15109 28.9069 4.07926L15.8732 0.0194973C15.7645 -0.0144764 15.6466 -0.00376003 15.5456 0.0493669C15.4448 0.102266 15.3689 0.19324 15.3351 0.302003L14.8216 1.94982C14.7528 2.17646 14.8789 2.41633 15.1046 2.48793L15.1049 2.48797ZM22.7807 15.6559C22.9349 15.6559 23.0881 15.66 23.2404 15.6682V14.4052C23.24 14.1679 23.0475 13.9756 22.8101 13.9754H9.1595C8.92214 13.9756 8.72993 14.1679 8.7297 14.4052V16.131C8.72993 16.3684 8.92214 16.5606 9.1595 16.5608H18.9343C20.1286 15.9639 21.4456 15.6543 22.7808 15.6558L22.7807 15.6559ZM17.474 17.4827H12.1924C11.955 17.483 11.7628 17.6754 11.7625 17.9128V19.6383C11.7628 19.8757 11.955 20.0679 12.1924 20.0683H15.2516C15.8143 19.0683 16.5697 18.1894 17.474 17.4827ZM8.73002 21.42V23.1458C8.73024 23.3832 8.92246 23.5754 9.15982 23.5756H14.1772C14.2497 22.6862 14.4611 21.8133 14.8031 20.9891H9.16005C9.04582 20.9891 8.93638 21.0345 8.85566 21.1154C8.77517 21.1961 8.72979 21.3058 8.73002 21.42ZM14.1503 24.4989H7.50242C7.26506 24.4991 7.07284 24.6915 7.07238 24.9289V26.6545C7.07284 26.8918 7.26506 27.084 7.50242 27.0845H14.612C14.3265 26.2514 14.1708 25.3792 14.1503 24.4989ZM14.9896 28.005H9.1598C8.92244 28.0052 8.73023 28.1974 8.73 28.4348V30.1606C8.73091 30.3973 8.92312 30.5888 9.1598 30.589H16.887C16.0994 29.853 15.4557 28.9767 14.9894 28.0049L14.9896 28.005ZM30.4924 24.2888C30.4924 26.3341 29.6797 28.2955 28.2335 29.7417C26.7872 31.1878 24.8256 32.0002 22.7806 32C20.7353 32 18.7737 31.1874 17.3277 29.7411C15.8816 28.2951 15.0692 26.3335 15.0692 24.2882C15.0695 22.2429 15.8819 20.2816 17.3281 18.8355C18.7744 17.3893 20.736 16.5769 22.7813 16.5771C24.8256 16.5794 26.7856 17.3927 28.2312 18.8383C29.6767 20.2838 30.4901 22.2439 30.4924 24.2882V24.2888ZM28.9501 24.2888C28.9501 22.6526 28.3002 21.0835 27.1431 19.9263C25.9862 18.7694 24.417 18.1195 22.7808 18.1195C21.1446 18.1195 19.5752 18.7696 18.4183 19.9265C17.2613 21.0837 16.6115 22.6529 16.6115 24.2891C16.6115 25.9253 17.2616 27.4945 18.4187 28.6514C19.5756 29.8083 21.1451 30.4584 22.7813 30.4581C24.417 30.4563 25.9851 29.8058 27.1418 28.6491C28.2982 27.4922 28.9487 25.9239 28.9501 24.2881V24.2888ZM28.0282 24.2888H28.0285C28.0285 25.6806 27.4758 27.0154 26.4917 27.9997C25.5076 28.9838 24.1728 29.5367 22.781 29.5367C21.3893 29.5367 20.0545 28.984 19.0701 27.9997C18.0861 27.0156 17.5331 25.6808 17.5334 24.2891C17.5334 22.8973 18.0863 21.5625 19.0704 20.5784C20.0545 19.5944 21.3895 19.0416 22.7813 19.0416C24.1721 19.0432 25.506 19.5964 26.4896 20.58C27.4733 21.5634 28.0266 22.897 28.0285 24.2881L28.0282 24.2888ZM24.0731 22.2105C24.0724 21.9495 23.9926 21.6946 23.8442 21.4796C23.6958 21.2648 23.4858 21.0997 23.2418 21.0064V20.5292C23.235 20.2795 23.0307 20.0807 22.781 20.0807C22.5313 20.0807 22.3268 20.2795 22.3202 20.5292V21.0051C22.0762 21.0983 21.8662 21.2634 21.7178 21.4782C21.5696 21.6932 21.4898 21.9481 21.4891 22.2092V23.2671C21.4891 24.1913 22.149 24.5 22.5856 24.7043C23.0366 24.9152 23.1513 25.0019 23.1513 25.3065V26.3647C23.1513 26.5692 22.9855 26.735 22.7812 26.735C22.5767 26.735 22.4109 26.5692 22.4109 26.3647V25.5926C22.4144 25.4681 22.3672 25.3477 22.2805 25.2583C22.1937 25.1692 22.0744 25.119 21.9501 25.119C21.8256 25.119 21.7064 25.1692 21.6195 25.2583C21.5329 25.3477 21.4857 25.4681 21.4891 25.5926V26.366C21.4898 26.6273 21.5696 26.882 21.7178 27.097C21.8662 27.312 22.0762 27.4771 22.3202 27.5703V28.0462C22.3268 28.2959 22.5313 28.4947 22.781 28.4947C23.0307 28.4947 23.235 28.2959 23.2418 28.0462V27.5717C23.4858 27.4784 23.6958 27.3134 23.8442 27.0983C23.9926 26.8836 24.0724 26.6286 24.0731 26.3674V25.3081C24.0731 24.3839 23.4128 24.0752 22.9761 23.8709C22.5251 23.66 22.4109 23.5733 22.4109 23.2687V22.2105C22.4109 22.0062 22.5767 21.8405 22.7812 21.8405C22.9855 21.8405 23.1513 22.0062 23.1513 22.2105V22.9849C23.1581 23.2346 23.3624 23.4334 23.6123 23.4334C23.862 23.4334 24.0663 23.2346 24.0731 22.9849L24.0731 22.2105Z"
      fill="currentColor"
    />
  </symbol>
</svg>
