<svg
  xmlns="http://www.w3.org/2000/svg"
  xmlns:xlink="http://www.w3.org/1999/xlink"
>
  <symbol viewBox="0 0 16 17" id="size-16">
    <path
      fill-rule="evenodd"
      clip-rule="evenodd"
      d="M5.23459 1.77768C5.23459 1.39584 4.92499 1.08635 4.54315 1.08635C4.1613 1.08635 3.85182 1.39584 3.85182 1.77768V2.46901C2.70632 2.46901 1.77771 3.39762 1.77771 4.54312V12.8395C1.77771 13.9852 2.70632 14.9136 3.85182 14.9136H12.1482C13.2937 14.9136 14.2224 13.9852 14.2224 12.8395V4.54312C14.2224 3.39762 13.2937 2.46901 12.1482 2.46901V1.77768C12.1482 1.39584 11.8388 1.08635 11.4569 1.08635C11.0751 1.08635 10.7655 1.39584 10.7655 1.77768V2.46901H5.23471L5.23459 1.77768ZM12.8395 5.92589V4.54312C12.8395 4.16127 12.53 3.85179 12.1481 3.85179H3.8517C3.46986 3.85179 3.16037 4.16127 3.16037 4.54312V5.92589H12.8395ZM3.16049 7.30867H12.8395V12.8394C12.8395 13.2213 12.53 13.5309 12.1481 13.5309H3.8517C3.46986 13.5309 3.16037 13.2213 3.16037 12.8394L3.16049 7.30867Z"
      fill="currentColor"
    />
  </symbol>

  <symbol viewBox="0 0 24 24" id="size-24">
    <path
      fill-rule="evenodd"
      clip-rule="evenodd"
      d="M8.8735 4.5C8.8735 4.03975 8.50032 3.66672 8.04007 3.66672C7.57982 3.66672 7.20679 4.03975 7.20679 4.5V5.33329C5.82607 5.33329 4.70679 6.45257 4.70679 7.83329V17.8333C4.70679 19.2141 5.82607 20.3333 7.20679 20.3333H17.2068C18.5875 20.3333 19.7068 19.2141 19.7068 17.8333V7.83329C19.7068 6.45257 18.5875 5.33329 17.2068 5.33329V4.5C17.2068 4.03975 16.8338 3.66672 16.3735 3.66672C15.9133 3.66672 15.5401 4.03975 15.5401 4.5V5.33329H8.87364L8.8735 4.5ZM18.0399 9.5V7.83329C18.0399 7.37304 17.6669 7 17.2066 7H7.20664C6.74639 7 6.37336 7.37304 6.37336 7.83329V9.5H18.0399ZM6.3735 11.1667H18.0399V17.8331C18.0399 18.2934 17.6669 18.6666 17.2066 18.6666H7.20664C6.74639 18.6666 6.37336 18.2934 6.37336 17.8331L6.3735 11.1667Z"
      fill="currentColor"
    />
  </symbol>

  <symbol viewBox="0 0 32 32" id="size-32">
    <path
      fill-rule="evenodd"
      clip-rule="evenodd"
      d="M11.7624 5.99999C11.7624 5.38633 11.2648 4.88895 10.6512 4.88895C10.0375 4.88895 9.54012 5.38633 9.54012 5.99999V7.11104C7.69917 7.11104 6.20679 8.60342 6.20679 10.4444V23.7777C6.20679 25.6189 7.69917 27.111 9.54012 27.111H22.8735C24.7144 27.111 26.2068 25.6189 26.2068 23.7777V10.4444C26.2068 8.60342 24.7144 7.11104 22.8735 7.11104V5.99999C22.8735 5.38633 22.3761 4.88895 21.7624 4.88895C21.1487 4.88895 20.6512 5.38633 20.6512 5.99999V7.11104H11.7626L11.7624 5.99999ZM23.9843 12.6667V10.4444C23.9843 9.83071 23.4869 9.33333 22.8733 9.33333H9.53993C8.92626 9.33333 8.42888 9.83071 8.42888 10.4444V12.6667H23.9843ZM8.42907 14.8889H23.9843V23.7775C23.9843 24.3912 23.4869 24.8888 22.8733 24.8888H9.53993C8.92626 24.8888 8.42888 24.3912 8.42888 23.7775L8.42907 14.8889Z"
      fill="currentColor"
    />
  </symbol>
</svg>
