<svg
  xmlns="http://www.w3.org/2000/svg"
  xmlns:xlink="http://www.w3.org/1999/xlink"
>
  <symbol viewBox="0 0 16 16" id="size-16">
    <path
      fill-rule="evenodd"
      clip-rule="evenodd"
      d="M9.53033 3.46967C9.23744 3.17678 8.76256 3.17678 8.46967 3.46967L4.46967 7.46967C4.17678 7.76256 4.17678 8.23744 4.46967 8.53033L8.46967 12.5303C8.76256 12.8232 9.23744 12.8232 9.53033 12.5303C9.82322 12.2374 9.82322 11.7626 9.53033 11.4697L6.06066 8L9.53033 4.53033C9.82322 4.23744 9.82322 3.76256 9.53033 3.46967Z"
      fill="currentColor"
    />
  </symbol>

  <symbol viewBox="0 0 24 24" id="size-24">
    <path
      fill-rule="evenodd"
      clip-rule="evenodd"
      d="M14.7071 5.29289C14.3166 4.90237 13.6834 4.90237 13.2929 5.29289L7.29289 11.2929C6.90237 11.6834 6.90237 12.3166 7.29289 12.7071L13.2929 18.7071C13.6834 19.0976 14.3166 19.0976 14.7071 18.7071C15.0976 18.3166 15.0976 17.6834 14.7071 17.2929L9.41421 12L14.7071 6.70711C15.0976 6.31658 15.0976 5.68342 14.7071 5.29289Z"
      fill="currentColor"
    />
  </symbol>

  <symbol viewBox="0 0 32 32" id="size-32">
    <path
      fill-rule="evenodd"
      clip-rule="evenodd"
      d="M19.7071 7.29289C19.3166 6.90237 18.6834 6.90237 18.2929 7.29289L10.2929 15.2929C9.90237 15.6834 9.90237 16.3166 10.2929 16.7071L18.2929 24.7071C18.6834 25.0976 19.3166 25.0976 19.7071 24.7071C20.0976 24.3166 20.0976 23.6834 19.7071 23.2929L12.4142 16L19.7071 8.70711C20.0976 8.31658 20.0976 7.68342 19.7071 7.29289Z"
      fill="currentColor"
    />
  </symbol>
</svg>
