<svg
  xmlns="http://www.w3.org/2000/svg"
  xmlns:xlink="http://www.w3.org/1999/xlink"
>
  <symbol viewBox="0 0 16 16" id="size-16">
    <path
      fill-rule="evenodd"
      clip-rule="evenodd"
      d="M12.5303 4.80268C12.8232 5.09557 12.8232 5.57044 12.5303 5.86334L7.03033 11.3633C6.73744 11.6562 6.26256 11.6562 5.96967 11.3633L3.46967 8.86334C3.17678 8.57044 3.17678 8.09557 3.46967 7.80268C3.76256 7.50978 4.23744 7.50978 4.53033 7.80268L6.5 9.77235L11.4697 4.80268C11.7626 4.50978 12.2374 4.50978 12.5303 4.80268Z"
      fill="currentColor"
    />
  </symbol>

  <symbol viewBox="0 0 24 24" id="size-24">
    <path
      fill-rule="evenodd"
      clip-rule="evenodd"
      d="M18.7071 7.29289C19.0976 7.68342 19.0976 8.31658 18.7071 8.70711L10.4571 16.9571C10.0666 17.3476 9.43342 17.3476 9.04289 16.9571L5.29289 13.2071C4.90237 12.8166 4.90237 12.1834 5.29289 11.7929C5.68342 11.4024 6.31658 11.4024 6.70711 11.7929L9.75 14.8358L17.2929 7.29289C17.6834 6.90237 18.3166 6.90237 18.7071 7.29289Z"
      fill="currentColor"
    />
  </symbol>

  <symbol viewBox="0 0 32 32" id="size-32">
    <path
      fill-rule="evenodd"
      clip-rule="evenodd"
      d="M27.728 6.93934C28.3138 7.52513 28.3138 8.47487 27.728 9.06066L13.0613 23.7273C12.4755 24.3131 11.5258 24.3131 10.94 23.7273L4.27332 17.0607C3.68754 16.4749 3.68754 15.5251 4.27332 14.9393C4.85911 14.3536 5.80886 14.3536 6.39464 14.9393L12.0007 20.5453L25.6067 6.93934C26.1924 6.35355 27.1422 6.35355 27.728 6.93934Z"
      fill="currentColor"
    />
  </symbol>
</svg>
