<svg
  xmlns="http://www.w3.org/2000/svg"
  xmlns:xlink="http://www.w3.org/1999/xlink"
>
  <symbol viewBox="0 0 16 16" id="size-16">
    <path
      fill-rule="evenodd"
      clip-rule="evenodd"
      d="M12.5303 10.5303C12.8232 10.2374 12.8232 9.76256 12.5303 9.46967L8.53033 5.46967C8.23744 5.17678 7.76256 5.17678 7.46967 5.46967L3.46967 9.46967C3.17678 9.76256 3.17678 10.2374 3.46967 10.5303C3.76256 10.8232 4.23744 10.8232 4.53033 10.5303L8 7.06066L11.4697 10.5303C11.7626 10.8232 12.2374 10.8232 12.5303 10.5303Z"
      fill="currentColor"
    />
  </symbol>

  <symbol viewBox="0 0 24 24" id="size-24">
    <path
      fill-rule="evenodd"
      clip-rule="evenodd"
      d="M18.7071 15.7071C19.0976 15.3166 19.0976 14.6834 18.7071 14.2929L12.7071 8.29289C12.3166 7.90237 11.6834 7.90237 11.2929 8.29289L5.29289 14.2929C4.90237 14.6834 4.90237 15.3166 5.29289 15.7071C5.68342 16.0976 6.31658 16.0976 6.70711 15.7071L12 10.4142L17.2929 15.7071C17.6834 16.0976 18.3166 16.0976 18.7071 15.7071Z"
      fill="currentColor"
    />
  </symbol>

  <symbol viewBox="0 0 32 32" id="size-32">
    <path
      fill-rule="evenodd"
      clip-rule="evenodd"
      d="M24.7071 20.7071C25.0976 20.3166 25.0976 19.6834 24.7071 19.2929L16.7071 11.2929C16.3166 10.9024 15.6834 10.9024 15.2929 11.2929L7.29289 19.2929C6.90237 19.6834 6.90237 20.3166 7.29289 20.7071C7.68342 21.0976 8.31658 21.0976 8.70711 20.7071L16 13.4142L23.2929 20.7071C23.6834 21.0976 24.3166 21.0976 24.7071 20.7071Z"
      fill="currentColor"
    />
  </symbol>
</svg>
