<svg
  xmlns="http://www.w3.org/2000/svg"
  xmlns:xlink="http://www.w3.org/1999/xlink"
>
  <symbol viewBox="0 0 16 16" id="size-16">
    <path
      fill-rule="evenodd"
      clip-rule="evenodd"
      d="M6.13569 3.46967C6.42858 3.17678 6.90345 3.17678 7.19635 3.46967L11.1963 7.46967C11.4892 7.76256 11.4892 8.23744 11.1963 8.53033L7.19635 12.5303C6.90345 12.8232 6.42858 12.8232 6.13569 12.5303C5.84279 12.2374 5.84279 11.7626 6.13569 11.4697L9.60536 8L6.13569 4.53033C5.84279 4.23744 5.84279 3.76256 6.13569 3.46967Z"
      fill="currentColor"
    />
  </symbol>

  <symbol viewBox="0 0 24 24" id="size-24">
    <path
      fill-rule="evenodd"
      clip-rule="evenodd"
      d="M9.29289 5.29289C9.68342 4.90237 10.3166 4.90237 10.7071 5.29289L16.7071 11.2929C17.0976 11.6834 17.0976 12.3166 16.7071 12.7071L10.7071 18.7071C10.3166 19.0976 9.68342 19.0976 9.29289 18.7071C8.90237 18.3166 8.90237 17.6834 9.29289 17.2929L14.5858 12L9.29289 6.70711C8.90237 6.31658 8.90237 5.68342 9.29289 5.29289Z"
      fill="currentColor"
    />
  </symbol>

  <symbol viewBox="0 0 32 32" id="size-32">
    <path
      fill-rule="evenodd"
      clip-rule="evenodd"
      d="M12.2929 7.29289C12.6834 6.90237 13.3166 6.90237 13.7071 7.29289L21.7071 15.2929C22.0976 15.6834 22.0976 16.3166 21.7071 16.7071L13.7071 24.7071C13.3166 25.0976 12.6834 25.0976 12.2929 24.7071C11.9024 24.3166 11.9024 23.6834 12.2929 23.2929L19.5858 16L12.2929 8.70711C11.9024 8.31658 11.9024 7.68342 12.2929 7.29289Z"
      fill="currentColor"
    />
  </symbol>
</svg>
