<svg
  xmlns="http://www.w3.org/2000/svg"
  xmlns:xlink="http://www.w3.org/1999/xlink"
>
  <symbol viewBox="0 0 16 16" id="size-16">
    <path
      fill-rule="evenodd"
      clip-rule="evenodd"
      d="M7.12496 8.73825C7.1366 8.15625 6.62232 7.68006 5.98741 7.68006C5.35144 7.68006 4.84879 8.15625 4.84879 8.73825C4.84879 9.32026 5.36308 9.79644 5.98741 9.79644C6.62338 9.79644 7.12496 9.32026 7.12496 8.73825ZM11.1979 8.73825C11.1979 8.15625 10.6953 7.68006 10.0593 7.68006C9.42335 7.68006 8.92177 8.15625 8.92177 8.73825C8.92177 9.32026 9.43499 9.79644 10.0593 9.79644C10.6953 9.79644 11.1979 9.32026 11.1979 8.73825ZM11.1154 12.6673C13.5199 12.5896 14.4455 10.9784 14.4455 10.9784C14.4455 7.4007 12.8773 4.5002 12.8773 4.5002C11.3112 3.30127 9.81912 3.33407 9.81912 3.33407L9.66674 3.51185C11.5175 4.08962 12.3768 4.92348 12.3768 4.92348C11.3663 4.35416 10.2526 3.99157 9.10061 3.85682C8.36986 3.77428 7.63176 3.78139 6.90274 3.87798C6.84806 3.87798 6.80072 3.88607 6.74909 3.89489C6.73878 3.89665 6.7283 3.89844 6.71756 3.9002C6.33661 3.93407 5.41069 4.07798 4.24668 4.60073C3.84457 4.78909 3.60436 4.92348 3.60436 4.92348C3.60436 4.92348 4.50806 4.04518 6.46677 3.4674L6.35777 3.33407C6.35777 3.33407 4.86678 3.30127 3.2996 4.50126C3.2996 4.50126 1.73242 7.4007 1.73242 10.9784C1.73242 10.9784 2.6467 12.589 5.05197 12.6673C5.05197 12.6673 5.45408 12.1679 5.78212 11.7456C4.39906 11.3224 3.87737 10.4335 3.87737 10.4335C3.87737 10.4335 3.98531 10.5118 4.18108 10.6229C4.18189 10.6237 4.1827 10.6245 4.18351 10.6253C4.19335 10.6352 4.20394 10.6459 4.22446 10.6557C4.24158 10.6678 4.25869 10.6765 4.27581 10.6852C4.2915 10.6932 4.30718 10.7012 4.32287 10.7118C4.59483 10.8673 4.86678 10.989 5.11652 11.0896C5.56307 11.2673 6.0964 11.4451 6.71756 11.5679C7.64805 11.7502 8.60475 11.7538 9.53658 11.5784C10.0793 11.4816 10.6089 11.3214 11.1143 11.1012C11.4953 10.9562 11.9196 10.7446 12.3662 10.4451C12.3662 10.4451 11.8223 11.3562 10.3958 11.7679C10.7212 12.188 11.1116 12.6627 11.1154 12.6673Z"
      fill="currentColor"
    />
  </symbol>

  <symbol viewBox="0 0 24 24" id="size-24">
    <path
      fill-rule="evenodd"
      clip-rule="evenodd"
      d="M10.6894 13.1064C10.7069 12.2334 9.93544 11.5191 8.98307 11.5191C8.02911 11.5191 7.27514 12.2334 7.27514 13.1064C7.27514 13.9794 8.04657 14.6937 8.98307 14.6937C9.93702 14.6937 10.6894 13.9794 10.6894 13.1064ZM16.7989 13.1064C16.7989 12.2334 16.0449 11.5191 15.0909 11.5191C14.137 11.5191 13.3846 12.2334 13.3846 13.1064C13.3846 13.9794 14.1544 14.6937 15.0909 14.6937C16.0449 14.6937 16.7989 13.9794 16.7989 13.1064ZM16.675 18.9999C20.2818 18.8834 21.6702 16.4667 21.6702 16.4667C21.6702 11.1001 19.3179 6.74932 19.3179 6.74932C16.9687 4.95093 14.7306 5.00013 14.7306 5.00013L14.5021 5.2668C17.2782 6.13345 18.5671 7.38424 18.5671 7.38424C17.0514 6.53026 15.3808 5.98637 13.6529 5.78425C12.5567 5.66045 11.4496 5.67111 10.3561 5.816C10.274 5.816 10.203 5.82813 10.1256 5.84136C10.1101 5.844 10.0944 5.84669 10.0783 5.84933C9.50687 5.90012 8.11799 6.11599 6.37198 6.90011C5.76881 7.18265 5.4085 7.38424 5.4085 7.38424C5.4085 7.38424 6.76404 6.06679 9.70211 5.20013L9.53862 5.00013C9.53862 5.00013 7.30213 4.95093 4.95136 6.75091C4.95136 6.75091 2.60059 11.1001 2.60059 16.4667C2.60059 16.4667 3.972 18.8825 7.5799 19C7.5799 19 8.18307 18.2508 8.67513 17.6175C6.60055 16.9826 5.81802 15.6492 5.81802 15.6492C5.81802 15.6492 5.97992 15.7667 6.27357 15.9334C6.27478 15.9346 6.27599 15.9358 6.27722 15.937C6.29197 15.9519 6.30786 15.9679 6.33865 15.9826C6.36432 16.0008 6.38999 16.0138 6.41566 16.0269C6.4392 16.0388 6.46273 16.0508 6.48626 16.0667C6.8942 16.3 7.30213 16.4826 7.67673 16.6334C8.34656 16.9 9.14656 17.1667 10.0783 17.3508C11.474 17.6244 12.9091 17.6298 14.3068 17.3667C15.121 17.2214 15.9153 16.9811 16.6735 16.6508C17.2449 16.4334 17.8814 16.1159 18.5512 15.6667C18.5512 15.6667 17.7354 17.0334 15.5957 17.6508C16.0838 18.281 16.6693 18.993 16.675 18.9999Z"
      fill="currentColor"
    />
  </symbol>

  <symbol viewBox="0 0 32 32" id="size-32">
    <path
      fill-rule="evenodd"
      clip-rule="evenodd"
      d="M14.2509 17.4746C14.2742 16.3105 13.2456 15.3582 11.9758 15.3582C10.7038 15.3582 9.69857 16.3105 9.69857 17.4746C9.69857 18.6386 10.7271 19.5909 11.9758 19.5909C13.2477 19.5909 14.2509 18.6386 14.2509 17.4746ZM22.3969 17.4746C22.3969 16.3105 21.3916 15.3582 20.1196 15.3582C18.8477 15.3582 17.8445 16.3105 17.8445 17.4746C17.8445 18.6386 18.871 19.5909 20.1196 19.5909C21.3916 19.5909 22.3969 18.6386 22.3969 17.4746ZM22.2317 25.3326C27.0407 25.1773 28.892 21.9549 28.892 21.9549C28.892 14.7994 25.7556 8.99844 25.7556 8.99844C22.6233 6.60058 19.6392 6.66619 19.6392 6.66619L19.3345 7.02174C23.036 8.17729 24.7545 9.845 24.7545 9.845C22.7335 8.70636 20.5062 7.98118 18.2022 7.71168C16.7407 7.54662 15.2645 7.56083 13.8065 7.75401C13.6971 7.75401 13.6024 7.77019 13.4992 7.78783C13.4785 7.79135 13.4576 7.79493 13.4361 7.79846C12.6742 7.86618 10.8224 8.15401 8.49434 9.1995C7.69012 9.57622 7.2097 9.845 7.2097 9.845C7.2097 9.845 9.01709 8.0884 12.9345 6.93286L12.7165 6.66619C12.7165 6.66619 9.73454 6.60058 6.60018 9.00056C6.60018 9.00056 3.46582 14.7994 3.46582 21.9549C3.46582 21.9549 5.29438 25.1761 10.1049 25.3327C10.1049 25.3327 10.9091 24.3337 11.5652 23.4893C8.7991 22.6428 7.75573 20.865 7.75573 20.865C7.75573 20.865 7.9716 21.0216 8.36313 21.2438C8.36475 21.2454 8.36637 21.2471 8.36799 21.2487C8.38767 21.2685 8.40885 21.2899 8.4499 21.3094C8.48413 21.3337 8.51836 21.3511 8.55259 21.3685C8.58397 21.3844 8.61535 21.4004 8.64672 21.4216C9.19063 21.7327 9.73454 21.9761 10.234 22.1772C11.1271 22.5327 12.1938 22.8883 13.4361 23.1338C15.2971 23.4985 17.2105 23.5057 19.0741 23.1549C20.1597 22.9612 21.2187 22.6408 22.2297 22.2004C22.9916 21.9105 23.8402 21.4872 24.7333 20.8883C24.7333 20.8883 23.6455 22.7105 20.7926 23.5338C21.4434 24.3741 22.2241 25.3234 22.2317 25.3326Z"
      fill="currentColor"
    />
  </symbol>
</svg>
