<svg
  xmlns="http://www.w3.org/2000/svg"
  xmlns:xlink="http://www.w3.org/1999/xlink"
>
  <symbol viewBox="0 0 16 16" id="size-16">
    <path
      d="M11.75 1.3335H4.24996C3.65382 1.33521 3.08255 1.56667 2.66091 1.97747C2.23943 2.38816 2.00174 2.94482 2 3.52582V12.4745C2.00176 13.0555 2.23943 13.6121 2.66091 14.0228C3.08252 14.4337 3.65382 14.6651 4.24996 14.6668H11.75C12.3462 14.6651 12.9174 14.4336 13.3391 14.0228C13.7606 13.6122 13.9983 13.0555 14 12.4745V3.52582C13.9982 2.94482 13.7606 2.38819 13.3391 1.97747C12.9175 1.56667 12.3462 1.33519 11.75 1.3335ZM5.75004 10.1925H10.25C10.5148 10.1971 10.7573 10.3373 10.8884 10.5616C11.0194 10.7858 11.0194 11.0607 10.8884 11.285C10.7573 11.5091 10.5147 11.6494 10.25 11.6541H5.75004C5.48211 11.6541 5.23451 11.5147 5.10054 11.2886C4.96657 11.0626 4.96657 10.784 5.10054 10.5579C5.23451 10.3318 5.4821 10.1925 5.75004 10.1925ZM5.75004 7.26943H10.25C10.5148 7.27396 10.7573 7.41428 10.8884 7.63852C11.0194 7.86265 11.0194 8.13768 10.8884 8.3618C10.7573 8.58605 10.5147 8.72638 10.25 8.73089H5.75004C5.48524 8.72637 5.24267 8.58605 5.1116 8.3618C4.98064 8.13768 4.98064 7.86264 5.1116 7.63852C5.24268 7.41427 5.48525 7.27394 5.75004 7.26943ZM10.25 5.80784H5.75004C5.48524 5.80319 5.24267 5.66299 5.1116 5.43875C4.98064 5.2145 4.98064 4.93959 5.1116 4.71534C5.24268 4.49122 5.48525 4.35089 5.75004 4.34625H10.25C10.5148 4.3509 10.7573 4.49122 10.8884 4.71534C11.0194 4.93959 11.0194 5.2145 10.8884 5.43875C10.7573 5.663 10.5147 5.80321 10.25 5.80784Z"
      fill="currentColor"
    />
  </symbol>

  <symbol viewBox="0 0 24 24" id="size-24">
    <path
      d="M17.6251 2H6.37494C5.48073 2.00257 4.62383 2.34977 3.99136 2.96597C3.35914 3.582 3.0026 4.41699 3 5.28848V18.7115C3.00264 19.583 3.35915 20.418 3.99136 21.034C4.62378 21.6502 5.48073 21.9975 6.37494 22H17.6251C18.5193 21.9974 19.3762 21.6502 20.0086 21.034C20.6409 20.418 20.9974 19.583 21 18.7115V5.28848C20.9974 4.41699 20.6408 3.58204 20.0086 2.96597C19.3762 2.34975 18.5193 2.00254 17.6251 2ZM8.62506 15.2885H15.3749C15.7721 15.2955 16.136 15.5058 16.3326 15.8421C16.529 16.1785 16.529 16.5909 16.3326 16.9272C16.136 17.2634 15.7721 17.4739 15.3749 17.4809H8.62506C8.22316 17.4809 7.85177 17.2719 7.65081 16.9327C7.44986 16.5936 7.44986 16.1758 7.65081 15.8366C7.85177 15.4975 8.22315 15.2885 8.62506 15.2885ZM8.62506 10.9039H15.3749C15.7721 10.9107 16.136 11.1212 16.3326 11.4575C16.529 11.7937 16.529 12.2063 16.3326 12.5425C16.136 12.8788 15.7721 13.0893 15.3749 13.0961H8.62506C8.22786 13.0893 7.86401 12.8788 7.6674 12.5425C7.47097 12.2063 7.47097 11.7937 7.6674 11.4575C7.86402 11.1212 8.22788 10.9107 8.62506 10.9039ZM15.3749 8.71152H8.62506C8.22786 8.70454 7.86401 8.49424 7.6674 8.15788C7.47097 7.8215 7.47097 7.40914 7.6674 7.07277C7.86402 6.73659 8.22788 6.52609 8.62506 6.51913H15.3749C15.7721 6.52611 16.136 6.73659 16.3326 7.07277C16.529 7.40915 16.529 7.82151 16.3326 8.15788C16.136 8.49425 15.7721 8.70456 15.3749 8.71152Z"
      fill="currentColor"
    />
  </symbol>

  <symbol viewBox="0 0 32 32" id="size-32">
    <path
      d="M23.5001 2.6665H8.49992C7.30763 2.66993 6.1651 3.13286 5.32182 3.95446C4.47886 4.77583 4.00347 5.88915 4 7.05115V24.9485C4.00352 26.1105 4.47887 27.2238 5.32182 28.0452C6.16504 28.8668 7.30763 29.3298 8.49992 29.3332H23.5001C24.6924 29.3297 25.8349 28.8668 26.6782 28.0452C27.5211 27.2238 27.9965 26.1105 28 24.9485V7.05115C27.9965 5.88915 27.5211 4.77589 26.6782 3.95446C25.835 3.13284 24.6924 2.66989 23.5001 2.6665ZM11.5001 20.3845H20.4999C21.0295 20.3938 21.5147 20.6742 21.7768 21.1227C22.0387 21.5712 22.0387 22.121 21.7768 22.5695C21.5146 23.0177 21.0295 23.2984 20.4999 23.3077H11.5001C10.9642 23.3077 10.469 23.029 10.2011 22.5768C9.93314 22.1246 9.93314 21.5675 10.2011 21.1153C10.469 20.6632 10.9642 20.3845 11.5001 20.3845ZM11.5001 14.5384H20.4999C21.0295 14.5474 21.5147 14.8281 21.7768 15.2766C22.0387 15.7248 22.0387 16.2749 21.7768 16.7231C21.5146 17.1716 21.0295 17.4523 20.4999 17.4613H11.5001C10.9705 17.4522 10.4853 17.1716 10.2232 16.7231C9.96129 16.2749 9.96129 15.7248 10.2232 15.2766C10.4854 14.8281 10.9705 14.5474 11.5001 14.5384ZM20.4999 11.6152H11.5001C10.9705 11.6059 10.4853 11.3255 10.2232 10.877C9.96129 10.4285 9.96129 9.87869 10.2232 9.4302C10.4854 8.98195 10.9705 8.70128 11.5001 8.69201H20.4999C21.0295 8.70131 21.5147 8.98196 21.7768 9.4302C22.0387 9.8787 22.0387 10.4285 21.7768 10.877C21.5146 11.3255 21.0295 11.6059 20.4999 11.6152Z"
      fill="currentColor"
    />
  </symbol>
</svg>
