<svg
  xmlns="http://www.w3.org/2000/svg"
  xmlns:xlink="http://www.w3.org/1999/xlink"
>
  <symbol viewBox="0 0 16 16" id="size-16">
    <path
      fill-rule="evenodd"
      clip-rule="evenodd"
      d="M13.9987 7.31616H14.0007C14.368 7.31616 14.6667 7.6135 14.6673 7.98083C14.6727 9.7615 13.984 11.4382 12.728 12.7008C11.4727 13.9635 9.80068 14.6615 8.02002 14.6668H8.00068C6.22668 14.6668 4.55802 13.9788 3.30002 12.7275C2.03735 11.4722 1.33935 9.80016 1.33402 8.0195C1.32868 6.23816 2.01735 4.56216 3.27335 3.2995C4.52868 2.03683 6.20068 1.33883 7.98135 1.3335C8.51135 1.3415 9.05135 1.39483 9.56868 1.51883C9.92601 1.6055 10.1467 1.9655 10.06 2.3235C9.97402 2.68083 9.61202 2.90083 9.25602 2.8155C8.84202 2.7155 8.40268 2.6735 7.98535 2.66683C6.56068 2.67083 5.22268 3.2295 4.21868 4.2395C3.21402 5.2495 2.66335 6.59083 2.66735 8.0155C2.67135 9.44016 3.23002 10.7775 4.24002 11.7822C5.24668 12.7828 6.58135 13.3335 8.00068 13.3335H8.01602C9.44068 13.3295 10.7787 12.7708 11.7827 11.7608C12.7873 10.7502 13.338 9.4095 13.334 7.98483C13.3333 7.61683 13.6307 7.31683 13.9987 7.31616ZM5.52948 7.52825C5.79015 7.26759 6.21148 7.26759 6.47215 7.52825L7.96815 9.02425L12.1662 4.22692C12.4088 3.95159 12.8295 3.92225 13.1068 4.16492C13.3835 4.40692 13.4115 4.82825 13.1688 5.10559L8.50215 10.4389C8.38082 10.5776 8.20748 10.6596 8.02282 10.6663H8.00082C7.82415 10.6663 7.65482 10.5963 7.52948 10.4709L5.52948 8.47092C5.26882 8.21025 5.26882 7.78892 5.52948 7.52825Z"
      fill="currentColor"
    />
  </symbol>

  <symbol viewBox="0 0 24 24" id="size-24">
    <path
      fill-rule="evenodd"
      clip-rule="evenodd"
      d="M20.997 10.974H21C21.551 10.974 21.999 11.42 22 11.971C22.008 14.642 20.975 17.157 19.091 19.051C17.208 20.945 14.7 21.992 12.029 22H12C9.33905 22 6.83605 20.968 4.94905 19.091C3.05505 17.208 2.00805 14.7 2.00005 12.029C1.99205 9.357 3.02505 6.843 4.90905 4.949C6.79205 3.055 9.30005 2.008 11.971 2C12.766 2.012 13.576 2.092 14.352 2.278C14.888 2.408 15.219 2.948 15.089 3.485C14.96 4.021 14.417 4.351 13.883 4.223C13.262 4.073 12.603 4.01 11.977 4C9.84005 4.006 7.83305 4.844 6.32705 6.359C4.82005 7.874 3.99405 9.886 4.00005 12.023C4.00605 14.16 4.84405 16.166 6.35905 17.673C7.86905 19.174 9.87105 20 12 20H12.023C14.16 19.994 16.167 19.156 17.673 17.641C19.18 16.125 20.006 14.114 20 11.977C19.999 11.425 20.445 10.975 20.997 10.974ZM8.29325 11.2921C8.68425 10.9011 9.31625 10.9011 9.70725 11.2921L11.9513 13.5361L18.2482 6.34014C18.6122 5.92714 19.2432 5.88314 19.6593 6.24714C20.0743 6.61014 20.1162 7.24214 19.7523 7.65814L12.7523 15.6581C12.5703 15.8661 12.3103 15.9891 12.0332 15.9991H12.0002C11.7352 15.9991 11.4812 15.8941 11.2933 15.7061L8.29325 12.7061C7.90225 12.3151 7.90225 11.6831 8.29325 11.2921Z"
      fill="currentColor"
    />
  </symbol>

  <symbol viewBox="0 0 32 32" id="size-32">
    <path
      fill-rule="evenodd"
      clip-rule="evenodd"
      d="M27.9954 14.6323H27.9994C28.7341 14.6323 29.3314 15.227 29.3327 15.9617C29.3434 19.523 27.9661 22.8763 25.4541 25.4017C22.9434 27.927 19.5994 29.323 16.0381 29.3337H15.9994C12.4514 29.3337 9.11408 27.9577 6.59808 25.455C4.07274 22.9443 2.67674 19.6003 2.66608 16.039C2.65541 12.4763 4.03274 9.12433 6.54474 6.59899C9.05541 4.07366 12.3994 2.67766 15.9607 2.66699C17.0207 2.68299 18.1007 2.78966 19.1354 3.03766C19.8501 3.21099 20.2914 3.93099 20.1181 4.64699C19.9461 5.36166 19.2221 5.80166 18.5101 5.63099C17.6821 5.43099 16.8034 5.34699 15.9687 5.33366C13.1194 5.34166 10.4434 6.45899 8.43541 8.47899C6.42608 10.499 5.32474 13.1817 5.33274 16.031C5.34074 18.8803 6.45808 21.555 8.47808 23.5643C10.4914 25.5657 13.1607 26.667 15.9994 26.667H16.0301C18.8794 26.659 21.5554 25.5417 23.5634 23.5217C25.5727 21.5003 26.6741 18.819 26.6661 15.9697C26.6647 15.2337 27.2594 14.6337 27.9954 14.6323ZM11.057 15.0565C11.5783 14.5352 12.421 14.5352 12.9423 15.0565L15.9343 18.0485L24.3303 8.45384C24.8157 7.90317 25.657 7.84451 26.2117 8.32984C26.765 8.81384 26.821 9.65651 26.3357 10.2112L17.0023 20.8778C16.7597 21.1552 16.413 21.3192 16.0437 21.3325H15.9997C15.6463 21.3325 15.3077 21.1925 15.057 20.9418L11.057 16.9418C10.5357 16.4205 10.5357 15.5778 11.057 15.0565Z"
      fill="currentColor"
    />
  </symbol>
</svg>
