<svg
  xmlns="http://www.w3.org/2000/svg"
  xmlns:xlink="http://www.w3.org/1999/xlink"
>
  <symbol viewBox="0 0 16 16" id="size-16">
    <path
      fill-rule="evenodd"
      clip-rule="evenodd"
      d="M1.51977 16H14.2528C14.6228 16 14.923 15.6998 14.923 15.3298C14.923 14.9599 14.6228 14.6597 14.2528 14.6597H1.51977C1.14983 14.6597 0.849609 14.9599 0.849609 15.3298C0.849609 15.6998 1.14983 16 1.51977 16ZM14.56 4.49008C14.9366 4.11281 15.1483 3.60152 15.1483 3.06869C15.1483 2.53524 14.9366 2.02396 14.56 1.64653C14.2214 1.30816 13.8401 0.927464 13.5018 0.589091C13.1251 0.211824 12.613 0 12.0804 0C11.5469 0 11.0356 0.211817 10.6582 0.589091L2.56955 8.67813C2.26184 8.98568 2.06291 9.38432 2.00125 9.81529L1.69833 11.9344C1.63865 12.3519 1.77941 12.7727 2.07754 13.0715C2.37582 13.3698 2.79737 13.5098 3.21486 13.4503L5.33395 13.148C5.76415 13.0864 6.16357 12.8867 6.47112 12.5791L14.56 4.49008ZM9.76237 3.38029L11.7681 5.38614L5.52293 11.6313C5.42046 11.7337 5.28778 11.8002 5.14432 11.821L3.02523 12.1231L3.32815 10.0048C3.3482 9.86075 3.41521 9.72806 3.51783 9.62545L9.76237 3.38029ZM12.7157 4.4385L10.7099 2.43265L11.6065 1.53674C11.7319 1.41063 11.9028 1.34033 12.0804 1.34033C12.258 1.34033 12.4282 1.41063 12.5541 1.53674C12.8927 1.87511 13.274 2.2558 13.6123 2.59417C13.7377 2.72013 13.808 2.89036 13.808 3.06869C13.808 3.24625 13.7377 3.41648 13.6123 3.54243L12.7157 4.4385Z"
      fill="currentColor"
    />
  </symbol>

  <symbol viewBox="0 0 24 24" id="size-24">
    <path
      fill-rule="evenodd"
      clip-rule="evenodd"
      d="M2.28063 24H21.3802C21.9351 24 22.3855 23.5497 22.3855 22.9948C22.3855 22.4399 21.9351 21.9895 21.3802 21.9895H2.28063C1.72573 21.9895 1.27539 22.4399 1.27539 22.9948C1.27539 23.5497 1.72573 24 2.28063 24ZM21.8409 6.73512C22.4059 6.16922 22.7234 5.40228 22.7234 4.60303C22.7234 3.80286 22.4059 3.03594 21.8409 2.46979C21.3331 1.96224 20.7612 1.3912 20.2536 0.883636C19.6886 0.317737 18.9205 0 18.1215 0C17.3213 0 16.5544 0.317725 15.9883 0.883636L3.8553 13.0172C3.39374 13.4785 3.09534 14.0765 3.00286 14.7229L2.54847 17.9016C2.45894 18.5278 2.67009 19.159 3.11729 19.6073C3.56471 20.0547 4.19703 20.2648 4.82327 20.1755L8.0019 19.722C8.64721 19.6295 9.24633 19.33 9.70765 18.8687L21.8409 6.73512ZM14.6445 5.07044L17.6531 8.07921L8.28537 17.4469C8.13167 17.6006 7.93264 17.7002 7.71745 17.7314L4.53882 18.1847L4.9932 15.0072C5.02327 14.7911 5.12379 14.5921 5.27772 14.4382L14.6445 5.07044ZM19.0745 6.65774L16.0658 3.64897L17.4107 2.30511C17.5988 2.11595 17.8552 2.01049 18.1216 2.01049C18.3879 2.01049 18.6433 2.11595 18.8322 2.30511C19.34 2.81266 19.9119 3.3837 20.4195 3.89126C20.6075 4.0802 20.713 4.33554 20.713 4.60303C20.713 4.86937 20.6075 5.12472 20.4195 5.31365L19.0745 6.65774Z"
      fill="currentColor"
    />
  </symbol>

  <symbol viewBox="0 0 32 32" id="size-32">
    <path
      fill-rule="evenodd"
      clip-rule="evenodd"
      d="M3.04149 32H28.5076C29.2475 32 29.8479 31.3996 29.8479 30.6597C29.8479 29.9198 29.2475 29.3194 28.5076 29.3194H3.04149C2.30162 29.3194 1.70117 29.9198 1.70117 30.6597C1.70117 31.3996 2.30162 32 3.04149 32ZM29.1219 8.98016C29.8752 8.22563 30.2985 7.20304 30.2985 6.13737C30.2985 5.07048 29.8752 4.04793 29.1219 3.29306C28.4448 2.61632 27.6822 1.85493 27.0055 1.17818C26.2521 0.423649 25.228 0 24.1627 0C23.0958 0 22.0732 0.423633 21.3184 1.17818L5.14105 17.3563C4.52564 17.9714 4.12777 18.7686 4.00446 19.6306L3.39862 23.8688C3.27924 24.7037 3.56077 25.5454 4.15703 26.1431C4.7536 26.7397 5.59669 27.0197 6.43167 26.9006L10.6698 26.296C11.5303 26.1727 12.3291 25.7733 12.9442 25.1582L29.1219 8.98016ZM19.5267 6.76059L23.5381 10.7723L11.0478 23.2626C10.8429 23.4675 10.5775 23.6003 10.2906 23.6419L6.05242 24.2463L6.65826 20.0096C6.69835 19.7215 6.83238 19.4561 7.03761 19.2509L19.5267 6.76059ZM25.4334 8.87699L21.4217 4.86529L23.2149 3.07347C23.4657 2.82126 23.8076 2.68065 24.1627 2.68065C24.5179 2.68065 24.8583 2.82126 25.1102 3.07347C25.7873 3.75021 26.5499 4.5116 27.2266 5.18835C27.4774 5.44026 27.618 5.78072 27.618 6.13737C27.618 6.4925 27.4774 6.83296 27.2266 7.08487L25.4334 8.87699Z"
      fill="currentColor"
    />
  </symbol>
</svg>
