<svg
  xmlns="http://www.w3.org/2000/svg"
  xmlns:xlink="http://www.w3.org/1999/xlink"
>
  <symbol viewBox="0 0 32 32" id="size-32">
    <path
      fill-rule="evenodd"
      clip-rule="evenodd"
      d="M8.86951 15.0716C8.81092 15.2111 8.78074 15.3608 8.78072 15.5119L8.78095 22.6846C8.78074 22.9195 8.69326 23.1461 8.53515 23.3213C8.37706 23.4965 8.1594 23.608 7.92365 23.6345C7.38209 23.6974 6.92659 23.7426 6.56075 23.7744C6.23325 23.8034 5.90422 23.7392 5.61229 23.5894C5.32037 23.4396 5.07765 23.2105 4.91268 22.9289C3.96565 21.2964 3.37324 19.4861 3.17335 17.6139C2.97347 15.7416 3.17051 13.8487 3.75187 12.0562C4.33324 10.2637 5.28612 8.61112 6.54954 7.20421C7.81296 5.79729 9.35909 4.66702 11.089 3.88572C12.8189 3.10443 14.6945 2.68933 16.5957 2.66697C18.4969 2.64461 20.3819 3.0155 22.1301 3.75589C23.8782 4.49628 25.451 5.58989 26.7479 6.96669C28.0447 8.34351 29.0368 9.97323 29.6611 11.7515C29.7656 12.0526 29.7932 12.3745 29.7415 12.6887C29.6899 13.0028 29.5604 13.2995 29.3647 13.5521C28.0162 15.2923 26.3169 16.7394 24.64 17.9428V9.7748C24.64 9.47005 24.5178 9.17779 24.3002 8.96232C24.0825 8.74682 23.7874 8.62578 23.4796 8.62578H21.5455C21.2377 8.62585 20.9426 8.74691 20.7251 8.96239C20.5075 9.17786 20.3853 9.4701 20.3853 9.7748V19.6937C20.3851 19.882 20.3289 20.0662 20.2237 20.2232C20.1186 20.3801 19.969 20.503 19.7938 20.5763C19.3221 20.7735 18.8379 20.9675 18.8379 20.9675V12.6473C18.8379 12.3426 18.7156 12.0503 18.498 11.8348C18.2804 11.6193 17.9852 11.4982 17.6774 11.4981H15.7433C15.4355 11.4982 15.1404 11.6193 14.9227 11.8348C14.7051 12.0503 14.5829 12.3426 14.5829 12.6473V21.6121C14.5829 21.8279 14.5093 22.0373 14.374 22.2064C14.2387 22.3755 14.0496 22.4944 13.8375 22.5437C13.5321 22.6149 13.253 22.683 13.0357 22.7469V15.5199C13.0357 15.2152 12.9134 14.9229 12.6958 14.7074C12.4782 14.4919 12.183 14.3709 11.8753 14.3709L9.94497 14.3646C9.79235 14.3639 9.64109 14.3931 9.49988 14.4504C9.35867 14.5078 9.23031 14.5922 9.12211 14.6988C9.01393 14.8054 8.92809 14.9321 8.86951 15.0716ZM15.0917 29.2926C12.6061 29.0959 10.2233 28.2153 8.20703 26.7483L8.20745 26.7472C15.5813 25.6988 24.6988 22.2554 29.6368 14.89C29.6575 15.196 29.672 15.5039 29.672 15.815C29.6726 18.3087 28.9835 20.7539 27.6809 22.8802C26.3781 25.0064 24.5127 26.7308 22.2908 27.8625C20.069 28.9943 17.5774 29.4891 15.0917 29.2926Z"
      fill="currentColor"
    />
  </symbol>

  <symbol viewBox="0 0 24 24" id="size-24">
    <path
      fill-rule="evenodd"
      clip-rule="evenodd"
      d="M6.65311 11.3042C6.60917 11.4088 6.58653 11.5211 6.58652 11.6344L6.58669 17.0139C6.58653 17.1901 6.52092 17.3601 6.40234 17.4915C6.28377 17.6229 6.12053 17.7065 5.94372 17.7263C5.53754 17.7736 5.19592 17.8074 4.92154 17.8313C4.67592 17.853 4.42914 17.8049 4.2102 17.6926C3.99125 17.5802 3.80922 17.4084 3.68548 17.1972C2.97521 15.9728 2.5309 14.615 2.38099 13.2109C2.23108 11.8067 2.37886 10.387 2.81488 9.04265C3.25091 7.69827 3.96557 6.45882 4.91313 5.40365C5.8607 4.34845 7.0203 3.50075 8.31773 2.91478C9.61514 2.32881 11.0218 2.01748 12.4477 2.00072C13.8737 1.98395 15.2874 2.26211 16.5985 2.81741C17.9097 3.3727 19.0893 4.19291 20.0619 5.2255C21.0345 6.25812 21.7786 7.48041 22.2468 8.81414C22.3252 9.03991 22.3459 9.28139 22.3071 9.517C22.2684 9.75262 22.1713 9.97509 22.0245 10.1645C21.0131 11.4697 19.7386 12.5551 18.481 13.4576V7.33159C18.481 7.10303 18.3893 6.88383 18.2261 6.72223C18.0629 6.5606 17.8415 6.46982 17.6107 6.46982H16.1601C15.9293 6.46987 15.708 6.56067 15.5448 6.72228C15.3816 6.88388 15.2899 7.10306 15.2899 7.33159V14.7707C15.2898 14.912 15.2477 15.0501 15.1688 15.1679C15.0899 15.2856 14.9778 15.3777 14.8463 15.4327C14.4926 15.5806 14.1294 15.7261 14.1294 15.7261V9.486C14.1294 9.25742 14.0377 9.03821 13.8745 8.87657C13.7113 8.71493 13.4899 8.62412 13.2591 8.62407H11.8085C11.5776 8.62412 11.3562 8.71493 11.193 8.87657C11.0298 9.03821 10.9381 9.25742 10.9381 9.486V16.2096C10.9382 16.3714 10.883 16.5285 10.7815 16.6553C10.68 16.7821 10.5382 16.8713 10.3791 16.9083C10.1501 16.9617 9.94074 17.0128 9.77776 17.0606V11.6404C9.77776 11.4119 9.68606 11.1927 9.52283 11.031C9.35962 10.8694 9.13825 10.7786 8.90744 10.7786L7.45971 10.774C7.34524 10.7734 7.23179 10.7953 7.12589 10.8383C7.01998 10.8813 6.92371 10.9446 6.84256 11.0246C6.76142 11.1045 6.69704 11.1995 6.65311 11.3042ZM11.3198 21.9699C9.45553 21.8224 7.66845 21.1619 6.15625 20.0617L6.15657 20.0609C11.6869 19.2746 18.5251 16.692 22.2286 11.168C22.2441 11.3975 22.2549 11.6284 22.2549 11.8618C22.2554 13.732 21.7386 15.5659 20.7616 17.1606C19.7845 18.7553 18.3855 20.0486 16.7191 20.8974C15.0527 21.7462 13.184 22.1173 11.3198 21.9699Z"
      fill="currentColor"
    />
  </symbol>

  <symbol viewBox="0 0 16 16" id="size-16">
    <path
      fill-rule="evenodd"
      clip-rule="evenodd"
      d="M5.11249 7.53677C5.0832 7.60655 5.06811 7.68136 5.06809 7.75692L5.06821 11.3433C5.06811 11.4607 5.02437 11.574 4.94531 11.6616C4.86627 11.7492 4.75744 11.805 4.63956 11.8182C4.36878 11.8497 4.14103 11.8723 3.95811 11.8882C3.79436 11.9027 3.62985 11.8706 3.48388 11.7957C3.33792 11.7208 3.21656 11.6062 3.13407 11.4654C2.66056 10.6492 2.36435 9.74402 2.26441 8.8079C2.16447 7.87179 2.26299 6.92533 2.55367 6.02908C2.84435 5.13283 3.32079 4.30653 3.9525 3.60308C4.58421 2.89962 5.35728 2.33449 6.22224 1.94384C7.08718 1.55319 8.02496 1.34564 8.97558 1.33446C9.92619 1.32328 10.8687 1.50873 11.7428 1.87892C12.6169 2.24912 13.4033 2.79592 14.0517 3.48432C14.7001 4.17273 15.1962 4.98759 15.5083 5.87675C15.5605 6.02726 15.5743 6.18824 15.5485 6.34532C15.5227 6.5024 15.4579 6.65071 15.3601 6.777C14.6858 7.64711 13.8362 8.3707 12.9978 8.97236V4.88838C12.9978 4.736 12.9366 4.58987 12.8278 4.48214C12.719 4.37439 12.5714 4.31387 12.4175 4.31387H11.4505C11.2966 4.3139 11.1491 4.37443 11.0403 4.48217C10.9315 4.58991 10.8704 4.73603 10.8704 4.88838V9.8478C10.8703 9.94199 10.8422 10.0341 10.7896 10.1126C10.737 10.191 10.6623 10.2525 10.5746 10.2891C10.3388 10.3877 10.0967 10.4847 10.0967 10.4847V6.32465C10.0967 6.17227 10.0355 6.02612 9.92673 5.91837C9.81793 5.81061 9.67034 5.75006 9.51646 5.75003H8.54939C8.3955 5.75006 8.24791 5.81061 8.13911 5.91837C8.0303 6.02612 7.96918 6.17227 7.96918 6.32465V10.807C7.9692 10.9149 7.93239 11.0196 7.86474 11.1042C7.79708 11.1887 7.70255 11.2482 7.59649 11.2728C7.44379 11.3084 7.30424 11.3425 7.19559 11.3744V7.76092C7.19559 7.60855 7.13446 7.46242 7.02564 7.35468C6.91683 7.24695 6.76925 7.18641 6.61538 7.18641L5.65022 7.1833C5.57391 7.18294 5.49828 7.19752 5.42767 7.22619C5.35707 7.25486 5.29289 7.29706 5.23879 7.35036C5.1847 7.40366 5.14178 7.467 5.11249 7.53677ZM8.22359 14.6473C6.98077 14.5489 5.78938 14.1086 4.78125 13.3751L4.78146 13.3746C8.46838 12.8504 13.0271 11.1287 15.4962 7.44596C15.5065 7.59899 15.5137 7.75291 15.5137 7.9085C15.514 9.15533 15.1695 10.3779 14.5182 11.4411C13.8668 12.5042 12.9341 13.3664 11.8231 13.9322C10.7122 14.4981 9.46642 14.7455 8.22359 14.6473Z"
      fill="currentColor"
    />
  </symbol>
</svg>
