<svg
  xmlns="http://www.w3.org/2000/svg"
  xmlns:xlink="http://www.w3.org/1999/xlink"
>
  <symbol viewBox="0 0 16 16" id="size-16">
    <path
      d="M12.2024 8.54395C10.1078 8.54395 8.40508 10.2155 8.40508 12.2719C8.40508 14.3283 10.1077 15.9999 12.2024 15.9999C14.297 15.9999 15.9996 14.3283 15.9996 12.2719C15.9996 10.2155 14.297 8.54395 12.2024 8.54395ZM12.2024 15.018C10.6619 15.018 9.40515 13.7842 9.40515 12.2719C9.40515 10.7595 10.6619 9.5257 12.2024 9.5257C13.7428 9.5257 14.9996 10.7595 14.9996 12.2719C14.9996 13.7842 13.7564 15.018 12.2024 15.018Z"
      fill="currentColor"
    />
    <path
      d="M13.9728 11.9796H12.6891C12.5945 11.8204 12.4188 11.7143 12.2162 11.7143C11.9054 11.7143 11.6621 11.9663 11.6621 12.2582C11.6621 12.5633 11.9189 12.8021 12.2162 12.8021C12.4189 12.8021 12.5945 12.696 12.6891 12.5368H13.9728C14.135 12.5368 14.2701 12.4042 14.2701 12.245C14.2701 12.1123 14.135 11.9796 13.9728 11.9796Z"
      fill="currentColor"
    />
    <path
      d="M7.66211 13.3859C6.9459 13.3859 6.20269 12.6695 5.66216 11.4622C5.54054 11.1969 5.43244 10.9183 5.35137 10.5999H7.86483C8.02698 10.1886 8.2432 9.81715 8.51346 9.47218H5.06768C5.05416 9.35278 5.02714 9.23338 5.01362 9.10072C4.97308 8.84865 4.94606 8.58334 4.93254 8.318C4.91903 8.06594 4.90552 7.80062 4.90552 7.52201C4.90552 6.81886 4.95957 6.16882 5.06768 5.57183H10.2296C10.2431 5.67797 10.2701 5.79737 10.2836 5.90351C10.3241 6.16885 10.3512 6.44746 10.3647 6.7393C10.3782 6.99136 10.3917 7.25668 10.3917 7.52201C10.3917 7.69447 10.3917 7.86694 10.3782 8.02614C10.743 7.88021 11.1349 7.77407 11.5403 7.72102V7.52202C11.5403 7.17709 11.5268 6.84544 11.4998 6.51376C11.4728 6.19536 11.4322 5.87697 11.3917 5.57185H13.8376C14.0403 6.18211 14.1484 6.84544 14.1484 7.52202C14.1484 7.70776 14.1349 7.89349 14.1214 8.07922C14.5132 8.25169 14.8781 8.47722 15.2024 8.74255C15.27 8.34455 15.3105 7.93327 15.3105 7.50874C15.3105 6.52701 15.1213 5.59835 14.77 4.73601C14.7294 4.62988 14.6754 4.52374 14.6349 4.43089C13.4457 1.83064 10.7566 0 7.66205 0C4.55417 0 1.87841 1.83079 0.675659 4.44423C0.63512 4.55037 0.581067 4.6565 0.540527 4.74935C0.189185 5.61169 0 6.54033 0 7.52208C0 8.50384 0.189185 9.43248 0.540527 10.2948C0.581067 10.401 0.621606 10.5071 0.675659 10.5999C1.87835 13.2135 4.55387 15.0442 7.66205 15.0442C7.93232 15.0442 8.20258 15.0309 8.45931 15.0044C8.09447 14.5268 7.82421 13.9828 7.67555 13.3858L7.66211 13.3859ZM13.3512 4.44404H11.1756C11.1486 4.32464 11.108 4.20524 11.0675 4.08585C10.9864 3.80726 10.8783 3.52866 10.7702 3.26332C10.4594 2.5204 10.054 1.8836 9.59458 1.43253C11.2162 1.92341 12.5541 3.01124 13.3512 4.44404ZM7.66211 1.65805C8.3648 1.65805 9.10801 2.3612 9.64854 3.54191C9.77015 3.82051 9.87826 4.11236 9.98638 4.43076H5.33785C5.86484 2.71935 6.79727 1.65805 7.66211 1.65805ZM5.71621 1.43252C5.02706 2.12238 4.48653 3.17043 4.13516 4.44402H1.95952C2.77031 3.01123 4.10828 1.92337 5.71621 1.43252ZM1.1486 7.52181C1.1486 6.84523 1.25671 6.18187 1.45939 5.57164H3.89177C3.79717 6.19515 3.74312 6.84523 3.74312 7.52181C3.74312 7.85349 3.75663 8.17189 3.78366 8.49029C3.81069 8.82197 3.85123 9.15362 3.89177 9.47202H1.45939C1.2567 8.86175 1.1486 8.21167 1.1486 7.52181ZM1.9594 10.613H4.13503C4.16206 10.7191 4.18909 10.8385 4.22963 10.9314C4.32422 11.2365 4.41881 11.5151 4.54041 11.7937C4.8512 12.5367 5.25663 13.1602 5.71605 13.6245C4.10799 13.1337 2.77003 12.0325 1.9594 10.613Z"
      fill="currentColor"
    />
  </symbol>

  <symbol viewBox="0 0 24 24" id="size-24">
    <path
      d="M18.3035 12.8159C15.1617 12.8159 12.6076 15.3233 12.6076 18.4079C12.6076 21.4925 15.1616 23.9999 18.3035 23.9999C21.4455 23.9999 23.9995 21.4925 23.9995 18.4079C23.9995 15.3233 21.4455 12.8159 18.3035 12.8159ZM18.3035 22.5271C15.9928 22.5271 14.1077 20.6764 14.1077 18.4078C14.1077 16.1393 15.9928 14.2886 18.3035 14.2886C20.6142 14.2886 22.4994 16.1393 22.4994 18.4078C22.4994 20.6764 20.6345 22.5271 18.3035 22.5271Z"
      fill="currentColor"
    />
    <path
      d="M20.9593 17.9694H19.0337C18.8918 17.7306 18.6283 17.5714 18.3242 17.5714C17.8581 17.5714 17.4932 17.9495 17.4932 18.3873C17.4932 18.845 17.8783 19.2032 18.3242 19.2032C18.6283 19.2032 18.8918 19.044 19.0337 18.8052H20.9593C21.2025 18.8052 21.4052 18.6062 21.4052 18.3674C21.4052 18.1684 21.2025 17.9694 20.9593 17.9694Z"
      fill="currentColor"
    />
    <path
      d="M11.4932 20.0788C10.4188 20.0788 9.30403 19.0042 8.49324 17.1933C8.31081 16.7953 8.14866 16.3774 8.02706 15.8998H11.7972C12.0405 15.2829 12.3648 14.7257 12.7702 14.2083H7.60151C7.58124 14.0292 7.5407 13.8501 7.52043 13.6511C7.45962 13.273 7.41908 12.875 7.39881 12.477C7.37854 12.0989 7.35827 11.7009 7.35827 11.283C7.35827 10.2283 7.43935 9.25322 7.60151 8.35775H15.3443C15.3646 8.51695 15.4051 8.69605 15.4254 8.85527C15.4862 9.25327 15.5268 9.67119 15.547 10.1089C15.5673 10.487 15.5876 10.885 15.5876 11.283C15.5876 11.5417 15.5876 11.8004 15.5673 12.0392C16.1146 11.8203 16.7024 11.6611 17.3105 11.5815V11.283C17.3105 10.7656 17.2902 10.2682 17.2497 9.77064C17.2092 9.29305 17.1483 8.81545 17.0875 8.35777H20.7564C21.0604 9.27317 21.2226 10.2682 21.2226 11.283C21.2226 11.5616 21.2023 11.8402 21.182 12.1188C21.7699 12.3775 22.3171 12.7158 22.8036 13.1138C22.905 12.5168 22.9658 11.8999 22.9658 11.2631C22.9658 9.79052 22.682 8.39753 22.155 7.10401C22.0942 6.94481 22.0131 6.78561 21.9523 6.64634C20.1685 2.74596 16.135 0 11.4931 0C6.83126 0 2.81761 2.74619 1.01349 6.66635C0.952679 6.82555 0.8716 6.98475 0.810791 7.12403C0.283777 8.41754 0 9.81049 0 11.2831C0 12.7558 0.283777 14.1487 0.810791 15.4422C0.8716 15.6014 0.932409 15.7606 1.01349 15.8999C2.81752 19.8202 6.8308 22.5663 11.4931 22.5663C11.8985 22.5663 12.3039 22.5464 12.689 22.5066C12.1417 21.7902 11.7363 20.9742 11.5133 20.0788L11.4932 20.0788ZM20.0269 6.66605H16.7634C16.7229 6.48696 16.6621 6.30786 16.6012 6.12878C16.4796 5.71088 16.3175 5.29298 16.1553 4.89499C15.6891 3.78059 15.081 2.8254 14.3919 2.1488C16.8242 2.88512 18.8312 4.51687 20.0269 6.66605ZM11.4932 2.48708C12.5472 2.48708 13.662 3.54179 14.4728 5.31286C14.6552 5.73076 14.8174 6.16854 14.9796 6.64613H8.00677C8.79727 4.07902 10.1959 2.48708 11.4932 2.48708ZM8.57432 2.14878C7.54059 3.18357 6.7298 4.75564 6.20274 6.66603H2.93928C4.15547 4.51684 6.16243 2.88505 8.57432 2.14878ZM1.72291 11.2827C1.72291 10.2678 1.88507 9.27281 2.18909 8.35746H5.83765C5.69576 9.29273 5.61468 10.2678 5.61468 11.2827C5.61468 11.7802 5.63495 12.2578 5.67549 12.7354C5.71603 13.233 5.77684 13.7304 5.83765 14.208H2.18909C1.88504 13.2926 1.72291 12.3175 1.72291 11.2827ZM2.93909 15.9195H6.20255C6.24309 16.0787 6.28363 16.2578 6.34444 16.3971C6.48633 16.8548 6.62822 17.2727 6.81062 17.6906C7.2768 18.805 7.88494 19.7403 8.57407 20.4368C6.16199 19.7005 4.15505 18.0488 2.93909 15.9195Z"
      fill="currentColor"
    />
  </symbol>

  <symbol viewBox="0 0 32 32" id="size-32">
    <path
      d="M24.4047 17.0879C20.2157 17.0879 16.8102 20.4311 16.8102 24.5439C16.8102 28.6567 20.2155 31.9999 24.4047 31.9999C28.594 31.9999 31.9993 28.6567 31.9993 24.5439C31.9993 20.4311 28.594 17.0879 24.4047 17.0879ZM24.4047 30.0361C21.3237 30.0361 18.8103 27.5685 18.8103 24.5437C18.8103 21.519 21.3238 19.0514 24.4047 19.0514C27.4857 19.0514 29.9991 21.519 29.9991 24.5437C29.9991 27.5685 27.5127 30.0361 24.4047 30.0361Z"
      fill="currentColor"
    />
    <path
      d="M27.9457 23.9592H25.3782C25.189 23.6408 24.8377 23.4285 24.4323 23.4285C23.8108 23.4285 23.3242 23.9326 23.3242 24.5164C23.3242 25.1266 23.8377 25.6043 24.4323 25.6043C24.8377 25.6043 25.1891 25.392 25.3782 25.0736H27.9457C28.27 25.0736 28.5403 24.8083 28.5403 24.4899C28.5403 24.2246 28.27 23.9592 27.9457 23.9592Z"
      fill="currentColor"
    />
    <path
      d="M15.3242 26.7717C13.8918 26.7717 12.4054 25.339 11.3243 22.9244C11.0811 22.3937 10.8649 21.8365 10.7027 21.1997H15.7296C16.054 20.3772 16.4864 19.6343 17.0269 18.9444H10.1353C10.1083 18.7056 10.0543 18.4668 10.0272 18.2014C9.94616 17.6973 9.89211 17.1667 9.86509 16.636C9.83806 16.1319 9.81103 15.6012 9.81103 15.044C9.81103 13.6377 9.91914 12.3376 10.1353 11.1437H20.4591C20.4861 11.3559 20.5402 11.5947 20.5672 11.807C20.6483 12.3377 20.7023 12.8949 20.7294 13.4786C20.7564 13.9827 20.7834 14.5134 20.7834 15.044C20.7834 15.3889 20.7834 15.7339 20.7564 16.0523C21.4861 15.7604 22.2699 15.5481 23.0807 15.442V15.044C23.0807 14.3542 23.0536 13.6909 22.9996 13.0275C22.9455 12.3907 22.8645 11.7539 22.7834 11.1437H27.6752C28.0806 12.3642 28.2968 13.6909 28.2968 15.044C28.2968 15.4155 28.2697 15.787 28.2427 16.1584C29.0265 16.5034 29.7562 16.9544 30.4048 17.4851C30.5399 16.6891 30.621 15.8665 30.621 15.0175C30.621 13.054 30.2427 11.1967 29.54 9.47202C29.4589 9.25975 29.3508 9.04748 29.2697 8.86178C26.8914 3.66128 21.5133 0 15.3241 0C9.10835 0 3.75682 3.66158 1.35132 8.88847C1.27024 9.10073 1.16213 9.313 1.08105 9.4987C0.378369 11.2234 0 13.0807 0 15.0442C0 17.0077 0.378369 18.865 1.08105 20.5896C1.16213 20.8019 1.24321 21.0142 1.35132 21.1999C3.75669 26.4269 9.10773 30.0883 15.3241 30.0883C15.8646 30.0883 16.4052 30.0618 16.9186 30.0087C16.1889 29.0535 15.6484 27.9657 15.3511 26.7717L15.3242 26.7717ZM26.7025 8.88807H22.3512C22.2971 8.64927 22.2161 8.41048 22.135 8.17171C21.9728 7.61451 21.7566 7.05731 21.5404 6.52665C20.9188 5.04079 20.108 3.7672 19.1891 2.86507C22.4323 3.84683 25.1082 6.02249 26.7025 8.88807ZM15.3242 3.3161C16.7296 3.3161 18.216 4.72239 19.2971 7.08382C19.5403 7.64101 19.7565 8.22471 19.9728 8.86151H10.6757C11.7297 5.4387 13.5945 3.3161 15.3242 3.3161ZM11.4324 2.86504C10.0541 4.24477 8.97306 6.34086 8.27031 8.88804H3.91904C5.54062 6.02246 8.21657 3.84674 11.4324 2.86504ZM2.29721 15.0436C2.29721 13.6905 2.51342 12.3637 2.91879 11.1433H7.78353C7.59435 12.3903 7.48624 13.6905 7.48624 15.0436C7.48624 15.707 7.51327 16.3438 7.56732 16.9806C7.62137 17.6439 7.70245 18.3072 7.78353 18.944H2.91879C2.51339 17.7235 2.29721 16.4233 2.29721 15.0436ZM3.91879 21.226H8.27007C8.32412 21.4383 8.37817 21.6771 8.45925 21.8628C8.64844 22.473 8.83762 23.0303 9.08083 23.5875C9.7024 25.0734 10.5133 26.3204 11.4321 27.2491C8.21598 26.2673 5.54006 24.065 3.91879 21.226Z"
      fill="currentColor"
    />
  </symbol>
</svg>
