<svg
  xmlns="http://www.w3.org/2000/svg"
  xmlns:xlink="http://www.w3.org/1999/xlink"
>
  <symbol viewBox="0 0 16 16" id="size-16">
    <path
      d="M8.00065 1.33398C4.31954 1.33398 1.33398 4.39445 1.33398 8.16919C1.33398 11.1892 3.24398 13.7513 5.89343 14.6552C6.22621 14.7184 6.33398 14.5066 6.33398 14.3266V13.0541C4.47954 13.4676 4.09343 12.2475 4.09343 12.2475C3.7901 11.4575 3.35287 11.2473 3.35287 11.2473C2.74787 10.823 3.39898 10.8321 3.39898 10.8321C4.06843 10.8799 4.42065 11.5367 4.42065 11.5367C5.0151 12.5813 5.9801 12.2794 6.36065 12.1046C6.4201 11.6631 6.59287 11.3612 6.78398 11.1909C5.30343 11.0172 3.74676 10.4311 3.74676 7.81262C3.74676 7.06587 4.00732 6.4564 4.43343 5.97793C4.36454 5.80535 4.13621 5.10986 4.49843 4.16888C4.49843 4.16888 5.05843 3.98547 6.33232 4.86949C6.86398 4.71798 7.43398 4.64222 8.00065 4.63937C8.56732 4.64222 9.13787 4.71798 9.67065 4.86949C10.9434 3.98547 11.5023 4.16888 11.5023 4.16888C11.8651 5.11043 11.6368 5.80592 11.5679 5.97793C11.9957 6.4564 12.254 7.06644 12.254 7.81262C12.254 10.4379 10.6945 11.016 9.2101 11.1852C9.44898 11.3971 9.66732 11.8129 9.66732 12.4509V14.3266C9.66732 14.5083 9.77398 14.7219 10.1123 14.6547C12.7595 13.7496 14.6673 11.1881 14.6673 8.16919C14.6673 4.39445 11.6823 1.33398 8.00065 1.33398Z"
      fill="currentColor"
    />
  </symbol>

  <symbol viewBox="0 0 24 24" id="size-24">
    <path
      d="M12 2.5C6.47833 2.5 2 7.09069 2 12.7528C2 17.2828 4.865 21.1259 8.83917 22.4819C9.33833 22.5767 9.5 22.2589 9.5 21.9889V20.0801C6.71833 20.7004 6.13917 18.8703 6.13917 18.8703C5.68417 17.6853 5.02833 17.37 5.02833 17.37C4.12083 16.7335 5.0975 16.7471 5.0975 16.7471C6.10167 16.8189 6.63 17.804 6.63 17.804C7.52167 19.371 8.96917 18.9182 9.54 18.6559C9.62917 17.9937 9.88833 17.5409 10.175 17.2854C7.95417 17.0248 5.61917 16.1456 5.61917 12.2179C5.61917 11.0978 6.01 10.1836 6.64917 9.46593C6.54583 9.20704 6.20333 8.16382 6.74667 6.75235C6.74667 6.75235 7.58667 6.47723 9.4975 7.80326C10.295 7.57599 11.15 7.46236 12 7.45808C12.85 7.46236 13.7058 7.57599 14.505 7.80326C16.4142 6.47723 17.2525 6.75235 17.2525 6.75235C17.7967 8.16467 17.4542 9.2079 17.3508 9.46593C17.9925 10.1836 18.38 11.0987 18.38 12.2179C18.38 16.1559 16.0408 17.0231 13.8142 17.2769C14.1725 17.5947 14.5 18.2184 14.5 19.1753V21.9889C14.5 22.2614 14.66 22.5818 15.1675 22.481C19.1383 21.1234 22 17.2811 22 12.7528C22 7.09069 17.5225 2.5 12 2.5Z"
      fill="currentColor"
    />
  </symbol>

  <symbol viewBox="0 0 32 32" id="size-32">
    <path
      d="M15.9993 2.66602C8.63713 2.66602 2.66602 8.78694 2.66602 16.3364C2.66602 22.3765 6.48602 27.5006 11.7849 29.3085C12.4505 29.4349 12.666 29.0112 12.666 28.6512V26.1062C8.95713 26.9333 8.1849 24.4931 8.1849 24.4931C7.57824 22.913 6.70379 22.4927 6.70379 22.4927C5.49379 21.644 6.79602 21.6622 6.79602 21.6622C8.1349 21.7579 8.83935 23.0714 8.83935 23.0714C10.0282 25.1607 11.9582 24.5569 12.7193 24.2072C12.8382 23.3243 13.1838 22.7205 13.566 22.3799C10.6049 22.0324 7.49157 20.8602 7.49157 15.6233C7.49157 14.1298 8.01268 12.9108 8.8649 11.9539C8.72713 11.6087 8.27046 10.2178 8.9949 8.33582C8.9949 8.33582 10.1149 7.96899 12.6627 9.73703C13.726 9.43401 14.866 9.28249 15.9993 9.2768C17.1327 9.28249 18.2738 9.43401 19.3393 9.73703C21.8849 7.96899 23.0027 8.33582 23.0027 8.33582C23.7282 10.2189 23.2716 11.6099 23.1338 11.9539C23.9893 12.9108 24.506 14.1309 24.506 15.6233C24.506 20.8739 21.3871 22.0301 18.4182 22.3685C18.896 22.7923 19.3327 23.6239 19.3327 24.8998V28.6512C19.3327 29.0146 19.546 29.4418 20.2227 29.3074C25.5171 27.4972 29.3327 22.3742 29.3327 16.3364C29.3327 8.78694 23.3627 2.66602 15.9993 2.66602Z"
      fill="currentColor"
    />
  </symbol>
</svg>
