<svg
  xmlns="http://www.w3.org/2000/svg"
  xmlns:xlink="http://www.w3.org/1999/xlink"
>
  <symbol viewBox="0 0 16 16" id="size-16">
    <path
      d="M1.91699 4C1.91699 3.58579 2.25278 3.25 2.66699 3.25H13.3337C13.7479 3.25 14.0837 3.58579 14.0837 4C14.0837 4.41421 13.7479 4.75 13.3337 4.75H2.66699C2.25278 4.75 1.91699 4.41421 1.91699 4Z"
      fill="currentColor"
    />
    <path
      d="M1.91699 7.66675C1.91699 7.25253 2.25278 6.91675 2.66699 6.91675H13.3337C13.7479 6.91675 14.0837 7.25253 14.0837 7.66675C14.0837 8.08096 13.7479 8.41675 13.3337 8.41675H2.66699C2.25278 8.41675 1.91699 8.08096 1.91699 7.66675Z"
      fill="currentColor"
    />
    <path
      d="M2.66699 10.5833C2.25278 10.5833 1.91699 10.919 1.91699 11.3333C1.91699 11.7475 2.25278 12.0833 2.66699 12.0833H13.3337C13.7479 12.0833 14.0837 11.7475 14.0837 11.3333C14.0837 10.919 13.7479 10.5833 13.3337 10.5833H2.66699Z"
      fill="currentColor"
    />
  </symbol>

  <symbol viewBox="0 0 24 24" id="size-24">
    <path
      d="M3.25 6C3.25 5.58579 3.58579 5.25 4 5.25H20C20.4142 5.25 20.75 5.58579 20.75 6C20.75 6.41421 20.4142 6.75 20 6.75H4C3.58579 6.75 3.25 6.41421 3.25 6Z"
      fill="currentColor"
    />
    <path
      d="M3.25 11.5C3.25 11.0858 3.58579 10.75 4 10.75H20C20.4142 10.75 20.75 11.0858 20.75 11.5C20.75 11.9142 20.4142 12.25 20 12.25H4C3.58579 12.25 3.25 11.9142 3.25 11.5Z"
      fill="currentColor"
    />
    <path
      d="M4 16.25C3.58579 16.25 3.25 16.5858 3.25 17C3.25 17.4142 3.58579 17.75 4 17.75H20C20.4142 17.75 20.75 17.4142 20.75 17C20.75 16.5858 20.4142 16.25 20 16.25H4Z"
      fill="currentColor"
    />
  </symbol>

  <symbol viewBox="0 0 32 32" id="size-32">
    <path
      d="M4.33301 8C4.33301 7.44772 4.78072 7 5.33301 7H26.6663C27.2186 7 27.6663 7.44772 27.6663 8C27.6663 8.55228 27.2186 9 26.6663 9H5.33301C4.78072 9 4.33301 8.55228 4.33301 8Z"
      fill="currentColor"
    />
    <path
      d="M4.33301 15.3333C4.33301 14.781 4.78072 14.3333 5.33301 14.3333H26.6663C27.2186 14.3333 27.6663 14.781 27.6663 15.3333C27.6663 15.8856 27.2186 16.3333 26.6663 16.3333H5.33301C4.78072 16.3333 4.33301 15.8856 4.33301 15.3333Z"
      fill="currentColor"
    />
    <path
      d="M4.33301 22.6667C4.33301 22.1144 4.78072 21.6667 5.33301 21.6667H26.6663C27.2186 21.6667 27.6663 22.1144 27.6663 22.6667C27.6663 23.219 27.2186 23.6667 26.6663 23.6667H5.33301C4.78072 23.6667 4.33301 23.219 4.33301 22.6667Z"
      fill="currentColor"
    />
  </symbol>
</svg>
