<svg
  xmlns="http://www.w3.org/2000/svg"
  xmlns:xlink="http://www.w3.org/1999/xlink"
>
  <symbol viewBox="0 0 16 16" id="size-16">
    <path
      d="M9 10.9998C9 11.5998 8.6 11.9998 8 11.9998C7.4 11.9998 7 11.5998 7 10.9998V7.99984C7 7.39984 7.4 6.99984 8 6.99984C8.6 6.99984 9 7.39984 9 7.99984V10.9998ZM8 5.99984C7.4 5.99984 7 5.59984 7 4.99984C7 4.39984 7.4 3.99984 8 3.99984C8.6 3.99984 9 4.39984 9 4.99984C9 5.59984 8.6 5.99984 8 5.99984Z"
      fill="currentColor"
    />
    <path
      d="M8 16C3.6 16 0 12.4 0 8C0 3.6 3.6 0 8 0C12.4 0 16 3.6 16 8C16 12.4 12.4 16 8 16ZM8 2C4.7 2 2 4.7 2 8C2 11.3 4.7 14 8 14C11.3 14 14 11.3 14 8C14 4.7 11.3 2 8 2Z"
      fill="currentColor"
    />
  </symbol>

  <symbol viewBox="0 0 24 24" id="size-24">
    <path
      fill-rule="evenodd"
      clip-rule="evenodd"
      d="M12 0C5.37895 0 0 5.37945 0 12C0 18.6206 5.37945 24 12 24C18.6206 24 24 18.6206 24 12C24 5.37945 18.6206 0 12 0ZM12 22.0142C6.45524 22.0142 1.98627 17.5452 1.98627 12.0005C1.98627 6.45579 6.45529 1.98677 12 1.98677C17.5447 1.98677 22.0137 6.45579 22.0137 12.0005C22.0137 17.5452 17.5447 22.0142 12 22.0142Z"
      fill="currentColor"
    />
    <path
      fill-rule="evenodd"
      clip-rule="evenodd"
      d="M12.0829 8.68996C11.5035 8.68996 11.0071 9.18655 11.0071 9.76575L11.0069 18.6213C11.0069 19.2007 11.5035 19.6971 12.0827 19.6971C12.6621 19.6971 13.1585 19.2005 13.1585 18.6213L13.1587 9.84866C13.1587 9.18661 12.6621 8.68996 12.0829 8.68996Z"
      fill="currentColor"
    />
    <path
      fill-rule="evenodd"
      clip-rule="evenodd"
      d="M13.0758 5.46197C13.0758 6.05609 12.5941 6.53776 12 6.53776C11.4059 6.53776 10.9242 6.0561 10.9242 5.46197C10.9242 4.86785 11.4059 4.38598 12 4.38598C12.5941 4.38598 13.0758 4.86784 13.0758 5.46197Z"
      fill="currentColor"
    />
  </symbol>

  <symbol viewBox="0 0 32 32" id="size-32">
    <path
      fill-rule="evenodd"
      clip-rule="evenodd"
      d="M16 0C7.17193 0 0 7.1726 0 16C0 24.8274 7.1726 32 16 32C24.8274 32 32 24.8274 32 16C32 7.1726 24.8274 0 16 0ZM16 29.3523C8.60699 29.3523 2.64836 23.3936 2.64836 16.0007C2.64836 8.60772 8.60705 2.64902 16 2.64902C23.393 2.64902 29.3516 8.60772 29.3516 16.0007C29.3516 23.3936 23.393 29.3523 16 29.3523Z"
      fill="currentColor"
    />
    <path
      fill-rule="evenodd"
      clip-rule="evenodd"
      d="M16.1105 11.5866C15.338 11.5866 14.6761 12.2487 14.6761 13.021L14.6759 24.8284C14.6759 25.6009 15.338 26.2628 16.1103 26.2628C16.8828 26.2628 17.5447 25.6006 17.5447 24.8284L17.5449 13.1315C17.5449 12.2488 16.8828 11.5866 16.1105 11.5866Z"
      fill="currentColor"
    />
    <path
      fill-rule="evenodd"
      clip-rule="evenodd"
      d="M17.4344 7.28261C17.4344 8.07477 16.7921 8.717 16 8.717C15.2078 8.717 14.5656 8.07478 14.5656 7.28261C14.5656 6.49045 15.2078 5.84796 16 5.84796C16.7921 5.84796 17.4344 6.49044 17.4344 7.28261Z"
      fill="currentColor"
    />
  </symbol>
</svg>
