<svg
  xmlns="http://www.w3.org/2000/svg"
  xmlns:xlink="http://www.w3.org/1999/xlink"
>
  <symbol viewBox="0 0 16 16" id="size-16">
    <path
      fill-rule="evenodd"
      clip-rule="evenodd"
      d="M13.9914 2.59953C13.9914 2.26839 13.7229 2 13.3915 2H9.14885C8.81746 2 8.54888 2.26839 8.54888 2.59953C8.54888 2.93067 8.81746 3.19906 9.14885 3.19906H11.943L7.87598 7.26308C7.64164 7.49725 7.64164 7.87687 7.87598 8.11093C8.11032 8.3451 8.49012 8.3451 8.72445 8.11093L12.7915 4.04691V6.839C12.7915 7.17003 13.0601 7.43853 13.3914 7.43853C13.7228 7.43853 13.9914 7.17003 13.9914 6.839L13.9914 2.59953ZM5.45527 13.9999H10.5449C11.0279 13.9999 11.4266 13.9999 11.7512 13.9734C12.0885 13.9459 12.3985 13.8868 12.6897 13.7385C13.1413 13.5087 13.5084 13.1417 13.7384 12.6905C13.8868 12.3996 13.946 12.0897 13.9735 11.7527C14 11.4283 14 11.03 14 10.5474V10.1029C14 9.77177 13.7314 9.50338 13.4 9.50338C13.0686 9.50338 12.8001 9.77177 12.8001 10.1029V10.5226C12.8001 11.0362 12.7996 11.3853 12.7776 11.6552C12.7561 11.918 12.7171 12.0525 12.6693 12.1462C12.5543 12.3718 12.3707 12.5553 12.1448 12.6703C12.051 12.718 11.9165 12.757 11.6535 12.7785C11.3834 12.8004 11.034 12.8009 10.52 12.8009H5.47998C4.966 12.8009 4.61665 12.8004 4.34664 12.7785C4.08359 12.757 3.94907 12.718 3.85527 12.6703C3.62946 12.5553 3.44584 12.3719 3.33082 12.1462C3.28301 12.0525 3.24403 11.918 3.22254 11.6552C3.20044 11.3853 3.20004 11.0362 3.20004 10.5226V5.48623C3.20004 4.97263 3.20054 4.62353 3.22254 4.35372C3.24404 4.09086 3.28301 3.95644 3.33082 3.86271C3.44583 3.63707 3.62944 3.45358 3.85527 3.33864C3.94908 3.29087 4.08358 3.25192 4.34664 3.23044C4.61675 3.20836 4.96611 3.20796 5.47998 3.20796H5.89995C6.23133 3.20796 6.49992 2.93957 6.49992 2.60843C6.49992 2.27729 6.23133 2.0089 5.89995 2.0089H5.45517C4.97223 2.0089 4.57355 2.0089 4.2489 2.0354C3.91161 2.0629 3.60162 2.12202 3.31043 2.27027C2.85883 2.50022 2.49168 2.8671 2.26156 3.31837C2.1132 3.60934 2.05404 3.91921 2.02652 4.25615C2 4.58066 2 4.97895 2 5.46153V10.5475C2 11.0302 2 11.4284 2.02652 11.7528C2.05404 12.0899 2.1132 12.3997 2.26156 12.6906C2.49169 13.1419 2.85883 13.5088 3.31043 13.7386C3.60162 13.8869 3.91171 13.946 4.2489 13.9735C4.57365 14 4.97223 14 5.45527 14L5.45527 13.9999Z"
      fill="currentColor"
    />
  </symbol>

  <symbol viewBox="0 0 24 24" id="size-24">
    <path
      fill-rule="evenodd"
      clip-rule="evenodd"
      d="M20.9872 3.89929C20.9872 3.40259 20.5843 3 20.0872 3H13.7233C13.2262 3 12.8233 3.40259 12.8233 3.89929C12.8233 4.396 13.2262 4.79859 13.7233 4.79859H17.9145L11.814 10.8946C11.4625 11.2459 11.4625 11.8153 11.814 12.1664C12.1655 12.5177 12.7352 12.5177 13.0867 12.1664L19.1872 6.07037V10.2585C19.1872 10.755 19.5902 11.1578 20.0871 11.1578C20.5842 11.1578 20.9871 10.755 20.9871 10.2585L20.9872 3.89929ZM8.18291 20.9998H15.8174C16.5418 20.9998 17.1398 20.9998 17.6268 20.9601C18.1327 20.9189 18.5977 20.8302 19.0345 20.6078C19.7119 20.263 20.2626 19.7125 20.6077 19.0358C20.8302 18.5993 20.9189 18.1345 20.9602 17.6291C21 17.1425 21 16.5449 21 15.821V15.1544C21 14.6577 20.5971 14.2551 20.1 14.2551C19.603 14.2551 19.2001 14.6577 19.2001 15.1544V15.7839C19.2001 16.5543 19.1993 17.0779 19.1663 17.4828C19.1341 17.8771 19.0756 18.0787 19.0039 18.2193C18.8314 18.5578 18.556 18.833 18.2172 19.0054C18.0765 19.0771 17.8748 19.1355 17.4802 19.1677C17.075 19.2007 16.551 19.2014 15.78 19.2014H8.21997C7.449 19.2014 6.92497 19.2007 6.51997 19.1677C6.12538 19.1355 5.92361 19.0771 5.7829 19.0054C5.44419 18.833 5.16876 18.5578 4.99623 18.2193C4.92451 18.0787 4.86605 17.8771 4.83381 17.4828C4.80066 17.0779 4.80006 16.5543 4.80006 15.7839V8.22935C4.80006 7.45894 4.80081 6.93529 4.83381 6.53058C4.86605 6.13629 4.92451 5.93466 4.99623 5.79406C5.16875 5.4556 5.44416 5.18037 5.7829 5.00797C5.92362 4.9363 6.12537 4.87788 6.51997 4.84566C6.92512 4.81254 7.44916 4.81194 8.21997 4.81194H8.84993C9.347 4.81194 9.74988 4.40935 9.74988 3.91264C9.74988 3.41593 9.347 3.01335 8.84993 3.01335H8.18275C7.45834 3.01335 6.86032 3.01335 6.37335 3.05309C5.86741 3.09435 5.40243 3.18303 4.96564 3.4054C4.28825 3.75034 3.73752 4.30065 3.39234 4.97755C3.1698 5.41402 3.08106 5.87881 3.03978 6.38423C3 6.871 3 7.46842 3 8.1923V15.8212C3 16.5452 3 17.1427 3.03978 17.6293C3.08106 18.1348 3.1698 18.5995 3.39234 19.036C3.73753 19.7129 4.28825 20.2632 4.96564 20.6079C5.40243 20.8303 5.86756 20.919 6.37335 20.9603C6.86048 21 7.45834 21 8.18291 21L8.18291 20.9998Z"
      fill="currentColor"
    />
  </symbol>

  <symbol viewBox="0 0 32 32" id="size-32">
    <path
      fill-rule="evenodd"
      clip-rule="evenodd"
      d="M27.9829 5.19906C27.9829 4.53678 27.4457 4 26.7829 4H18.2977C17.6349 4 17.0978 4.53678 17.0978 5.19906C17.0978 5.86134 17.6349 6.39812 18.2977 6.39812H23.886L15.752 14.5262C15.2833 14.9945 15.2833 15.7537 15.752 16.2219C16.2206 16.6902 16.9802 16.6902 17.4489 16.2219L25.5829 8.09382V13.678C25.5829 14.3401 26.1203 14.8771 26.7828 14.8771C27.4456 14.8771 27.9828 14.3401 27.9828 13.678L27.9829 5.19906ZM10.9105 27.9998H21.0899C22.0558 27.9998 22.8531 27.9998 23.5024 27.9468C24.177 27.8918 24.797 27.7736 25.3793 27.4771C26.2825 27.0173 27.0168 26.2834 27.4769 25.3811C27.7736 24.7991 27.8919 24.1794 27.947 23.5055C28 22.8567 28 22.0599 28 21.0947V20.2058C28 19.5435 27.4628 19.0068 26.8001 19.0068C26.1373 19.0068 25.6001 19.5435 25.6001 20.2058V21.0451C25.6001 22.0723 25.5991 22.7705 25.5551 23.3104C25.5121 23.8361 25.4342 24.1049 25.3386 24.2924C25.1085 24.7437 24.7413 25.1106 24.2897 25.3405C24.102 25.4361 23.833 25.514 23.3069 25.5569C22.7667 25.6009 22.068 25.6019 21.04 25.6019H10.96C9.932 25.6019 9.23329 25.6009 8.69329 25.5569C8.16717 25.514 7.89815 25.4361 7.71053 25.3405C7.25893 25.1107 6.89168 24.7437 6.66164 24.2924C6.56601 24.1049 6.48807 23.8361 6.44508 23.3104C6.40088 22.7705 6.40008 22.0723 6.40008 21.0451V10.9725C6.40008 9.94525 6.40108 9.24705 6.44508 8.70745C6.48807 8.18171 6.56602 7.91289 6.66164 7.72541C6.89167 7.27413 7.25888 6.90716 7.71053 6.67729C7.89817 6.58173 8.16716 6.50384 8.69329 6.46088C9.2335 6.41672 9.93221 6.41592 10.96 6.41592H11.7999C12.4627 6.41592 12.9998 5.87914 12.9998 5.21686C12.9998 4.55458 12.4627 4.0178 11.7999 4.0178H10.9103C9.94445 4.0178 9.1471 4.0178 8.49781 4.07079C7.82321 4.1258 7.20324 4.24404 6.62086 4.54054C5.71766 5.00045 4.98336 5.7342 4.52312 6.63673C4.22641 7.21869 4.10808 7.83841 4.05303 8.51231C4 9.16133 4 9.95789 4 10.9231V21.0949C4 22.0603 4 22.8569 4.05303 23.5057C4.10808 24.1798 4.22641 24.7993 4.52312 25.3813C4.98337 26.2838 5.71766 27.0176 6.62086 27.4773C7.20324 27.7738 7.82342 27.892 8.49781 27.947C9.1473 28 9.94445 28 10.9105 28L10.9105 27.9998Z"
      fill="currentColor"
    />
  </symbol>
</svg>
