<svg
  xmlns="http://www.w3.org/2000/svg"
  xmlns:xlink="http://www.w3.org/1999/xlink"
>
  <symbol viewBox="0 0 16 16" id="size-16">
    <path
      opacity="0.9"
      fill-rule="evenodd"
      clip-rule="evenodd"
      d="M12.6948 15H3.30521C2.58432 15 2 14.4195 2 13.7036L2.00015 6.96411C2.00015 6.24811 2.58447 5.66775 3.30536 5.66775H3.55663V5.41352H3.56482C3.56558 2.97605 5.55554 1 8.00965 1C10.4647 1 12.4335 2.97659 12.4335 5.41506C12.4335 5.50428 12.437 5.58701 12.4372 5.66779H12.6946C13.4155 5.66779 13.9998 6.24815 13.9998 6.96415L14 13.7036C14.0002 14.4196 13.4161 15 12.6949 15L12.6948 15ZM8.01845 2.55645C6.43256 2.55645 5.14692 3.83336 5.14634 5.40804H5.14088V5.668L10.878 5.66785V5.64735C10.8855 5.57215 10.8911 5.49439 10.8911 5.40909C10.8908 3.83365 9.60485 2.55647 8.01865 2.55647L8.01845 2.55645ZM12.4411 7.74813C12.4411 7.46164 12.2073 7.22958 11.919 7.22958H4.08165C3.79336 7.22958 3.55956 7.46166 3.55956 7.74813V12.9286C3.55956 13.2151 3.79337 13.4472 4.08165 13.4472H11.919C12.2073 13.4472 12.4411 13.2149 12.4411 12.9286V7.74813ZM8.12682 11.8843H7.86584C7.50669 11.8843 7.21568 11.5952 7.21568 11.2385V9.4471C7.21568 9.09039 7.5067 8.80135 7.86584 8.80135H8.12682C8.48597 8.80135 8.77698 9.0904 8.77698 9.4471V11.2385C8.77728 11.5952 8.48596 11.8843 8.12682 11.8843V11.8843Z"
      fill="currentColor"
    />
  </symbol>

  <symbol viewBox="0 0 24 24" id="size-24">
    <path
      opacity="0.9"
      fill-rule="evenodd"
      clip-rule="evenodd"
      d="M19.0422 22.4999H4.95782C3.87648 22.4999 3 21.6292 3 20.5554L3.00023 10.4462C3.00023 9.37216 3.87671 8.50163 4.95804 8.50163H5.33495V8.12028H5.34724C5.34837 4.46408 8.33331 1.5 12.0145 1.5C15.697 1.5 18.6503 4.46489 18.6503 8.1226C18.6503 8.25642 18.6555 8.38052 18.6557 8.50169H19.042C20.1233 8.50169 20.9998 9.37222 20.9998 10.4462L21 20.5555C21.0002 21.6295 20.1242 22.5 19.0424 22.5L19.0422 22.4999ZM12.0277 3.83468C9.64883 3.83468 7.72038 5.75005 7.71951 8.11205H7.71132V8.502L16.317 8.50177V8.47103C16.3282 8.35823 16.3366 8.24159 16.3366 8.11364C16.3362 5.75047 14.4073 3.8347 12.028 3.8347L12.0277 3.83468ZM18.6617 11.6222C18.6617 11.1925 18.311 10.8444 17.8786 10.8444H6.12247C5.69004 10.8444 5.33933 11.1925 5.33933 11.6222V19.3929C5.33933 19.8226 5.69006 20.1707 6.12247 20.1707H17.8786C18.311 20.1707 18.6617 19.8224 18.6617 19.3929V11.6222ZM12.1902 17.8264H11.7988C11.26 17.8264 10.8235 17.3928 10.8235 16.8578V14.1707C10.8235 13.6356 11.2601 13.202 11.7988 13.202H12.1902C12.729 13.202 13.1655 13.6356 13.1655 14.1707V16.8578C13.1659 17.3928 12.7289 17.8264 12.1902 17.8264V17.8264Z"
      fill="currentColor"
    />
  </symbol>

  <symbol viewBox="0 0 32 32" id="size-32">
    <path
      opacity="0.9"
      fill-rule="evenodd"
      clip-rule="evenodd"
      d="M25.7808 29.9999H6.21919C4.71733 29.9999 3.5 28.8389 3.5 27.4072L3.50032 13.9282C3.50032 12.4962 4.71765 11.3355 6.2195 11.3355H6.74298V10.827H6.76005C6.76163 5.95211 10.9074 2 16.0201 2C21.1347 2 25.2365 5.95319 25.2365 10.8301C25.2365 11.0086 25.2437 11.174 25.2441 11.3356H25.7805C27.2824 11.3356 28.4997 12.4963 28.4997 13.9283L28.5 27.4073C28.5003 28.8393 27.2836 30 25.7811 30L25.7808 29.9999ZM16.0384 5.11291C12.7345 5.11291 10.0561 7.66673 10.0549 10.8161H10.0435V11.336L21.9959 11.3357V11.2947C22.0114 11.1443 22.0231 10.9888 22.0231 10.8182C22.0224 7.6673 19.3434 5.11293 16.0389 5.11293L16.0384 5.11291ZM25.2524 15.4963C25.2524 14.9233 24.7652 14.4592 24.1647 14.4592H7.83677C7.23616 14.4592 6.74907 14.9233 6.74907 15.4963V25.8572C6.74907 26.4302 7.23619 26.8943 7.83677 26.8943H24.1647C24.7653 26.8943 25.2524 26.4299 25.2524 25.8572V15.4963ZM16.2642 23.7685H15.7205C14.9723 23.7685 14.366 23.1904 14.366 22.477V18.8942C14.366 18.1808 14.9723 17.6027 15.7205 17.6027H16.2642C17.0124 17.6027 17.6187 18.1808 17.6187 18.8942V22.477C17.6193 23.1905 17.0124 23.7685 16.2642 23.7685V23.7685Z"
      fill="currentColor"
    />
  </symbol>
</svg>
