<svg
  xmlns="http://www.w3.org/2000/svg"
  xmlns:xlink="http://www.w3.org/1999/xlink"
>
  <symbol viewBox="0 0 16 16" id="size-16">
    <path
      fill-rule="evenodd"
      clip-rule="evenodd"
      d="M12.504 11.3853C12.504 11.4751 12.5484 11.6084 12.6373 11.6528H12.6391L13.4871 12.5008V12.5453H9.11288V12.5008L10.0062 11.6528C10.0951 11.5631 10.1395 11.4742 10.1395 11.3408V6.07416C10.1395 5.85016 10.1395 5.53727 10.184 5.27061L7.23644 12.6342H7.19199L4.15733 5.84927C4.12765 5.72997 4.09797 5.69033 4.06829 5.65069C4.05352 5.63097 4.03876 5.61125 4.02399 5.58172V10.0466C3.97866 10.3586 4.02399 10.6262 4.15733 10.8946L5.36266 12.5008V12.5453H2.14844V12.5008L3.35377 10.8493C3.4871 10.5817 3.53155 10.2697 3.4871 10.0013V5.09194C3.4871 4.86883 3.44266 4.60039 3.26399 4.42261L2.46133 3.30616V3.26172H5.58488L8.1751 9.01994L10.4507 3.26172H13.4862V3.30616L12.6373 4.28839C12.5484 4.37816 12.504 4.5115 12.504 4.60039V11.3853Z"
      fill="currentColor"
    />
  </symbol>

  <symbol viewBox="0 0 24 24" id="size-24">
    <path
      fill-rule="evenodd"
      clip-rule="evenodd"
      d="M18.756 17.5779C18.756 17.7126 18.8227 17.9126 18.956 17.9792H18.9587L20.2307 19.2512V19.3179H13.6693V19.2512L15.0093 17.9792C15.1427 17.8446 15.2093 17.7112 15.2093 17.5112V9.61124C15.2093 9.27524 15.2093 8.80591 15.276 8.40591L10.8547 19.4512H10.788L6.23599 9.27391C6.19147 9.09495 6.14695 9.03549 6.10243 8.97604C6.08029 8.94645 6.05814 8.91687 6.03599 8.87258V15.5699C5.96799 16.0379 6.03599 16.4392 6.23599 16.8419L8.04399 19.2512V19.3179H3.22266V19.2512L5.03066 16.7739C5.23066 16.3726 5.29732 15.9046 5.23066 15.5019V8.13791C5.23066 7.80324 5.16399 7.40058 4.89599 7.13391L3.69199 5.45924V5.39258H8.37732L12.2627 14.0299L15.676 5.39258H20.2293V5.45924L18.956 6.93258C18.8227 7.06725 18.756 7.26724 18.756 7.40058V17.5779Z"
      fill="currentColor"
    />
  </symbol>

  <symbol viewBox="0 0 32 32" id="size-32">
    <path
      fill-rule="evenodd"
      clip-rule="evenodd"
      d="M25.008 22.7705C25.008 22.9501 25.0969 23.2168 25.2747 23.3057H25.2782L26.9742 25.0017V25.0905H18.2258V25.0017L20.0124 23.3057C20.1902 23.1261 20.2791 22.9483 20.2791 22.6817V12.1483C20.2791 11.7003 20.2791 11.0745 20.368 10.5412L14.4729 25.2683H14.384L8.31465 11.6985C8.2553 11.4599 8.19594 11.3807 8.13658 11.3014C8.10705 11.2619 8.07752 11.2225 8.04799 11.1634V20.0932C7.95732 20.7172 8.04799 21.2523 8.31465 21.7892L10.7253 25.0017V25.0905H4.29688V25.0017L6.70754 21.6985C6.97421 21.1634 7.0631 20.5394 6.97421 20.0025V10.1839C6.97421 9.73766 6.88532 9.20077 6.52799 8.84522L4.92265 6.61233V6.52344H11.1698L16.3502 18.0399L20.9013 6.52344H26.9724V6.61233L25.2747 8.57677C25.0969 8.75633 25.008 9.02299 25.008 9.20077V22.7705Z"
      fill="currentColor"
    />
  </symbol>
</svg>
