<svg
  xmlns="http://www.w3.org/2000/svg"
  xmlns:xlink="http://www.w3.org/1999/xlink"
>
  <symbol viewBox="0 0 16 16" id="size-16">
    <path
      d="M8.41016 10.2717L10.8033 12.266H11.1436V7.97918L12.2102 7.08453V12.266C12.2102 12.8551 11.7327 13.3326 11.1436 13.3326H10.8033C10.5538 13.3326 10.3122 13.2452 10.1204 13.0854L7.57965 10.9682L8.41016 10.2717ZM11.1436 5.19486V3.73271H10.8034L7.75172 6.27579C7.65591 6.35562 7.53511 6.39936 7.41028 6.39936H5.27697V9.59936H5.89206L4.77169 10.539C4.43741 10.3589 4.21028 10.0056 4.21028 9.59936V6.39936C4.21028 5.81027 4.68788 5.33267 5.27697 5.33267H7.21725L10.1206 2.91324C10.3123 2.75342 10.5539 2.66602 10.8034 2.66602H11.1437C11.7328 2.66602 12.2103 3.14352 12.2103 3.73262V4.30021L11.1436 5.19486ZM4.07919 13.2081C3.85348 13.3974 3.51713 13.3678 3.32785 13.1422C3.13857 12.9165 3.16803 12.5801 3.39375 12.3908L12.9341 4.38919C13.1598 4.19991 13.4962 4.22937 13.6855 4.45509C13.8748 4.6808 13.8453 5.01714 13.6196 5.20642L4.07919 13.2081Z"
      fill="currentColor"
    />
  </symbol>

  <symbol viewBox="0 0 32 32" id="size-32">
    <path
      d="M16.3125 20.5453L21.0988 24.534H21.7793V15.9603L23.9126 14.171V24.534C23.9126 25.7122 22.9575 26.6672 21.7793 26.6672H21.0988C20.5997 26.6672 20.1165 26.4924 19.7331 26.1727L14.6515 21.9383L16.3125 20.5453ZM21.7795 10.3917V7.46737H21.0989L14.9956 12.5535C14.804 12.7132 14.5624 12.8007 14.3127 12.8007H10.0461V19.2007H11.2763L9.03557 21.08C8.367 20.7198 7.91274 20.0132 7.91274 19.2007V12.8007C7.91274 11.6225 8.86794 10.6673 10.0461 10.6673H13.9267L19.7333 5.82843C20.1167 5.50879 20.5999 5.33398 21.099 5.33398H21.7796C22.9578 5.33398 23.9128 6.289 23.9128 7.4672V8.60237L21.7795 10.3917ZM7.65057 26.4182C7.19914 26.7968 6.52645 26.7376 6.14789 26.2864C5.76932 25.835 5.82825 25.1621 6.27968 24.7835L25.3604 8.78034C25.8118 8.40177 26.4847 8.4607 26.8632 8.91212C27.2418 9.36355 27.1827 10.0362 26.7314 10.4148L7.65057 26.4182Z"
      fill="currentColor"
    />
  </symbol>
</svg>
