<svg
  xmlns="http://www.w3.org/2000/svg"
  xmlns:xlink="http://www.w3.org/1999/xlink"
>
  <symbol viewBox="0 0 16 16" id="size-16">
    <path
      d="M13.7139 2H2.28538C1.67914 2 1.09775 2.25286 0.669183 2.70299C0.240481 3.15299 -0.000335693 3.76345 -0.000335693 4.4V11.6C-0.000335693 12.2365 0.240481 12.847 0.669183 13.297C1.09775 13.7471 1.67914 14 2.28538 14H13.7139C14.3202 14 14.9016 13.7471 15.3301 13.297C15.7588 12.847 15.9997 12.2365 15.9997 11.6V4.4C15.9997 3.76345 15.7588 3.15299 15.3301 2.70299C14.9016 2.25286 14.3202 2 13.7139 2V2ZM14.0054 5.516L9.46826 8.37203C9.02552 8.65436 8.51763 8.80369 7.99963 8.80369C7.48162 8.80369 6.97373 8.65436 6.53099 8.37203L1.99385 5.516C1.84652 5.44609 1.73428 5.3139 1.68505 5.15213C1.63568 4.99048 1.65392 4.81449 1.73517 4.6677C1.81642 4.52092 1.95316 4.41712 2.11134 4.38217C2.26963 4.34708 2.43455 4.38418 2.56528 4.48396L7.13671 7.34602C7.40265 7.51303 7.70686 7.60129 8.01668 7.60129C8.32663 7.60129 8.63072 7.51303 8.89677 7.34602L13.4682 4.48396C13.6415 4.40172 13.8427 4.41538 14.0044 4.52065C14.1662 4.62592 14.2674 4.80886 14.2746 5.00854C14.2816 5.20822 14.1935 5.3984 14.0396 5.516H14.0054Z"
      fill="currentColor"
    />
  </symbol>

  <symbol viewBox="0 0 24 24" id="size-24">
    <path
      d="M19.3865 4.5H5.1008C4.343 4.5 3.61626 4.81607 3.08055 5.37874C2.54467 5.94124 2.24365 6.70431 2.24365 7.5V16.5C2.24365 17.2957 2.54467 18.0588 3.08055 18.6213C3.61626 19.1839 4.343 19.5 5.1008 19.5H19.3865C20.1443 19.5 20.871 19.1839 21.4068 18.6213C21.9426 18.0588 22.2437 17.2957 22.2437 16.5V7.5C22.2437 6.70431 21.9426 5.94124 21.4068 5.37874C20.871 4.81607 20.1443 4.5 19.3865 4.5V4.5ZM19.7508 8.895L14.0794 12.465C13.526 12.8179 12.8911 13.0046 12.2436 13.0046C11.5961 13.0046 10.9612 12.818 10.4078 12.465L4.73638 8.895C4.55223 8.80761 4.41192 8.64238 4.35038 8.44016C4.28868 8.23809 4.31148 8.01811 4.41304 7.83463C4.5146 7.65115 4.68552 7.5214 4.88324 7.47771C5.08111 7.43385 5.28726 7.48022 5.45067 7.60494L11.165 11.1825C11.4974 11.3913 11.8777 11.5016 12.2649 11.5016C12.6524 11.5016 13.0325 11.3913 13.365 11.1825L19.0793 7.60494C19.296 7.50216 19.5474 7.51923 19.7496 7.65081C19.9518 7.7824 20.0784 8.01108 20.0873 8.26067C20.0961 8.51028 19.9859 8.748 19.7936 8.895H19.7508Z"
      fill="currentColor"
    />
  </symbol>

  <symbol viewBox="0 0 32 32" id="size-32">
    <path
      d="M25.0591 7H7.91624C7.00689 7 6.13481 7.37929 5.49195 8.05449C4.8489 8.72949 4.48767 9.64518 4.48767 10.6V21.4C4.48767 22.3548 4.8489 23.2705 5.49195 23.9455C6.13481 24.6207 7.00689 25 7.91624 25H25.0591C25.9685 25 26.8405 24.6207 27.4834 23.9455C28.1264 23.2705 28.4877 22.3548 28.4877 21.4V10.6C28.4877 9.64518 28.1264 8.72949 27.4834 8.05449C26.8405 7.37929 25.9685 7 25.0591 7V7ZM25.4963 12.274L18.6906 16.5581C18.0265 16.9815 17.2646 17.2055 16.4876 17.2055C15.7106 17.2055 14.9488 16.9815 14.2847 16.5581L7.47894 12.274C7.25796 12.1691 7.08959 11.9709 7.01574 11.7282C6.9417 11.4857 6.96906 11.2217 7.09094 11.0016C7.21281 10.7814 7.41791 10.6257 7.65518 10.5733C7.89262 10.5206 8.14 10.5763 8.3361 10.7259L15.1932 15.019C15.5922 15.2695 16.0485 15.4019 16.5132 15.4019C16.9781 15.4019 17.4343 15.2695 17.8333 15.019L24.6905 10.7259C24.9505 10.6026 25.2522 10.6231 25.4948 10.781C25.7374 10.9389 25.8893 11.2133 25.9 11.5128C25.9106 11.8123 25.7784 12.0976 25.5476 12.274H25.4963Z"
      fill="currentColor"
    />
  </symbol>
</svg>
