<svg
  xmlns="http://www.w3.org/2000/svg"
  xmlns:xlink="http://www.w3.org/1999/xlink"
  viewBox="0 0 24 24"
>
  <circle cx="12" cy="12" r="12" fill="#fff" />
  <path
    fill-rule="evenodd"
    clip-rule="evenodd"
    d="M5.97691 5.46613L5.37973 18.1163L2.54205 19.386C0.949562 17.3497 0 14.7856 0 12.0004C0 5.37296 5.37296 0 12.0004 0C14.8059 0 17.3861 0.96227 19.4292 2.57509L15.625 4.25059L15.2599 14.141L9.82854 5.46613H5.97691ZM18.6957 5.82832L21.4469 4.59753V4.59668C23.047 6.63557 24.0017 9.20643 24.0017 11.9992C24.0017 18.6267 18.6287 23.9996 12.0013 23.9996C9.18816 23.9996 6.60121 23.0306 4.55469 21.4093L8.45036 19.694L8.81544 9.80361L14.2401 18.4666L14.2477 18.4784H18.0985L18.6957 5.82832Z"
    fill="#00b1b1"
  />
</svg>
