<svg
  xmlns="http://www.w3.org/2000/svg"
  xmlns:xlink="http://www.w3.org/1999/xlink"
>
  <symbol viewBox="0 0 16 16" id="size-16">
    <path
      fill-rule="evenodd"
      clip-rule="evenodd"
      d="M11 3.25H5C4.58579 3.25 4.25 3.58579 4.25 4C4.25 4.41421 4.58579 4.75 5 4.75H9.18934L4.46967 9.46967C4.17678 9.76256 4.17678 10.2374 4.46967 10.5303C4.76256 10.8232 5.23744 10.8232 5.53033 10.5303L10.25 5.81066V10C10.25 10.4142 10.5858 10.75 11 10.75C11.4142 10.75 11.75 10.4142 11.75 10V4.0006C11.75 3.99809 11.75 3.99558 11.75 3.99308C11.7491 3.89769 11.7301 3.80244 11.6931 3.71291C11.6565 3.62445 11.6022 3.54158 11.5303 3.46967C11.4584 3.39776 11.3755 3.34351 11.2871 3.30691C11.4704 3.38293 11.6171 3.52958 11.6931 3.71291"
      fill="currentColor"
    />
  </symbol>

  <symbol viewBox="0 0 24 24" id="size-24">
    <path
      fill-rule="evenodd"
      clip-rule="evenodd"
      d="M17.1931 5.71291C17.1573 5.62646 17.1047 5.54535 17.0352 5.47459C17.032 5.47129 17.0287 5.46803 17.0254 5.4648C16.8901 5.33194 16.7046 5.25 16.5 5.25H7.5C7.08579 5.25 6.75 5.58579 6.75 6C6.75 6.41421 7.08579 6.75 7.5 6.75H14.6893L6.96967 14.4697C6.67678 14.7626 6.67678 15.2374 6.96967 15.5303C7.26256 15.8232 7.73744 15.8232 8.03033 15.5303L15.75 7.81066V15C15.75 15.4142 16.0858 15.75 16.5 15.75C16.9142 15.75 17.25 15.4142 17.25 15V6C17.25 5.89831 17.2298 5.80134 17.1931 5.71291Z"
      fill="currentColor"
    />
  </symbol>

  <symbol viewBox="0 0 32 32" id="size-32">
    <path
      fill-rule="evenodd"
      clip-rule="evenodd"
      d="M22 7.25H10C9.58579 7.25 9.25 7.58579 9.25 8C9.25 8.41421 9.58579 8.75 10 8.75H20.1893L9.46967 19.4697C9.17678 19.7626 9.17678 20.2374 9.46967 20.5303C9.76256 20.8232 10.2374 20.8232 10.5303 20.5303L21.25 9.81066V20C21.25 20.4142 21.5858 20.75 22 20.75C22.4142 20.75 22.75 20.4142 22.75 20V8.00104C22.75 7.99838 22.75 7.99573 22.75 7.99308C22.75 7.99538 22.75 7.99769 22.75 8"
      fill="currentColor"
    />
  </symbol>
</svg>
