<svg
  xmlns="http://www.w3.org/2000/svg"
  xmlns:xlink="http://www.w3.org/1999/xlink"
>
  <symbol viewBox="0 0 16 16" id="size-16">
    <path
      d="M6.34409 5.10886C6.00492 5.10886 5.74551 5.36826 5.74551 5.70745V10.6929C5.74551 11.0321 6.0049 11.2915 6.34409 11.2915C6.66336 11.2716 6.92261 11.0122 6.94268 10.6929V5.70745C6.92277 5.38819 6.66338 5.1288 6.34409 5.10886Z"
      fill="currentColor"
    />
    <path
      d="M9.65596 5.10886C9.3367 5.12877 9.07745 5.38817 9.05737 5.70745V10.6929C9.07728 11.0122 9.33668 11.2714 9.65596 11.2915C9.99513 11.2915 10.2545 11.0321 10.2545 10.6929V5.70745C10.2544 5.36827 9.99515 5.10886 9.65596 5.10886Z"
      fill="currentColor"
    />
    <path
      d="M8 0C3.59082 0 0 3.59117 0 8C0 12.4088 3.59117 16 8 16C12.4092 16 16 12.4088 16 8C15.98 3.59082 12.4088 0.0199005 8 0ZM8 14.8032C4.24928 14.8032 1.19682 11.7507 1.19682 8C1.19682 4.24928 4.24914 1.19682 8 1.19682C11.7509 1.19682 14.8032 4.24914 14.8032 8C14.8032 11.7509 11.7509 14.8032 8 14.8032Z"
      fill="currentColor"
    />
  </symbol>

  <symbol viewBox="0 0 24 24" id="size-24">
    <path
      d="M9.51614 7.66329C9.00738 7.66329 8.61826 8.05239 8.61826 8.56117V16.0394C8.61826 16.5481 9.00735 16.9372 9.51614 16.9372C9.99504 16.9074 10.3839 16.5183 10.414 16.0394V8.56117C10.3842 8.08228 9.99506 7.6932 9.51614 7.66329Z"
      fill="currentColor"
    />
    <path
      d="M14.4839 7.66329C14.005 7.69316 13.6162 8.08225 13.5861 8.56117V16.0394C13.6159 16.5183 14.005 16.9071 14.4839 16.9372C14.9927 16.9372 15.3818 16.5481 15.3818 16.0394V8.56117C15.3816 8.05241 14.9927 7.66329 14.4839 7.66329Z"
      fill="currentColor"
    />
    <path
      d="M12 0C5.38623 0 0 5.38675 0 12C0 18.6133 5.38675 24 12 24C18.6138 24 24 18.6133 24 12C23.9699 5.38623 18.6133 0.0298507 12 0ZM12 22.2048C6.37392 22.2048 1.79523 17.6261 1.79523 12C1.79523 6.37392 6.37371 1.79523 12 1.79523C17.6263 1.79523 22.2048 6.37371 22.2048 12C22.2048 17.6263 17.6263 22.2048 12 22.2048Z"
      fill="currentColor"
    />
  </symbol>

  <symbol viewBox="0 0 32 32" id="size-32">
    <path
      d="M12.6882 10.2177C12.0098 10.2177 11.491 10.7365 11.491 11.4149V21.3858C11.491 22.0642 12.0098 22.583 12.6882 22.583C13.3267 22.5432 13.8452 22.0244 13.8854 21.3858V11.4149C13.8455 10.7764 13.3268 10.2576 12.6882 10.2177Z"
      fill="currentColor"
    />
    <path
      d="M19.3119 10.2177C18.6734 10.2575 18.1549 10.7763 18.1147 11.4149V21.3858C18.1546 22.0243 18.6734 22.5428 19.3119 22.583C19.9903 22.583 20.5091 22.0642 20.5091 21.3858V11.4149C20.5088 10.7365 19.9903 10.2177 19.3119 10.2177Z"
      fill="currentColor"
    />
    <path
      d="M16 0C7.18164 0 0 7.18233 0 16C0 24.8177 7.18233 32 16 32C24.8184 32 32 24.8177 32 16C31.9599 7.18164 24.8177 0.039801 16 0ZM16 29.6064C8.49856 29.6064 2.39365 23.5014 2.39365 16C2.39365 8.49856 8.49828 2.39365 16 2.39365C23.5017 2.39365 29.6064 8.49828 29.6064 16C29.6064 23.5017 23.5017 29.6064 16 29.6064Z"
      fill="currentColor"
    />
  </symbol>
</svg>
