<svg
  viewBox="0 0 109 22"
  xmlns="http://www.w3.org/2000/svg"
  xmlns:xlink="http://www.w3.org/1999/xlink"
>
  <path
    d="M14.5311 2.73222C14.4343 4.00662 14.2346 5.27484 13.9052 6.51423C13.5779 7.75157 13.1208 8.96008 12.5176 10.0924C12.2149 10.6586 11.8773 11.2062 11.5005 11.725C11.1238 12.2439 10.71 12.7359 10.2632 13.193C10.115 13.3453 9.96056 13.4935 9.80615 13.6377C9.85556 13.65 9.90497 13.6603 9.95644 13.6706L10.4608 13.7715C10.7964 13.8353 11.132 13.9115 11.4717 13.9609C12.3426 14.1153 13.2196 14.2306 14.1029 14.3191C14.2099 14.2491 14.317 14.1771 14.422 14.1029C14.9737 13.7138 15.5131 13.3041 16.0052 12.843C16.4972 12.3859 16.9543 11.9 17.3558 11.3668C17.751 10.8315 18.0969 10.2592 18.3749 9.64978C19.149 7.95745 19.359 6.00983 19.0913 4.10338C17.926 2.61899 16.3758 1.45165 14.5929 0.749603C14.5929 0.77225 14.5929 0.792838 14.5929 0.815485C14.599 1.45783 14.5784 2.09606 14.5311 2.73428V2.73222Z"
    fill="currentColor"
  />
  <path
    d="M4.47582 16.1657C4.61582 16.1081 4.75788 16.0546 4.89787 15.9928L5.31169 15.8034C5.85727 15.5399 6.39256 15.2578 6.89902 14.9284C7.22225 14.7184 7.53725 14.4961 7.84195 14.2614L7.18725 14.1152L6.92991 14.0575L6.67462 13.9896L6.16403 13.8537C5.82227 13.7631 5.48051 13.6767 5.14493 13.5655L4.132 13.2484L3.13349 12.8881C2.96672 12.8264 2.79996 12.7687 2.63526 12.7049L2.14526 12.5011C1.81792 12.3631 1.48851 12.2314 1.16528 12.0873L0.201762 11.6302L0 11.5334C0.152351 13.549 0.864694 15.4081 1.9785 16.9563C2.53438 16.8225 3.08408 16.6681 3.62554 16.4869C3.91171 16.3819 4.202 16.2872 4.482 16.1678L4.47582 16.1657Z"
    fill="currentColor"
  />
  <path
    d="M0.44885 10.0428C0.520908 10.0881 0.595025 10.1292 0.669141 10.1684L0.891491 10.2898L1.78501 10.7757C2.08559 10.9322 2.39441 11.0722 2.69911 11.2204L3.15822 11.4407C3.31263 11.5107 3.47116 11.5745 3.62557 11.6425L4.56438 12.0398L5.52172 12.396C5.83878 12.5216 6.16407 12.6204 6.48936 12.7274L6.97523 12.886L7.21817 12.9642L7.46523 13.0342L8.45345 13.3101C8.57697 13.343 8.70256 13.3718 8.82609 13.4007C9.09579 13.1392 9.35726 12.8674 9.60225 12.5833C9.99137 12.1325 10.3475 11.6548 10.6667 11.1545C10.9858 10.6542 11.2678 10.1292 11.5149 9.58984C12.009 8.51103 12.3631 7.3684 12.5978 6.20312C12.8346 5.03784 12.9478 3.8458 12.9663 2.65582C12.9746 2.06082 12.9581 1.46377 12.9169 0.872899C12.9025 0.656725 12.8819 0.440552 12.8593 0.226437C12.151 0.0782037 11.4161 -3.05176e-05 10.6625 -3.05176e-05C5.07085 0.00408707 0.477673 4.29873 0.00415039 9.77307C0.00826798 9.77513 0.0123856 9.77719 0.0165032 9.78131L0.450909 10.0448L0.44885 10.0428Z"
    fill="currentColor"
  />
  <path
    d="M10.2978 14.704L9.77489 14.6278C9.59989 14.6031 9.42901 14.566 9.25607 14.5372C9.11607 14.5105 8.97401 14.4857 8.83402 14.461C8.32549 14.844 7.79227 15.1919 7.24051 15.5007C6.69081 15.8137 6.11435 16.0751 5.53377 16.3119L5.09319 16.4807C4.94701 16.5363 4.79672 16.5816 4.64849 16.6331C4.35408 16.7381 4.04938 16.8163 3.75085 16.9069C3.23821 17.0448 2.72145 17.1601 2.20264 17.2548C2.29528 17.3763 2.39205 17.4936 2.49087 17.611C2.61234 17.6048 2.73381 17.5986 2.85322 17.5925C3.19498 17.5698 3.53468 17.5451 3.87644 17.5163C4.04732 17.5039 4.21614 17.4854 4.38702 17.4669C4.5579 17.4504 4.72672 17.436 4.89554 17.4134C7.60697 17.1107 10.2855 16.3984 12.686 15.1425C12.7787 15.0952 12.8693 15.0437 12.9598 14.9943C12.4204 14.9552 11.881 14.9037 11.3437 14.8378C10.9937 14.8049 10.6478 14.7472 10.2978 14.6999V14.704Z"
    fill="currentColor"
  />
  <path
    d="M15.54 15.1057C15.5132 15.1057 15.4865 15.1057 15.4597 15.1057C15.3959 15.1572 15.3321 15.2087 15.2682 15.2581C14.6835 15.7131 14.068 16.1207 13.4297 16.4913C13.1127 16.6807 12.7853 16.8475 12.458 17.0204C12.1265 17.1789 11.7971 17.3457 11.4574 17.4877C11.1218 17.6401 10.778 17.7677 10.4362 17.9016C10.0904 18.0251 9.74449 18.1507 9.39449 18.2598C8.69656 18.4821 7.98627 18.6736 7.26981 18.826C6.55335 18.9783 5.83277 19.1142 5.10808 19.1965C4.82396 19.2315 4.53985 19.2583 4.25574 19.283C6.04277 20.6233 8.26215 21.4159 10.6689 21.4159C15.1056 21.4159 18.9102 18.7168 20.5346 14.8731C20.267 14.9019 19.9993 14.9287 19.7296 14.9513C18.34 15.0707 16.942 15.1243 15.5421 15.1098L15.54 15.1057Z"
    fill="currentColor"
  />
  <path
    d="M19.849 7.87307C19.7584 8.606 19.5834 9.33481 19.3281 10.0348C19.0728 10.7369 18.7372 11.4121 18.3296 12.0401C17.9199 12.6659 17.4422 13.2486 16.9255 13.7818C16.6969 14.0227 16.4561 14.2512 16.2111 14.4715C17.3722 14.5292 18.5396 14.5394 19.7048 14.5003C20.0363 14.49 20.3678 14.4736 20.6992 14.455C21.1357 13.2877 21.3745 12.0257 21.3745 10.706C21.3745 8.66365 20.8022 6.7572 19.8119 5.13281C19.8387 5.31193 19.8592 5.49104 19.8737 5.67222C19.9416 6.39897 19.9395 7.13808 19.8531 7.87101L19.849 7.87307Z"
    fill="currentColor"
  />
  <path
    d="M29.1002 14.4394V7.00925H31.9517C32.8534 7.00925 33.5534 7.2563 34.0372 7.74218C34.5231 8.22805 34.7701 8.81275 34.7701 9.50039C34.7701 10.2333 34.5107 10.8304 34.0043 11.3162C33.4978 11.8001 32.8431 12.0368 32.0319 12.0368H30.7925V14.4374H29.1023L29.1002 14.4394ZM30.7802 8.26099V10.7871H31.6593C32.6846 10.7871 33.0902 10.2127 33.0902 9.53539C33.0902 8.8251 32.6043 8.26099 31.6696 8.26099H30.7781H30.7802Z"
    fill="currentColor"
  />
  <path
    d="M36.4421 6.99899H38.1221V13.1445H41.5603V14.4415H36.4421V6.99899V6.99899Z"
    fill="currentColor"
  />
  <path
    d="M48.0204 14.4397L47.5139 13.2662H44.6604L44.1416 14.4397H42.4719L46.0007 6.86333H46.2478L49.7209 14.4397H48.0183H48.0204ZM46.081 10.0545L45.1669 12.1174H47.0157L46.1242 10.0545H46.0789H46.081Z"
    fill="currentColor"
  />
  <path
    d="M52.8131 14.4395H51.1455V6.8508H51.3926C51.9217 7.36962 52.6999 8.09019 53.7272 9.02695C54.7525 9.95135 55.5307 10.6616 56.0393 11.1578H56.0846V6.99697H57.7542V14.563H57.5175L52.8502 10.1428H52.8173V14.4395H52.8131Z"
    fill="currentColor"
  />
  <path
    d="M65.2053 13.1424V14.4395H59.9513V6.99899H64.9912V8.29603H61.6313V9.94307H64.6412V11.1948H61.6313V13.1445H65.2053V13.1424Z"
    fill="currentColor"
  />
  <path
    d="M72.4441 8.28368H70.2803V14.4395H68.6003V8.28368H66.4242V6.98663H72.4441V8.28368V8.28368Z"
    fill="currentColor"
  />
  <path
    d="M77.6874 14.4397L77.1809 13.2662H74.3274L73.8086 14.4397H72.1389L75.6677 6.86333H75.9147L79.3879 14.4397H77.6853H77.6874ZM75.748 10.0545L74.8339 12.1174H76.6827L75.7912 10.0545H75.7459H75.748Z"
    fill="currentColor"
  />
  <path
    d="M83.924 7.00925C84.6899 7.00925 85.3446 7.22336 85.8737 7.66394C86.4151 8.09217 86.6849 8.68922 86.6849 9.4448C86.6849 10.3013 86.199 11.238 85.1963 11.6992L87.1584 14.4394H85.2416L83.2796 11.4068V11.2483C84.4531 11.1124 85.0275 10.4145 85.0275 9.68156C85.0275 8.8251 84.4758 8.28364 83.6069 8.28364H82.592V14.4394H80.912V7.00925H83.9219H83.924Z"
    fill="currentColor"
  />
  <path
    d="M90.487 14.4395H88.807V6.99899H90.487V14.4395Z"
    fill="currentColor"
  />
  <path
    d="M97.4663 6.99899H99.134V11.4872C99.134 12.4013 98.8643 13.1445 98.3105 13.7189C97.7587 14.283 96.9681 14.5651 95.9428 14.5651C93.8346 14.5651 92.7517 13.3813 92.7517 11.5201V6.99899H94.4317V11.5098C94.4317 12.4466 94.9608 13.1898 95.9531 13.1898C96.9455 13.1898 97.4643 12.4795 97.4643 11.5654V6.99899H97.4663Z"
    fill="currentColor"
  />
  <path
    d="M105.304 13.0642H105.055L102.98 10.7975C102.97 10.8078 102.957 10.8078 102.947 10.8078V14.4374H101.335V6.87341H101.582L105.179 11.0342L108.763 6.87341H109V14.4395H107.375V10.8098C107.365 10.7995 107.353 10.7995 107.33 10.7995L105.3 13.0663L105.304 13.0642Z"
    fill="currentColor"
  />
</svg>
