<svg
  xmlns="http://www.w3.org/2000/svg"
  xmlns:xlink="http://www.w3.org/1999/xlink"
>
  <symbol viewBox="0 0 16 16" id="size-16">
    <path
      d="M6.85348 4.82245L11.0068 7.56737L11.0066 7.56689C11.1612 7.65626 11.2565 7.82143 11.2565 8.00007C11.2565 8.17872 11.1612 8.34387 11.0066 8.43324L6.8535 11.1778C6.69874 11.2668 6.50832 11.2667 6.35366 11.1774C6.19901 11.0881 6.10363 10.9232 6.10352 10.7445V5.25575C6.10352 5.1381 6.14493 5.02427 6.22046 4.9342C6.29599 4.84413 6.40082 4.78358 6.51661 4.76317C6.6324 4.74264 6.75176 4.76375 6.85348 4.82245Z"
      fill="currentColor"
    />
    <path
      d="M8 0C3.59082 0 0 3.59117 0 8C0 12.4088 3.59117 16 8 16C12.4092 16 16 12.4088 16 8C15.98 3.59082 12.4088 0.0199005 8 0ZM8 14.8032C4.24928 14.8032 1.19682 11.7507 1.19682 8C1.19682 4.24928 4.24914 1.19682 8 1.19682C11.7509 1.19682 14.8032 4.24914 14.8032 8C14.8032 11.7509 11.7509 14.8032 8 14.8032Z"
      fill="currentColor"
    />
  </symbol>

  <symbol viewBox="0 0 24 24" id="size-24">
    <path
      d="M10.2802 7.23367L16.5102 11.3511L16.5098 11.3503C16.7418 11.4844 16.8847 11.7321 16.8847 12.0001C16.8847 12.2681 16.7418 12.5158 16.5098 12.6499L10.2803 16.7667C10.0481 16.9003 9.76248 16.9001 9.5305 16.766C9.29851 16.6322 9.15545 16.3848 9.15527 16.1168V7.88362C9.15527 7.70715 9.21739 7.53641 9.33069 7.4013C9.44398 7.2662 9.60123 7.17538 9.77492 7.14476C9.94859 7.11396 10.1276 7.14562 10.2802 7.23367Z"
      fill="currentColor"
    />
    <path
      d="M12 0C5.38623 0 0 5.38675 0 12C0 18.6133 5.38675 24 12 24C18.6138 24 24 18.6133 24 12C23.9699 5.38623 18.6133 0.0298507 12 0ZM12 22.2048C6.37392 22.2048 1.79523 17.6261 1.79523 12C1.79523 6.37392 6.37371 1.79523 12 1.79523C17.6263 1.79523 22.2048 6.37371 22.2048 12C22.2048 17.6263 17.6263 22.2048 12 22.2048Z"
      fill="currentColor"
    />
  </symbol>

  <symbol viewBox="0 0 32 32" id="size-32">
    <path
      d="M13.707 9.6449L22.0137 15.1347L22.0131 15.1338C22.3224 15.3125 22.5129 15.6429 22.5129 16.0001C22.5129 16.3574 22.3224 16.6877 22.0131 16.8665L13.707 22.3556C13.3975 22.5337 13.0166 22.5335 12.7073 22.3547C12.398 22.1762 12.2073 21.8464 12.207 21.4891V10.5115C12.207 10.2762 12.2899 10.0485 12.4409 9.86841C12.592 9.68826 12.8016 9.56717 13.0332 9.52634C13.2648 9.48529 13.5035 9.52749 13.707 9.6449Z"
      fill="currentColor"
    />
    <path
      d="M16 0C7.18164 0 0 7.18233 0 16C0 24.8177 7.18233 32 16 32C24.8184 32 32 24.8177 32 16C31.9599 7.18164 24.8177 0.039801 16 0ZM16 29.6064C8.49856 29.6064 2.39365 23.5014 2.39365 16C2.39365 8.49856 8.49828 2.39365 16 2.39365C23.5017 2.39365 29.6064 8.49828 29.6064 16C29.6064 23.5017 23.5017 29.6064 16 29.6064Z"
      fill="currentColor"
    />
  </symbol>
</svg>
