<svg
  xmlns="http://www.w3.org/2000/svg"
  xmlns:xlink="http://www.w3.org/1999/xlink"
>
  <symbol viewBox="0 0 16 16" id="size-16">
    <rect width="16" height="16" rx="8" fill="#fff" fill-opacity="0.05" />
    <path
      d="M8 4C9.07494 4 10.0834 4.4265 10.8284 5.17159C10.9629 5.30597 11.0873 5.44949 11.201 5.60101L11.2 4.80001C11.2 4.59488 11.3544 4.4258 11.5534 4.4027L11.6 4.40002C11.8051 4.40002 11.9742 4.55443 11.9973 4.75336L12 4.80001V6.8C12 7.00513 11.8456 7.17421 11.6467 7.19731L11.6 7.19999H9.60001C9.37909 7.19999 9.20002 7.02092 9.20002 6.79999C9.20002 6.59487 9.35443 6.42578 9.55336 6.40268L9.60001 6.4L10.772 6.40011C10.6322 6.15843 10.461 5.9355 10.2627 5.73729C9.66625 5.14075 8.86063 4.80002 8.00003 4.80002C6.23275 4.80002 4.80004 6.23273 4.80004 8.00001C4.80004 9.76728 6.23275 11.2 8.00003 11.2C8.86063 11.2 9.66631 10.8592 10.2627 10.2627C10.5599 9.96557 10.7964 9.61284 10.9574 9.22479C11.0374 9.03182 11.0983 8.83109 11.1391 8.62496C11.182 8.40822 11.3924 8.26732 11.6091 8.31018C11.8258 8.35303 11.9667 8.56346 11.9239 8.7802C11.8728 9.03829 11.7965 9.28963 11.6964 9.5312C11.4951 10.0166 11.1996 10.4573 10.8284 10.8284C10.0834 11.5735 9.07498 12 7.99999 12C5.79085 12 4 10.2092 4 8.00002C4 5.79089 5.79085 4.00004 7.99999 4.00004L8 4Z"
      fill="#fff"
    />
  </symbol>

  <symbol viewBox="0 0 24 24" id="size-24">
    <rect width="24" height="24" rx="12" fill="#fff" fill-opacity="0.05" />
    <path
      d="M12 6C13.6124 6 15.1251 6.63975 16.2426 7.75739C16.4443 7.95895 16.631 8.17424 16.8015 8.40151L16.8 7.20002C16.8 6.89232 17.0316 6.6387 17.33 6.60405L17.4 6.60003C17.7077 6.60003 17.9613 6.83165 17.996 7.13004L18 7.20002V10.2C18 10.5077 17.7684 10.7613 17.47 10.796L17.4 10.8H14.4C14.0686 10.8 13.8 10.5314 13.8 10.2C13.8 9.8923 14.0316 9.63867 14.33 9.60402L14.4 9.6L16.1581 9.60017C15.9483 9.23765 15.6915 8.90325 15.3941 8.60593C14.4994 7.71112 13.2909 7.20003 12 7.20003C9.34912 7.20003 7.20006 9.34909 7.20006 12C7.20006 14.6509 9.34912 16.8 12 16.8C13.2909 16.8 14.4995 16.2889 15.3941 15.3941C15.8399 14.9484 16.1946 14.4193 16.4361 13.8372C16.5561 13.5477 16.6475 13.2466 16.7086 12.9374C16.773 12.6123 17.0886 12.401 17.4137 12.4653C17.7388 12.5295 17.9501 12.8452 17.8858 13.1703C17.8092 13.5574 17.6948 13.9344 17.5446 14.2968C17.2426 15.0249 16.7993 15.686 16.2426 16.2426C15.1251 17.3602 13.6125 18 12 18C8.68628 18 6 15.3137 6 12C6 8.68633 8.6863 6 12 6Z"
      fill="#fff"
    />
  </symbol>

  <symbol viewBox="0 0 32 32" id="size-32">
    <rect width="32" height="32" rx="16" fill="#fff" fill-opacity="0.05" />
    <path
      d="M16 9C17.8811 9 19.646 9.74637 20.9497 11.0503C21.185 11.2854 21.4029 11.5366 21.6018 11.8018L21.6 10.4C21.6 10.041 21.8703 9.74515 22.2184 9.70472L22.3 9.70003C22.659 9.70003 22.9549 9.97026 22.9953 10.3184L23 10.4V13.9C23 14.259 22.7298 14.5549 22.3817 14.5953L22.3 14.6H18.8C18.4134 14.6 18.1 14.2866 18.1 13.9C18.1 13.541 18.3703 13.2451 18.7184 13.2047L18.8 13.2L20.8511 13.2002C20.6064 12.7773 20.3068 12.3871 19.9598 12.0403C18.9159 10.9963 17.5061 10.4 16.0001 10.4C12.9073 10.4 10.4001 12.9073 10.4001 16C10.4001 19.0927 12.9073 21.6 16.0001 21.6C17.5061 21.6 18.916 21.0037 19.9598 19.9598C20.4799 19.4397 20.8938 18.8225 21.1754 18.1434C21.3154 17.8057 21.4221 17.4544 21.4934 17.0937C21.5685 16.7144 21.9367 16.4678 22.3159 16.5428C22.6952 16.6178 22.9418 16.9861 22.8668 17.3654C22.7774 17.817 22.6439 18.2568 22.4687 18.6796C22.1164 19.529 21.5992 20.3003 20.9497 20.9497C19.6459 22.2536 17.8812 23 16 23C12.134 23 9 19.866 9 16C9 12.1341 12.134 9.00007 16 9.00007L16 9Z"
      fill="#fff"
    />
  </symbol>
</svg>
