<svg
  xmlns="http://www.w3.org/2000/svg"
  xmlns:xlink="http://www.w3.org/1999/xlink"
>
  <symbol viewBox="0 0 24 24" id="size-24">
    <path
      fill-rule="evenodd"
      clip-rule="evenodd"
      d="M20.6959 0.148438H3.30389C1.48674 0.148438 0 1.63524 0 3.45232V20.8443C0 22.6614 1.48681 24.1482 3.30389 24.1482H20.6959C22.5127 24.1482 23.9997 22.6614 23.9997 20.8443L24 3.45232C24 1.63492 22.5127 0.148438 20.6959 0.148438ZM16.7238 19.4179L11.9997 17.0779L7.27565 19.4179L8.04135 14.2019L4.35612 10.4322L9.5532 9.54922L11.9997 4.87888L14.4463 9.54922L19.6431 10.4322L15.9576 14.2022L16.7238 19.4179Z"
      fill="currentColor"
    />
  </symbol>

  <symbol viewBox="0 0 32 32" id="size-32">
    <path
      fill-rule="evenodd"
      clip-rule="evenodd"
      d="M27.5945 0.148438H4.40518C1.98232 0.148438 0 2.13085 0 4.55362V27.7429C0 30.1658 1.98241 32.1481 4.40518 32.1481H27.5945C30.017 32.1481 31.9997 30.1657 31.9997 27.7429L32 4.55362C32 2.13041 30.0169 0.148438 27.5945 0.148438ZM22.2984 25.8411L15.9997 22.7211L9.70087 25.8411L10.7218 18.8864L5.80816 13.8601L12.7376 12.6828L15.9997 6.4557L19.2617 12.6828L26.1908 13.8601L21.2768 18.8868L22.2984 25.8411Z"
      fill="currentColor"
    />
  </symbol>

  <symbol viewBox="0 0 16 16" id="size-16">
    <path
      fill-rule="evenodd"
      clip-rule="evenodd"
      d="M14.1099 0.148438H2.51511C1.30367 0.148438 0.3125 1.13965 0.3125 2.35105V13.9458C0.3125 15.1573 1.30372 16.1484 2.51511 16.1484H14.1099C15.3212 16.1484 16.3125 15.1572 16.3125 13.9458L16.3127 2.35105C16.3127 1.13943 15.3211 0.148438 14.1099 0.148438ZM11.4618 12.9949L8.31241 11.4349L5.16299 12.9949L5.67345 9.51752L3.21661 7.00434L6.68136 6.41569L8.31241 3.3021L9.94346 6.41569L13.408 7.00434L10.951 9.5177L11.4618 12.9949Z"
      fill="currentColor"
    />
  </symbol>
</svg>
