<svg
  xmlns="http://www.w3.org/2000/svg"
  xmlns:xlink="http://www.w3.org/1999/xlink"
>
  <symbol viewBox="0 0 16 16" id="size-16">
    <path
      fill-rule="evenodd"
      clip-rule="evenodd"
      d="M14.957 2.60938C14.957 2.33323 14.7332 2.10938 14.457 2.10938C14.1809 2.10938 13.957 2.33323 13.957 2.60937V13.3906C13.957 13.6668 14.1809 13.8906 14.457 13.8906C14.7332 13.8906 14.957 13.6668 14.957 13.3906V2.60938ZM7.13421 3.14283C7.3496 2.92743 7.69883 2.92743 7.91423 3.14283L12.3267 7.55533C12.5421 7.77073 12.5421 8.11996 12.3267 8.33536L7.91423 12.7479C7.69883 12.9633 7.3496 12.9633 7.13421 12.7479C6.91881 12.5325 6.91881 12.1832 7.13421 11.9678L10.6567 8.44531H2.69141C2.41526 8.44531 2.19141 8.22146 2.19141 7.94531C2.19141 7.66917 2.41526 7.44531 2.69141 7.44531H10.6567L7.13421 3.92286C6.91881 3.70746 6.91881 3.35823 7.13421 3.14283Z"
      fill="currentColor"
    />
  </symbol>

  <symbol viewBox="0 0 24 24" id="size-24">
    <path
      fill-rule="evenodd"
      clip-rule="evenodd"
      d="M21.5742 3.91406C21.5742 3.49985 21.2384 3.16406 20.8242 3.16406C20.41 3.16406 20.0742 3.49985 20.0742 3.91406V20.0859C20.0742 20.5002 20.41 20.8359 20.8242 20.8359C21.2384 20.8359 21.5742 20.5002 21.5742 20.0859V3.91406ZM9.83998 4.71425C10.1631 4.39115 10.6869 4.39115 11.01 4.71425L17.6288 11.333C17.9519 11.6561 17.9519 12.1799 17.6288 12.503L11.01 19.1218C10.6869 19.4449 10.1631 19.4449 9.83998 19.1218C9.51688 18.7987 9.51688 18.2748 9.83998 17.9517L15.1238 12.668H3.17578C2.76157 12.668 2.42578 12.3322 2.42578 11.918C2.42578 11.5038 2.76157 11.168 3.17578 11.168H15.1237L9.83998 5.88429C9.51688 5.56119 9.51688 5.03735 9.83998 4.71425Z"
      fill="currentColor"
    />
  </symbol>

  <symbol viewBox="0 0 32 32" id="size-32">
    <path
      fill-rule="evenodd"
      clip-rule="evenodd"
      d="M28.7656 5.21875C28.7656 4.66647 28.3179 4.21875 27.7656 4.21875C27.2133 4.21875 26.7656 4.66647 26.7656 5.21875L26.7656 26.7812C26.7656 27.3335 27.2133 27.7812 27.7656 27.7812C28.3179 27.7812 28.7656 27.3335 28.7656 26.7812L28.7656 5.21875ZM13.12 6.2855C13.5508 5.8547 14.2492 5.8547 14.68 6.2855L23.505 15.1105C23.9358 15.5413 23.9358 16.2398 23.505 16.6706L14.68 25.4956C14.2492 25.9264 13.5508 25.9264 13.12 25.4956C12.6892 25.0648 12.6892 24.3663 13.12 23.9355L20.1648 16.8906H4.23438C3.68209 16.8906 3.23438 16.4429 3.23438 15.8906C3.23438 15.3383 3.68209 14.8906 4.23438 14.8906H20.165L13.12 7.84555C12.6892 7.41476 12.6892 6.7163 13.12 6.2855Z"
      fill="currentColor"
    />
  </symbol>
</svg>
