<svg
  xmlns="http://www.w3.org/2000/svg"
  xmlns:xlink="http://www.w3.org/1999/xlink"
>
  <symbol viewBox="0 0 16 16" id="size-16">
    <path
      d="M7.57905 14.0019L8.07969 14.275C8.17072 14.366 8.21623 14.366 8.30726 14.366C8.39828 14.366 8.4438 14.366 8.53482 14.3205L9.03547 14.0474C11.7662 12.4545 13.7688 11.3167 13.7688 7.58461V3.89806C13.7688 3.71601 13.6323 3.53396 13.4502 3.48844L8.4438 1.66792C8.35277 1.62241 8.21623 1.62241 8.12521 1.66792L3.11878 3.48844C2.98224 3.53396 2.8457 3.71601 2.8457 3.89806V7.5391C2.8457 11.3167 4.84827 12.4545 7.57905 14.0019ZM5.94058 7.67563C6.12264 7.49358 6.39571 7.49358 6.57777 7.67563L7.62456 8.72243L10.0368 6.31025C10.2188 6.12819 10.4919 6.12819 10.6739 6.31025C10.856 6.4923 10.856 6.76538 10.6739 6.94743L7.94315 9.6782C7.85213 9.76923 7.7611 9.81474 7.62456 9.81474C7.48803 9.81474 7.397 9.76923 7.30597 9.6782L5.94058 8.31282C5.75853 8.13076 5.75853 7.85769 5.94058 7.67563Z"
      fill="#fff"
    />
  </symbol>

  <symbol viewBox="0 0 24 24" id="size-24">
    <path
      d="M11.4076 21.0034L12.1586 21.413C12.2951 21.5495 12.3634 21.5495 12.5 21.5495C12.6365 21.5495 12.7048 21.5495 12.8413 21.4813L13.5923 21.0717C17.6884 18.6822 20.6923 16.9755 20.6923 11.3774V5.84758C20.6923 5.5745 20.4875 5.30142 20.2144 5.23315L12.7048 2.50237C12.5682 2.4341 12.3634 2.4341 12.2269 2.50237L4.71723 5.23315C4.51243 5.30142 4.30762 5.5745 4.30762 5.84758V11.3091C4.30762 16.9755 7.31147 18.6822 11.4076 21.0034ZM8.94994 11.5139C9.22302 11.2409 9.63263 11.2409 9.90571 11.5139L11.4759 13.0841L15.0942 9.46586C15.3673 9.19278 15.7769 9.19278 16.05 9.46586C16.323 9.73893 16.323 10.1486 16.05 10.4216L11.9538 14.5178C11.8173 14.6543 11.6807 14.7226 11.4759 14.7226C11.2711 14.7226 11.1346 14.6543 10.998 14.5178L8.94994 12.4697C8.67686 12.1966 8.67686 11.787 8.94994 11.5139Z"
      fill="#fff"
    />
  </symbol>

  <symbol viewBox="0 0 32 32" id="size-32">
    <path
      d="M15.0438 28.0039L16.0451 28.55C16.2272 28.7321 16.3182 28.7321 16.5003 28.7321C16.6823 28.7321 16.7733 28.7321 16.9554 28.6411L17.9567 28.0949C23.4182 24.909 27.4234 22.6333 27.4234 15.1692V7.79612C27.4234 7.43201 27.1503 7.06791 26.7862 6.97688L16.7733 3.33585C16.5913 3.24482 16.3182 3.24482 16.1362 3.33585L6.1233 6.97688C5.85023 7.06791 5.57715 7.43201 5.57715 7.79612V15.0782C5.57715 22.6333 9.58229 24.909 15.0438 28.0039ZM11.7669 15.3513C12.131 14.9872 12.6772 14.9872 13.0413 15.3513L15.1349 17.4449L19.9592 12.6205C20.3233 12.2564 20.8695 12.2564 21.2336 12.6205C21.5977 12.9846 21.5977 13.5308 21.2336 13.8949L15.7721 19.3564C15.59 19.5385 15.4079 19.6295 15.1349 19.6295C14.8618 19.6295 14.6797 19.5385 14.4977 19.3564L11.7669 16.6256C11.4028 16.2615 11.4028 15.7154 11.7669 15.3513Z"
      fill="#fff"
    />
  </symbol>
</svg>
