<svg
  xmlns="http://www.w3.org/2000/svg"
  xmlns:xlink="http://www.w3.org/1999/xlink"
>
  <symbol viewBox="0 0 16 16" id="size-16">
    <path
      fill-rule="evenodd"
      clip-rule="evenodd"
      d="M-0.163439 14.4188C-0.163647 14.4185 -0.163855 14.4182 -0.164062 14.418V14.4188H-0.163439ZM5.13981 9.18655L5.12575 9.19412V9.1952L2.42508 8.35158C1.84104 8.17313 1.83671 7.77079 2.55487 7.48309L13.0817 3.41642C13.6928 3.16549 14.0389 3.48131 13.841 4.26869L12.0488 12.7287C11.9234 13.33 11.561 13.4739 11.057 13.1959L8.29905 11.1539L7.01415 12.3955C7.00934 12.4002 7.00455 12.4048 6.9998 12.4093C6.87324 12.531 6.76669 12.6334 6.57071 12.6594C6.36846 12.6876 6.2019 12.627 6.08077 12.2906L5.13981 9.18655Z"
      fill="currentColor"
    />
  </symbol>

  <symbol viewBox="0 0 24 24" id="size-24">
    <path
      fill-rule="evenodd"
      clip-rule="evenodd"
      d="M-0.244848 21.6282C-0.244937 21.6281 -0.245028 21.628 -0.245117 21.6278V21.6282H-0.244848ZM7.71002 13.7798L7.68893 13.7912V13.7928L3.63794 12.5274C2.76187 12.2597 2.75538 11.6562 3.83262 11.2246L19.6229 5.12462C20.5395 4.74824 21.0587 5.22196 20.7618 6.40303L18.0736 19.093C17.8854 19.995 17.3419 20.2108 16.5859 19.7939L12.4489 16.7309L10.5215 18.5933C10.5143 18.6003 10.5071 18.6071 10.5 18.614C10.3102 18.7965 10.1503 18.9501 9.85638 18.9892C9.553 19.0314 9.30316 18.9405 9.12146 18.436L7.71002 13.7798Z"
      fill="currentColor"
    />
  </symbol>

  <symbol viewBox="0 0 32 32" id="size-32">
    <path
      fill-rule="evenodd"
      clip-rule="evenodd"
      d="M10.2786 18.3751L10.2505 18.3902V18.3924L4.84913 16.7051C3.68105 16.3482 3.67239 15.5435 5.10871 14.9681L26.1624 6.83478C27.3846 6.33294 28.0768 6.96457 27.6809 8.53933L24.0966 25.4593C23.8457 26.662 23.121 26.9497 22.113 26.3938L16.5971 22.3098L14.0273 24.793C14.0176 24.8023 14.0081 24.8115 13.9986 24.8206C13.7454 25.0639 13.5323 25.2687 13.1404 25.3209C12.7359 25.3771 12.4028 25.256 12.1605 24.5832L10.2786 18.3751Z"
      fill="currentColor"
    />
  </symbol>
</svg>
