<svg
  xmlns="http://www.w3.org/2000/svg"
  xmlns:xlink="http://www.w3.org/1999/xlink"
>
  <symbol viewBox="0 0 16 16" id="size-16">
    <path
      fill-rule="evenodd"
      clip-rule="evenodd"
      d="M0.000273035 11.7967C0.00607645 12.0106 0.0966994 12.2145 0.253693 12.3673L3.72763 15.7456C3.9501 15.9619 4.27658 16.0486 4.58447 15.9734C4.8922 15.8981 5.13433 15.672 5.21989 15.3805C5.30531 15.089 5.22093 14.7762 4.99846 14.5599L2.99847 12.617H15.0975C15.3354 12.6202 15.5648 12.5324 15.7343 12.3733C15.9037 12.2142 15.9991 11.997 15.9991 11.7704C15.9991 11.5437 15.9037 11.3265 15.7343 11.1674C15.5648 11.0083 15.3354 10.9205 15.0975 10.9236H3.00914L4.99873 8.98891C5.16837 8.82931 5.26361 8.61162 5.26302 8.38454C5.26242 8.15734 5.16614 7.94005 4.99576 7.78116C4.82522 7.62241 4.595 7.53553 4.35663 7.53992C4.11824 7.54446 3.89176 7.63985 3.72791 7.80497L0.253975 11.1833C0.0859681 11.3467 -0.00568124 11.5681 0.000273035 11.7967ZM0.000273035 4.26642C0.00399326 4.49065 0.100867 4.70438 0.269766 4.86059C0.438813 5.01693 0.665879 5.10296 0.901307 5.09984H12.9916L11.002 7.03457C10.831 7.19559 10.7358 7.41571 10.738 7.64474C10.7404 7.87082 10.8374 8.08655 11.0078 8.24403C11.178 8.4015 11.4073 8.48767 11.6445 8.48314C11.8819 8.4786 12.1075 8.38392 12.271 8.22021L15.7467 4.84188C15.9091 4.6837 16 4.47123 16 4.24985C16 4.0286 15.9091 3.81614 15.7467 3.65797L12.271 0.279641C12.1088 0.108277 11.8804 0.00750134 11.6384 0.000414848C11.3963 -0.00681388 11.1618 0.0804962 10.9889 0.241795C10.8158 0.403093 10.7195 0.624785 10.7219 0.855377C10.7244 1.08599 10.8255 1.30553 11.002 1.46359L13.0002 3.40655H0.901159C0.660832 3.40343 0.429579 3.49315 0.259789 3.65516C0.0899987 3.81703 -0.00344886 4.0375 0.000273035 4.26642Z"
      fill="currentColor"
    />
  </symbol>

  <symbol viewBox="0 0 24 24" id="size-24">
    <path
      fill-rule="evenodd"
      clip-rule="evenodd"
      d="M0.000409552 17.6951C0.00911468 18.0159 0.145049 18.3217 0.38054 18.5509L5.59144 23.6184C5.92515 23.9428 6.41487 24.0729 6.8767 23.96C7.3383 23.8471 7.7015 23.508 7.82984 23.0707C7.95796 22.6336 7.8314 22.1643 7.4977 21.8399L4.4977 18.9255H22.6462C23.0032 18.9304 23.3472 18.7985 23.6014 18.56C23.8556 18.3212 23.9987 17.9955 23.9987 17.6556C23.9987 17.3156 23.8556 16.9897 23.6014 16.7511C23.3471 16.5124 23.0032 16.3808 22.6462 16.3855H4.5137L7.4981 13.4834C7.75256 13.244 7.89542 12.9174 7.89453 12.5768C7.89363 12.236 7.74921 11.9101 7.49363 11.6717C7.23783 11.4336 6.89249 11.3033 6.53495 11.3099C6.17736 11.3167 5.83764 11.4598 5.59187 11.7075L0.380963 16.775C0.128952 17.0201 -0.00852186 17.3522 0.000409552 17.6951ZM0.000409552 6.39963C0.00598988 6.73598 0.1513 7.05657 0.404649 7.29089C0.65822 7.52539 0.998819 7.65444 1.35196 7.64977H19.4874L16.503 10.5519C16.2465 10.7934 16.1036 11.1236 16.107 11.4671C16.1105 11.8062 16.2561 12.1298 16.5117 12.366C16.767 12.6022 17.111 12.7315 17.4668 12.7247C17.8228 12.7179 18.1612 12.5759 18.4065 12.3303L23.6201 7.26283C23.8636 7.02555 24 6.70685 24 6.37478C24 6.0429 23.8636 5.72421 23.6201 5.48696L18.4065 0.419466C18.1632 0.16242 17.8206 0.0112552 17.4577 0.000625477C17.0945 -0.0102176 16.7427 0.120747 16.4833 0.362695C16.2237 0.604643 16.0793 0.937181 16.0829 1.28307C16.0867 1.62898 16.2382 1.9583 16.503 2.19539L19.5003 5.10983H1.35174C0.991248 5.10515 0.644368 5.23973 0.389683 5.48275C0.134998 5.72554 -0.00517329 6.05625 0.000409552 6.39963Z"
      fill="currentColor"
    />
  </symbol>

  <symbol viewBox="0 0 32 32" id="size-32">
    <path
      fill-rule="evenodd"
      clip-rule="evenodd"
      d="M0.00054607 23.5935C0.0121529 24.0212 0.193399 24.4289 0.507387 24.7345L7.45526 31.4912C7.9002 31.9237 8.55316 32.0972 9.16893 31.9467C9.78441 31.7962 10.2687 31.344 10.4398 30.7609C10.6106 30.1781 10.4419 29.5525 9.99693 29.1199L5.99694 25.234H30.195C30.6709 25.2405 31.1295 25.0647 31.4685 24.7467C31.8075 24.4283 31.9983 23.994 31.9983 23.5408C31.9983 23.0875 31.8075 22.6529 31.4685 22.3349C31.1295 22.0165 30.6709 21.841 30.195 21.8473H6.01827L9.99746 17.9778C10.3367 17.6586 10.5272 17.2232 10.526 16.7691C10.5248 16.3147 10.3323 15.8801 9.99151 15.5623C9.65044 15.2448 9.18999 15.0711 8.71327 15.0798C8.23648 15.0889 7.78352 15.2797 7.45582 15.6099L0.507951 22.3666C0.171936 22.6935 -0.0113625 23.1362 0.00054607 23.5935ZM0.00054607 8.53284C0.00798651 8.9813 0.201734 9.40876 0.539531 9.72118C0.877626 10.0339 1.33176 10.2059 1.80261 10.1997H25.9831L22.0039 14.0691C21.662 14.3912 21.4715 14.8314 21.476 15.2895C21.4807 15.7416 21.6748 16.1731 22.0156 16.4881C22.356 16.803 22.8146 16.9754 23.2891 16.9663C23.7638 16.9572 24.2149 16.7678 24.542 16.4404L31.4935 9.68377C31.8182 9.36741 32 8.94246 32 8.49971C32 8.0572 31.8182 7.63228 31.4935 7.31595L24.542 0.559287C24.2176 0.216559 23.7608 0.0150063 23.2769 0.000833294C22.7927 -0.0136242 22.3236 0.160996 21.9778 0.483593C21.6316 0.806189 21.4391 1.24957 21.4438 1.71076C21.4489 2.17198 21.651 2.61107 22.004 2.92718L26.0004 6.8131H1.80232C1.32166 6.80687 0.859158 6.98631 0.519578 7.31033C0.179997 7.63406 -0.00689773 8.07499 0.00054607 8.53284Z"
      fill="currentColor"
    />
  </symbol>
</svg>
