<svg
  xmlns="http://www.w3.org/2000/svg"
  xmlns:xlink="http://www.w3.org/1999/xlink"
>
  <symbol viewBox="0 0 16 16" id="size-16">
    <path
      d="M14.5446 4.14445C14.0747 4.35228 13.5764 4.48877 13.0663 4.54941C13.604 4.2278 14.0065 3.72165 14.1987 3.12527C13.694 3.42561 13.1407 3.63609 12.5641 3.74995C12.1767 3.3355 11.6633 3.06063 11.1036 2.96808C10.5439 2.87553 9.96932 2.97048 9.46917 3.23818C8.96901 3.50587 8.57131 3.93131 8.33789 4.44835C8.10447 4.96538 8.04841 5.54506 8.17842 6.09724C7.15501 6.04595 6.15382 5.78 5.23986 5.31666C4.3259 4.85331 3.51961 4.20294 2.87331 3.40776C2.64455 3.80069 2.52433 4.24736 2.52497 4.70204C2.52497 5.59443 2.97917 6.38281 3.66969 6.84439C3.26105 6.83152 2.86139 6.72117 2.50405 6.52251V6.55452C2.50417 7.14885 2.70983 7.72485 3.08616 8.18486C3.46249 8.64487 3.98633 8.96057 4.56885 9.07844C4.18951 9.18125 3.79174 9.1964 3.40567 9.12276C3.56991 9.63433 3.89003 10.0817 4.3212 10.4023C4.75237 10.7229 5.273 10.9006 5.8102 10.9106C5.27629 11.3299 4.66497 11.6399 4.01119 11.8228C3.35741 12.0057 2.67399 12.058 2 11.9766C3.17654 12.7332 4.54614 13.1349 5.94498 13.1336C10.6796 13.1336 13.2687 9.21138 13.2687 5.80983C13.2687 5.69905 13.2657 5.58704 13.2607 5.47749C13.7647 5.11325 14.1997 4.66204 14.5452 4.14506L14.5446 4.14445Z"
      fill="currentColor"
    />
  </symbol>

  <symbol viewBox="0 0 24 24" id="size-24">
    <path
      d="M21.8188 6.21471C21.114 6.52646 20.3666 6.7312 19.6013 6.82216C20.408 6.33974 21.0117 5.58051 21.3 4.68596C20.543 5.13646 19.7131 5.45218 18.848 5.62297C18.267 5.00129 17.4969 4.58899 16.6573 4.45017C15.8178 4.31134 14.9559 4.45377 14.2057 4.85531C13.4555 5.25685 12.8589 5.89501 12.5088 6.67057C12.1587 7.44612 12.0746 8.31563 12.2696 9.14391C10.7345 9.06697 9.23269 8.66804 7.86175 7.97303C6.49081 7.27802 5.28136 6.30246 4.31192 5.10969C3.96877 5.69908 3.78845 6.36909 3.78941 7.0511C3.78941 8.38969 4.47071 9.57226 5.50649 10.2646C4.89352 10.2453 4.29404 10.0798 3.75802 9.78182V9.82982C3.75821 10.7213 4.0667 11.5853 4.6312 12.2753C5.19569 12.9653 5.98145 13.4389 6.85524 13.6157C6.28621 13.7699 5.68956 13.7926 5.11046 13.6822C5.35682 14.4495 5.83699 15.1207 6.48375 15.6015C7.1305 16.0824 7.91145 16.349 8.71726 16.364C7.91639 16.9929 6.99941 17.4579 6.01874 17.7323C5.03807 18.0066 4.01293 18.085 3.00195 17.9629C4.76676 19.0979 6.82117 19.7004 8.91943 19.6984C16.0213 19.6984 19.9051 13.8151 19.9051 8.71279C19.9051 8.54662 19.9005 8.37861 19.8931 8.21429C20.649 7.66793 21.3014 6.99111 21.8197 6.21564L21.8188 6.21471Z"
      fill="currentColor"
    />
  </symbol>

  <symbol viewBox="0 0 32 32" id="size-32">
    <path
      d="M29.0872 8.28889C28.1474 8.70455 27.1509 8.97754 26.1306 9.09881C27.2061 8.45559 28.011 7.44329 28.3954 6.25055C27.3861 6.85122 26.2795 7.27218 25.1262 7.49989C24.3515 6.67099 23.3246 6.12126 22.2052 5.93616C21.0859 5.75106 19.9367 5.94097 18.9364 6.47636C17.9361 7.01174 17.1407 7.86262 16.6738 8.89669C16.207 9.93077 16.0949 11.0901 16.3549 12.1945C14.3081 12.0919 12.3057 11.56 10.4778 10.6333C8.64986 9.70663 7.03726 8.40588 5.74467 6.81552C5.28714 7.60138 5.0467 8.49473 5.04799 9.40407C5.04799 11.1889 5.95638 12.7656 7.33744 13.6888C6.52014 13.663 5.72083 13.4423 5.00614 13.045V13.109C5.00639 14.2977 5.41771 15.4497 6.17037 16.3697C6.92303 17.2897 7.9707 17.9211 9.13576 18.1569C8.37706 18.3625 7.58153 18.3928 6.80939 18.2455C7.13787 19.2687 7.7781 20.1635 8.64044 20.8047C9.50278 21.4458 10.544 21.8013 11.6185 21.8212C10.5506 22.6599 9.32799 23.2798 8.02043 23.6456C6.71287 24.0114 5.34602 24.1159 3.99805 23.9531C6.35113 25.4664 9.09033 26.2698 11.888 26.2672C21.3572 26.2672 26.5355 18.4228 26.5355 11.6197C26.5355 11.3981 26.5294 11.1741 26.5195 10.955C27.5275 10.2265 28.3974 9.32409 29.0884 8.29012L29.0872 8.28889Z"
      fill="currentColor"
    />
  </symbol>
</svg>
