<svg
  viewBox="0 0 32 32"
  xmlns="http://www.w3.org/2000/svg"
  xmlns:xlink="http://www.w3.org/1999/xlink"
>
  <path
    d="M15.9511 32C24.6517 32 31.705 24.8365 31.705 16C31.705 7.16345 24.6517 0 15.9511 0C7.25051 0 0.197266 7.16345 0.197266 16C0.197266 24.8365 7.25051 32 15.9511 32Z"
    fill="#3375BB"
  />
  <path
    fill-rule="evenodd"
    clip-rule="evenodd"
    d="M15.4154 6.23739C15.7886 5.92087 16.336 5.92087 16.7091 6.23739C19.3802 8.50296 22.4237 8.48541 23.6034 8.4786C23.6624 8.47826 23.7167 8.47795 23.7661 8.47795C24.0339 8.47795 24.2905 8.58536 24.4784 8.77612C24.6663 8.96687 24.7699 9.22505 24.766 9.49281C24.71 13.2556 24.5616 15.9404 24.2703 17.9077C23.9793 19.8732 23.5333 21.2198 22.8141 22.2349C22.0888 23.2587 21.1557 23.8406 20.1627 24.398C19.9907 24.4946 19.8154 24.5912 19.6359 24.69C18.7654 25.1696 17.7988 25.7021 16.6511 26.5382C16.3002 26.7939 15.8244 26.7939 15.4734 26.5382C14.3269 25.7029 13.3615 25.1706 12.4923 24.6914C12.3121 24.592 12.1359 24.4949 11.9631 24.3978C10.9709 23.8403 10.039 23.2582 9.31512 22.234C8.59757 21.2189 8.15308 19.8723 7.86317 17.9072C7.57298 15.9401 7.42516 13.2555 7.36925 9.49281C7.36527 9.22505 7.46886 8.96687 7.6568 8.77612C7.84475 8.58536 8.10135 8.47795 8.36914 8.47795C8.41795 8.47795 8.47172 8.47826 8.53016 8.4786C9.70036 8.48541 12.7442 8.50313 15.4154 6.23739ZM9.38681 10.4712C9.4529 13.679 9.59669 15.9541 9.84175 17.6153C10.112 19.4473 10.493 20.4355 10.9483 21.0796C11.3972 21.7147 11.9856 22.1163 12.9428 22.6542C13.0988 22.7418 13.2634 22.8324 13.4362 22.9276C14.17 23.3318 15.0531 23.8181 16.0623 24.5066C17.0729 23.8173 17.9574 23.3305 18.6924 22.9261C18.8645 22.8314 19.0284 22.7412 19.1838 22.654C20.1423 22.116 20.732 21.7142 21.1822 21.0787C21.6385 20.4346 22.0207 19.4465 22.2919 17.6148C22.5378 15.9538 22.6822 13.679 22.7484 10.4714C21.2303 10.4202 18.5709 10.0991 16.0623 8.27156C13.5568 10.0969 10.9011 10.4194 9.38681 10.4712Z"
    fill="#fff"
  />
</svg>
