<svg
  xmlns="http://www.w3.org/2000/svg"
  xmlns:xlink="http://www.w3.org/1999/xlink"
>
  <symbol viewBox="0 0 16 16" id="size-16">
    <path
      d="M8.01038 16C10.056 16 12.1017 15.2106 13.6612 13.6521C16.7802 10.5351 16.7802 5.45474 13.6612 2.33773C10.5422 -0.77928 5.4584 -0.779208 2.3393 2.33773C-0.779802 5.45467 -0.779729 10.5351 2.3393 13.6521C3.9191 15.2106 5.96474 16 8.01038 16ZM3.35199 3.34979C4.62802 2.07461 6.32931 1.42699 8.01038 1.42699C9.69146 1.42699 11.3726 2.07475 12.6688 3.34979C15.2411 5.92035 15.2411 10.0898 12.6688 12.6603C10.0965 15.2309 5.92423 15.2309 3.35199 12.6603C0.779711 10.0898 0.779711 5.92031 3.35199 3.34979Z"
      fill="currentColor"
    />
    <path
      d="M5.17484 9.11827H8.41553C8.80039 9.11827 9.12449 8.79439 9.12449 8.40979L9.12435 4.36172C9.12435 3.97712 8.80026 3.65323 8.41539 3.65323C8.03053 3.65323 7.70643 3.97711 7.70643 4.36172V7.7013L5.17484 7.70144C4.78998 7.70144 4.46589 8.02532 4.46589 8.40993C4.46589 8.79439 4.78998 9.11827 5.17484 9.11827Z"
      fill="currentColor"
    />
  </symbol>

  <symbol viewBox="0 0 24 24" id="size-24">
    <path
      d="M12.0156 24C15.084 24 18.1525 22.8159 20.4918 20.4781C25.1704 15.8027 25.1704 8.18212 20.4918 3.5066C15.8133 -1.16892 8.18759 -1.16881 3.50894 3.5066C-1.1697 8.18201 -1.16959 15.8026 3.50894 20.4781C5.87865 22.8159 8.94711 24 12.0156 24ZM5.02799 5.02468C6.94203 3.11191 9.49397 2.14048 12.0156 2.14048C14.5372 2.14048 17.0588 3.11213 19.0032 5.02468C22.8616 8.88052 22.8616 15.1347 19.0032 18.9905C15.1447 22.8464 8.88635 22.8464 5.02799 18.9905C1.16957 15.1347 1.16957 8.88046 5.02799 5.02468Z"
      fill="currentColor"
    />
    <path
      d="M7.76226 13.6774H12.6233C13.2006 13.6774 13.6867 13.1916 13.6867 12.6147L13.6865 6.54258C13.6865 5.96567 13.2004 5.47985 12.6231 5.47985C12.0458 5.47985 11.5597 5.96567 11.5597 6.54258V11.552L7.76226 11.5522C7.18497 11.5522 6.69883 12.038 6.69883 12.6149C6.69883 13.1916 7.18496 13.6774 7.76226 13.6774Z"
      fill="currentColor"
    />
  </symbol>

  <symbol viewBox="0 0 32 32" id="size-32">
    <path
      d="M16.0208 32C20.112 32 24.2033 30.4213 27.3224 27.3042C33.5605 21.0703 33.5605 10.9095 27.3224 4.67546C21.0844 -1.55856 10.9168 -1.55842 4.67859 4.67546C-1.5596 10.9093 -1.55946 21.0701 4.67859 27.3042C7.8382 30.4213 11.9295 32 16.0208 32ZM6.70398 6.69957C9.25604 4.14922 12.6586 2.85398 16.0208 2.85398C19.3829 2.85398 22.7451 4.14951 25.3376 6.69957C30.4821 11.8407 30.4821 20.1796 25.3376 25.3207C20.193 30.4618 11.8485 30.4618 6.70398 25.3207C1.55942 20.1796 1.55942 11.8406 6.70398 6.69957Z"
      fill="currentColor"
    />
    <path
      d="M10.3497 18.2365H16.8311C17.6008 18.2365 18.249 17.5888 18.249 16.8196L18.2487 8.72344C18.2487 7.95423 17.6005 7.30647 16.8308 7.30647C16.0611 7.30647 15.4129 7.95422 15.4129 8.72344V15.4026L10.3497 15.4029C9.57997 15.4029 8.93177 16.0506 8.93177 16.8199C8.93177 17.5888 9.57995 18.2365 10.3497 18.2365Z"
      fill="currentColor"
    />
  </symbol>
</svg>
