<svg
  xmlns="http://www.w3.org/2000/svg"
  xmlns:xlink="http://www.w3.org/1999/xlink"
>
  <symbol viewBox="0 0 16 16" id="size-16">
    <path
      d="M8 0C3.58737 0 0 3.58737 0 8C0 12.4126 3.58737 16 8 16C12.4126 16 16 12.4126 16 8C16 3.58737 12.4126 0 8 0ZM8 14.5684C4.37895 14.5684 1.43158 11.6211 1.43158 8C1.43158 4.37895 4.37895 1.43158 8 1.43158C11.6211 1.43158 14.5684 4.37895 14.5684 8C14.5684 11.6211 11.6211 14.5684 8 14.5684Z"
      fill="currentColor"
    />
    <path
      d="M8.25261 7.24209H7.6463C7.24206 7.24209 6.90522 6.90528 6.90522 6.50101C6.90522 6.09674 7.24203 5.75993 7.6463 5.75993H8.43788C8.67366 5.75993 8.87574 5.91148 8.94317 6.13045C8.97689 6.23149 9.06112 6.29892 9.16216 6.29892H10.2232C10.3748 6.29892 10.4758 6.16417 10.459 6.01262C10.3411 5.11999 9.63373 4.41265 8.7411 4.27788V3.36847C8.7411 3.23372 8.64006 3.13269 8.50531 3.13269H7.46113C7.32638 3.13269 7.22535 3.23372 7.22535 3.36847L7.22523 4.2947C6.08003 4.49677 5.23792 5.55785 5.38947 6.7873C5.52422 7.9325 6.56839 8.77461 7.73052 8.77461H8.33684C8.74108 8.77461 9.07792 9.11142 9.07792 9.51569C9.07792 9.91993 8.74111 10.2568 8.33684 10.2568H7.54526C7.30948 10.2568 7.1074 10.1052 7.03997 9.88625C7.00625 9.78521 6.92202 9.71778 6.82098 9.71778H5.7599C5.60835 9.71778 5.50732 9.85253 5.52412 10.0041C5.64207 10.8967 6.34941 11.604 7.24204 11.7388V12.6482C7.24204 12.783 7.34308 12.884 7.47783 12.884H8.52201C8.65676 12.884 8.75779 12.783 8.75779 12.6482L8.75791 11.7052C9.88633 11.5031 10.7452 10.4421 10.5937 9.21262C10.459 8.06729 9.41475 7.24209 8.25261 7.24209Z"
      fill="currentColor"
    />
  </symbol>

  <symbol viewBox="0 0 24 24" id="size-24">
    <path
      d="M12 0C5.38105 0 0 5.38105 0 12C0 18.6189 5.38105 24 12 24C18.6189 24 24 18.6189 24 12C24 5.38105 18.6189 0 12 0ZM12 21.8526C6.56842 21.8526 2.14737 17.4316 2.14737 12C2.14737 6.56842 6.56842 2.14737 12 2.14737C17.4316 2.14737 21.8526 6.56842 21.8526 12C21.8526 17.4316 17.4316 21.8526 12 21.8526Z"
      fill="currentColor"
    />
    <path
      d="M12.3789 10.8631H11.4694C10.8631 10.8631 10.3578 10.3579 10.3578 9.75151C10.3578 9.14511 10.863 8.63989 11.4694 8.63989H12.6568C13.0105 8.63989 13.3136 8.86722 13.4148 9.19568C13.4653 9.34723 13.5917 9.44838 13.7432 9.44838H15.3349C15.5622 9.44838 15.7137 9.24625 15.6885 9.01893C15.5116 7.67998 14.4506 6.61898 13.1116 6.41683V5.0527C13.1116 4.85058 12.9601 4.69903 12.758 4.69903H11.1917C10.9896 4.69903 10.838 4.85058 10.838 5.0527L10.8378 6.44204C9.12004 6.74515 7.85688 8.33678 8.08421 10.1809C8.28634 11.8988 9.85258 13.1619 11.5958 13.1619H12.5053C13.1116 13.1619 13.6169 13.6671 13.6169 14.2735C13.6169 14.8799 13.1117 15.3852 12.5053 15.3852H11.3179C10.9642 15.3852 10.6611 15.1578 10.56 14.8294C10.5094 14.6778 10.383 14.5767 10.2315 14.5767H8.63985C8.41252 14.5767 8.26098 14.7788 8.28618 15.0061C8.4631 16.3451 9.52412 17.4061 10.8631 17.6082V18.9723C10.8631 19.1745 11.0146 19.326 11.2167 19.326H12.783C12.9851 19.326 13.1367 19.1745 13.1367 18.9723L13.1369 17.5578C14.8295 17.2547 16.1178 15.6631 15.8905 13.8189C15.6885 12.1009 14.1221 10.8631 12.3789 10.8631Z"
      fill="currentColor"
    />
  </symbol>

  <symbol viewBox="0 0 32 32" id="size-32">
    <path
      d="M16 0C7.17474 0 0 7.17474 0 16C0 24.8253 7.17474 32 16 32C24.8253 32 32 24.8253 32 16C32 7.17474 24.8253 0 16 0ZM16 29.1368C8.75789 29.1368 2.86316 23.2421 2.86316 16C2.86316 8.75789 8.75789 2.86316 16 2.86316C23.2421 2.86316 29.1368 8.75789 29.1368 16C29.1368 23.2421 23.2421 29.1368 16 29.1368Z"
      fill="currentColor"
    />
    <path
      d="M16.5052 14.4842H15.2926C14.4841 14.4842 13.8104 13.8106 13.8104 13.002C13.8104 12.1935 14.4841 11.5199 15.2926 11.5199H16.8758C17.3473 11.5199 17.7515 11.823 17.8863 12.2609C17.9538 12.463 18.1222 12.5978 18.3243 12.5978H20.4465C20.7496 12.5978 20.9516 12.3283 20.918 12.0252C20.6821 10.24 19.2675 8.8253 17.4822 8.55577V6.73694C17.4822 6.46744 17.2801 6.26537 17.0106 6.26537H14.9223C14.6528 6.26537 14.4507 6.46744 14.4507 6.73694L14.4505 8.58939C12.1601 8.99353 10.4758 11.1157 10.7789 13.5746C11.0484 15.865 13.1368 17.5492 15.461 17.5492H16.6737C17.4822 17.5492 18.1558 18.2228 18.1558 19.0314C18.1558 19.8399 17.4822 20.5135 16.6737 20.5135H15.0905C14.619 20.5135 14.2148 20.2104 14.0799 19.7725C14.0125 19.5704 13.844 19.4356 13.642 19.4356H11.5198C11.2167 19.4356 11.0146 19.7051 11.0482 20.0082C11.2841 21.7934 12.6988 23.2081 14.4841 23.4776V25.2965C14.4841 25.566 14.6862 25.768 14.9557 25.768H17.044C17.3135 25.768 17.5156 25.566 17.5156 25.2965L17.5158 23.4104C19.7727 23.0063 21.4904 20.8841 21.1873 18.4252C20.9181 16.1346 18.8295 14.4842 16.5052 14.4842Z"
      fill="currentColor"
    />
  </symbol>
</svg>
