<svg
  xmlns="http://www.w3.org/2000/svg"
  xmlns:xlink="http://www.w3.org/1999/xlink"
>
  <symbol viewBox="0 0 16 16" id="size-16">
    <path
      fill-rule="evenodd"
      clip-rule="evenodd"
      d="M3.30569 15.5H12.6948C13.4157 15.5 14 14.9402 14 14.2499V7.75116C14 7.06073 13.4157 6.5011 12.6948 6.5011H5.12619C5.12483 5.80777 5.12604 4.80596 5.12604 4.75131C5.12604 3.23214 6.39569 2.00057 7.98179 2.00057C9.56745 2.00057 10.8666 2.77777 10.867 4.2965V4.29752H10.8749C10.8749 4.29999 10.874 4.30246 10.874 4.30507V4.55503C10.874 4.82358 11.1013 5.0414 11.3818 5.0414H11.9276C12.2081 5.0414 12.4354 4.82371 12.4354 4.55503V4.30507L12.4349 4.30188H12.4406V4.29752H12.4345C12.4343 4.28124 12.4315 4.26584 12.4295 4.25C12.3997 1.92403 10.4266 0.5 7.99038 0.5C5.53548 0.5 3.56673 2.406 3.56673 4.75738C3.56673 4.84573 3.5646 5.85513 3.56688 6.50107H3.30515C2.58429 6.50107 2 7.06069 2 7.75112L2.0003 14.2499C2.00045 14.9403 2.58515 15.5 3.30569 15.5ZM3.55938 8.5068C3.55938 8.23055 3.79318 8.00677 4.08144 8.00677H11.9185C12.2068 8.00677 12.4406 8.23056 12.4406 8.5068V13.5023C12.4406 13.7785 12.2068 14.0023 11.9185 14.0023H4.08144C3.79317 14.0023 3.55938 13.7784 3.55938 13.5023V8.5068ZM7.8735 12.4952H8.13447C8.4936 12.4952 8.7846 12.2165 8.7846 11.8725V10.1451C8.7846 9.80112 8.49359 9.52241 8.13447 9.52241H7.8735C7.51437 9.52241 7.22337 9.80113 7.22337 10.1451V11.8725C7.22307 12.2165 7.51438 12.4952 7.8735 12.4952Z"
      fill="currentColor"
    />
  </symbol>

  <symbol viewBox="0 0 24 24" id="size-24">
    <path
      fill-rule="evenodd"
      clip-rule="evenodd"
      d="M4.95854 23.25H19.0423C20.1236 23.25 21 22.4103 21 21.3749V11.6267C21 10.5911 20.1236 9.75165 19.0423 9.75165H7.68929C7.68724 8.71165 7.68906 7.20894 7.68906 7.12697C7.68906 4.84821 9.59354 3.00086 11.9727 3.00086C14.3512 3.00086 16.2999 4.16666 16.3005 6.44475V6.44628H16.3124C16.3124 6.44998 16.311 6.45369 16.311 6.45761V6.83254C16.311 7.23537 16.6519 7.5621 17.0727 7.5621H17.8914C18.3122 7.5621 18.6531 7.23557 18.6531 6.83254V6.45761L18.6524 6.45282H18.6608V6.44628H18.6517C18.6515 6.42186 18.6472 6.39876 18.6442 6.375C18.5996 2.88605 15.64 0.75 11.9856 0.75C8.30323 0.75 5.35009 3.609 5.35009 7.13607C5.35009 7.2686 5.3469 8.78269 5.35032 9.7516H4.95773C3.87644 9.7516 3 10.591 3 11.6267L3.00045 21.3749C3.00068 22.4105 3.87772 23.25 4.95854 23.25ZM5.33906 12.7602C5.33906 12.3458 5.68977 12.0102 6.12217 12.0102H17.8777C18.3102 12.0102 18.6608 12.3458 18.6608 12.7602V20.2534C18.6608 20.6678 18.3101 21.0034 17.8777 21.0034H6.12217C5.68975 21.0034 5.33906 20.6675 5.33906 20.2534V12.7602ZM11.8102 18.7428H12.2017C12.7404 18.7428 13.1769 18.3247 13.1769 17.8088V15.2176C13.1769 14.7017 12.7404 14.2836 12.2017 14.2836H11.8102C11.2716 14.2836 10.8351 14.7017 10.8351 15.2176V17.8088C10.8346 18.3247 11.2716 18.7428 11.8102 18.7428Z"
      fill="currentColor"
    />
  </symbol>

  <symbol viewBox="0 0 32 32" id="size-32">
    <path
      fill-rule="evenodd"
      clip-rule="evenodd"
      d="M6.61139 31H25.3897C26.8314 31 28 29.8804 28 28.4999V15.5023C28 14.1215 26.8314 13.0022 25.3897 13.0022H10.2524C10.2497 11.6155 10.2521 9.61192 10.2521 9.50262C10.2521 6.46428 12.7914 4.00114 15.9636 4.00114C19.1349 4.00114 21.7332 5.55555 21.7341 8.593V8.59504H21.7498C21.7498 8.59998 21.748 8.60492 21.748 8.61015V9.11005C21.748 9.64716 22.2026 10.0828 22.7637 10.0828H23.8552C24.4163 10.0828 24.8708 9.64742 24.8708 9.11005V8.61015L24.8699 8.60375H24.8811V8.59504H24.869C24.8687 8.56248 24.8629 8.53168 24.859 8.5C24.7995 3.84806 20.8533 1 15.9808 1C11.071 1 7.13345 4.812 7.13345 9.51475C7.13345 9.69146 7.1292 11.7103 7.13376 13.0021H6.6103C5.16858 13.0021 4 14.1214 4 15.5022L4.00061 28.4998C4.00091 29.8807 5.17029 31 6.61139 31ZM7.11875 17.0136C7.11875 16.4611 7.58636 16.0135 8.16289 16.0135H23.837C24.4135 16.0135 24.8811 16.4611 24.8811 17.0136V27.0045C24.8811 27.557 24.4135 28.0046 23.837 28.0046H8.16289C7.58633 28.0046 7.11875 27.5567 7.11875 27.0045V17.0136ZM15.747 24.9904H16.2689C16.9872 24.9904 17.5692 24.433 17.5692 23.745V20.2902C17.5692 19.6022 16.9872 19.0448 16.2689 19.0448H15.747C15.0287 19.0448 14.4467 19.6023 14.4467 20.2902V23.745C14.4461 24.433 15.0288 24.9904 15.747 24.9904Z"
      fill="currentColor"
    />
  </symbol>
</svg>
