<svg
  xmlns="http://www.w3.org/2000/svg"
  xmlns:xlink="http://www.w3.org/1999/xlink"
>
  <symbol viewBox="0 0 16 16" id="size-16">
    <path
      d="M12.506 5.86611C12.506 5.57155 12.7448 5.33271 13.0394 5.33271C13.3339 5.33271 13.5727 5.57155 13.5727 5.86611V10.1326C13.5727 10.4272 13.3339 10.666 13.0394 10.666C12.7448 10.666 12.506 10.4272 12.506 10.1326V5.86611ZM6.63946 9.59936C6.76419 9.59936 6.88499 9.64311 6.9809 9.72293L10.0326 12.266H10.3728V3.73253H10.0326L6.9809 6.27562C6.88501 6.35544 6.7642 6.39919 6.63946 6.39919H4.50606V9.59919L6.63946 9.59936ZM6.44633 10.6661H4.50606C3.91696 10.6661 3.43945 10.1885 3.43945 9.59936V6.39936C3.43945 5.81027 3.91696 5.33267 4.50606 5.33267H6.44633L9.34965 2.91324C9.54134 2.75342 9.78304 2.66602 10.0325 2.66602H10.3728C10.9619 2.66602 11.4395 3.14352 11.4395 3.73262V12.2661C11.4395 12.8552 10.9619 13.3327 10.3728 13.3327H10.0325C9.78304 13.3327 9.54135 13.2453 9.34965 13.0855L6.44633 10.6661Z"
      fill="currentColor"
    />
  </symbol>
  <symbol viewBox="0 0 24 24" id="size-24">
    <path
      d="M18.506 8.80014C18.506 8.3583 18.8643 8.00005 19.3061 8.00005C19.748 8.00005 20.1061 8.3583 20.1061 8.80014V15.1999C20.1061 15.6417 19.748 16 19.3061 16C18.8643 16 18.506 15.6417 18.506 15.1999V8.80014ZM9.70626 14.4C9.89335 14.4 10.0746 14.4656 10.2184 14.5854L14.7959 18.4H15.3063V5.59978H14.7959L10.2184 9.41441C10.0746 9.53414 9.89337 9.59976 9.70626 9.59976H6.50617V14.3998L9.70626 14.4ZM9.41657 16.0001H6.50616C5.62251 16.0001 4.90625 15.2837 4.90625 14.4V9.60002C4.90625 8.71638 5.62251 7.99998 6.50616 7.99998H9.41657L13.7715 4.37083C14.0591 4.1311 14.4216 4 14.7958 4H15.3062C16.1899 4 16.9063 4.71626 16.9063 5.59991V18.4001C16.9063 19.2838 16.1899 20 15.3062 20H14.7958C14.4216 20 14.0591 19.8689 13.7715 19.6292L9.41657 16.0001Z"
      fill="currentColor"
    />
  </symbol>
  <symbol viewBox="0 0 32 32" id="size-32">
    <path
      d="M24.5061 11.7342C24.5061 11.145 24.9838 10.6674 25.5729 10.6674C26.162 10.6674 26.6395 11.145 26.6395 11.7342V20.2672C26.6395 20.8563 26.162 21.334 25.5729 21.334C24.9838 21.334 24.5061 20.8563 24.5061 20.2672V11.7342ZM12.7731 19.2007C13.0225 19.2007 13.2641 19.2882 13.4559 19.4478L19.5593 24.534H20.2398V7.46702H19.5593L13.4559 12.5532C13.2642 12.7128 13.0225 12.8003 12.7731 12.8003H8.50627V19.2003L12.7731 19.2007ZM12.3868 21.3341H8.50626C7.32806 21.3341 6.37305 20.3789 6.37305 19.2007V12.8007C6.37305 11.6225 7.32806 10.6673 8.50626 10.6673H12.3868L18.1934 5.82843C18.5768 5.50879 19.0602 5.33398 19.5592 5.33398H20.2397C21.4179 5.33398 22.3731 6.289 22.3731 7.4672V24.5342C22.3731 25.7124 21.4179 26.6674 20.2397 26.6674H19.5592C19.0602 26.6674 18.5768 26.4926 18.1934 26.1729L12.3868 21.3341Z"
      fill="currentColor"
    />
  </symbol>
</svg>
