<svg
  xmlns="http://www.w3.org/2000/svg"
  xmlns:xlink="http://www.w3.org/1999/xlink"
>
  <symbol viewBox="0 0 16 16" id="size-16">
    <path
      d="M8.24479 1.33398C4.5676 1.33398 1.57812 4.32346 1.57812 8.00065C1.57812 11.6778 4.5676 14.6673 8.24479 14.6673C11.922 14.6673 14.9115 11.6778 14.9115 8.00065C14.9115 4.32346 11.922 1.33398 8.24479 1.33398ZM8.24479 5.15153C9.39572 5.15153 10.336 6.09188 10.336 7.24278C10.336 8.39368 9.39569 9.33403 8.24479 9.33403C7.09389 9.33403 6.15354 8.39368 6.15354 7.24278C6.15354 6.09188 7.09389 5.15153 8.24479 5.15153ZM4.59567 12.0428V11.734C4.59567 10.8497 5.31143 10.12 6.20965 10.12H10.2798C11.1641 10.12 11.8938 10.8358 11.8938 11.734V12.0428C10.9254 12.9129 9.64815 13.4463 8.24469 13.4463C6.84138 13.4463 5.56424 12.9129 4.59582 12.0428H4.59567Z"
      fill="currentColor"
    />
  </symbol>

  <symbol viewBox="0 0 25 25" id="size-24">
    <path
      d="M12.2441 2.5C6.72835 2.5 2.24414 6.98421 2.24414 12.5C2.24414 18.0158 6.72835 22.5 12.2441 22.5C17.7599 22.5 22.2441 18.0158 22.2441 12.5C22.2441 6.98421 17.7599 2.5 12.2441 2.5ZM12.2441 8.22632C13.9705 8.22632 15.381 9.63684 15.381 11.3632C15.381 13.0895 13.9705 14.5001 12.2441 14.5001C10.5178 14.5001 9.10726 13.0895 9.10726 11.3632C9.10726 9.63684 10.5178 8.22632 12.2441 8.22632ZM6.77046 18.5632V18.1C6.77046 16.7736 7.8441 15.679 9.19143 15.679H15.2967C16.623 15.679 17.7177 16.7527 17.7177 18.1V18.5632C16.265 19.8684 14.3492 20.6684 12.244 20.6684C10.139 20.6684 8.22331 19.8684 6.77068 18.5632H6.77046Z"
      fill="currentColor"
    />
  </symbol>

  <symbol viewBox="0 0 32 32" id="size-32">
    <path
      d="M16.2435 2.66602C8.8891 2.66602 2.91016 8.64496 2.91016 15.9993C2.91016 23.3537 8.8891 29.3327 16.2435 29.3327C23.5979 29.3327 29.5768 23.3537 29.5768 15.9993C29.5768 8.64496 23.5979 2.66602 16.2435 2.66602ZM16.2435 10.3011C18.5453 10.3011 20.426 12.1818 20.426 14.4836C20.426 16.7854 18.5453 18.6661 16.2435 18.6661C13.9417 18.6661 12.061 16.7854 12.061 14.4836C12.061 12.1818 13.9417 10.3011 16.2435 10.3011ZM8.94524 24.0836V23.466C8.94524 21.6975 10.3768 20.238 12.1732 20.238H20.3136C22.082 20.238 23.5415 21.6696 23.5415 23.466V24.0836C21.6046 25.8239 19.0502 26.8906 16.2433 26.8906C13.4367 26.8906 10.8824 25.8239 8.94555 24.0836H8.94524Z"
      fill="currentColor"
    />
  </symbol>
</svg>
