<svg
  viewBox="0 0 64 64"
  xmlns="http://www.w3.org/2000/svg"
  xmlns:xlink="http://www.w3.org/1999/xlink"
>
  <defs>
    <clipPath id="logo_box_clip">
      <rect width="64" height="64" fill="#fff" />
    </clipPath>

    <radialGradient
      id="gradient_wallet_connect"
      cx="0"
      cy="0"
      r="1"
      gradientUnits="userSpaceOnUse"
      gradientTransform="translate(0.000198364 32.001) scale(64)"
    >
      <stop stop-color="#5d9df6" />
      <stop offset="1" stop-color="#006fff" />
    </radialGradient>
  </defs>

  <g clip-path="url(#logo_box_clip)">
    <path
      d="M32 64C49.6731 64 64 49.6731 64 32C64 14.3269 49.6731 0 32 0C14.3269 0 0 14.3269 0 32C0 49.6731 14.3269 64 32 64Z"
      fill="url(#gradient_wallet_connect)"
    />
    <path
      d="M20.0938 24.7156C26.5313 18.4281 36.9812 18.4281 43.4187 24.7156L44.1938 25.4781C44.5188 25.7906 44.5188 26.3031 44.1938 26.6156L41.5437 29.2031C41.3812 29.3656 41.1188 29.3656 40.9563 29.2031L39.8938 28.1656C35.3938 23.7781 28.1187 23.7781 23.6187 28.1656L22.4812 29.2781C22.3187 29.4406 22.0563 29.4406 21.8938 29.2781L19.2438 26.6906C18.9188 26.3781 18.9188 25.8656 19.2438 25.5531L20.0938 24.7156ZM48.9063 30.0656L51.2687 32.3656C51.5938 32.6781 51.5938 33.1906 51.2687 33.5031L40.6313 43.8906C40.3062 44.2031 39.7813 44.2031 39.4688 43.8906L31.9187 36.5156C31.8437 36.4406 31.7063 36.4406 31.6313 36.5156L24.0813 43.8906C23.7563 44.2031 23.2312 44.2031 22.9187 43.8906L12.2437 33.5031C11.9188 33.1906 11.9188 32.6781 12.2437 32.3656L14.6062 30.0656C14.9312 29.7531 15.4563 29.7531 15.7688 30.0656L23.3188 37.4406C23.3938 37.5156 23.5312 37.5156 23.6062 37.4406L31.1563 30.0656C31.4813 29.7531 32.0063 29.7531 32.3188 30.0656L39.8687 37.4406C39.9438 37.5156 40.0813 37.5156 40.1563 37.4406L47.7062 30.0656C48.0562 29.7531 48.5813 29.7531 48.9063 30.0656Z"
      fill="#fff"
    />
  </g>
</svg>
