<svg
  viewBox="0 0 560 560"
  xmlns="http://www.w3.org/2000/svg"
  xmlns:xlink="http://www.w3.org/1999/xlink"
>
  <circle cx="280" cy="280" r="265" fill="#fff" />
  <path
    d="M456.621 117.525L441.245 132.901C477.935 173.024 498.281 225.426 498.281 279.795C498.281 334.164 477.935 386.565 441.245 426.689L456.621 442.065C497.424 397.806 520.078 339.813 520.078 279.616C520.078 219.418 497.424 161.425 456.621 117.166V117.525Z"
    fill="#5a5564"
  />
  <path
    d="M133.26 118.858C173.383 82.1677 225.784 61.8211 280.154 61.8211C334.523 61.8211 386.924 82.1677 427.047 118.858L442.424 103.482C398.165 62.6783 340.172 40.0248 279.974 40.0248C219.777 40.0248 161.784 62.6783 117.525 103.482L133.26 118.858Z"
    fill="#5a5564"
  />
  <path
    d="M118.858 426.842C82.2112 386.728 61.8914 334.359 61.8914 280.026C61.8914 225.692 82.2112 173.323 118.858 133.209L103.482 117.833C62.6784 162.091 40.0248 220.084 40.0248 280.282C40.0248 340.479 62.6784 398.472 103.482 442.731L118.858 426.842Z"
    fill="#5a5564"
  />
  <path
    d="M426.842 441.04C386.719 477.73 334.318 498.076 279.949 498.076C225.579 498.076 173.178 477.73 133.055 441.04L117.679 456.416C161.938 497.219 219.931 519.873 280.128 519.873C340.326 519.873 398.319 497.219 442.577 456.416L426.842 441.04Z"
    fill="#5a5564"
  />
  <path
    d="M377.075 228.695C374 196.61 346.323 185.847 311.316 182.566V138.385H284.254V181.746C277.13 181.746 269.852 181.746 262.625 181.746V138.385H235.768V182.874H180.875V211.832C180.875 211.832 200.864 211.474 200.556 211.832C204.161 211.436 207.778 212.454 210.646 214.672C213.515 216.89 215.41 220.135 215.933 223.723V345.502C215.856 346.768 215.526 348.005 214.962 349.141C214.399 350.276 213.613 351.287 212.652 352.114C211.709 352.957 210.606 353.6 209.408 354.005C208.21 354.41 206.943 354.569 205.682 354.472C206.041 354.779 186 354.472 186 354.472L180.875 386.813H235.255V432.019H262.317V387.479H283.947V431.814H311.06V387.121C356.778 384.353 388.658 373.077 392.656 330.28C395.885 295.837 379.689 280.461 353.806 274.26C369.541 266.52 379.279 252.169 377.075 228.695ZM339.147 324.95C339.147 358.572 281.538 354.728 263.189 354.728V295.069C281.538 295.12 339.147 289.841 339.147 324.95ZM326.59 240.893C326.59 271.646 278.514 267.904 263.24 267.904V213.677C278.514 213.677 326.59 208.86 326.59 240.893Z"
    fill="#f09242"
  />
  <path
    d="M279.949 560C224.574 559.99 170.446 543.561 124.408 512.79C78.3706 482.02 42.4902 438.289 21.3041 387.128C0.117866 335.967 -5.42275 279.672 5.38275 225.362C16.1882 171.052 42.8546 121.166 82.0102 82.0102C121.166 42.8546 171.052 16.1882 225.362 5.38275C279.672 -5.42275 335.967 0.117866 387.128 21.3041C438.289 42.4902 482.02 78.3706 512.79 124.408C543.561 170.446 559.99 224.574 560 279.949C560.007 316.728 552.768 353.147 538.696 387.128C524.625 421.108 503.997 451.984 477.99 477.99C451.984 503.997 421.108 524.625 387.128 538.696C353.147 552.768 316.728 560.007 279.949 560V560ZM279.949 21.8343C228.932 21.8748 179.072 37.0388 136.672 65.4097C94.2709 93.7805 61.2327 134.085 41.7328 181.228C22.2329 228.371 17.1467 280.237 27.117 330.27C37.0873 380.303 61.6665 426.257 97.748 462.325C133.83 498.392 179.794 522.953 229.831 532.903C279.868 542.854 331.732 537.747 378.867 518.228C426.002 498.71 466.293 465.655 494.647 423.243C523.001 380.832 538.146 330.966 538.166 279.949C538.179 246.04 531.509 212.462 518.536 181.133C505.563 149.804 486.541 121.34 462.56 97.368C438.578 73.3958 410.106 54.3859 378.772 41.4252C347.439 28.4645 313.857 21.8073 279.949 21.8343V21.8343Z"
    fill="#3e3456"
  />
</svg>
