<svg
  xmlns="http://www.w3.org/2000/svg"
  xmlns:xlink="http://www.w3.org/1999/xlink"
>
  <symbol viewBox="0 0 200 200" id="wncg">
    <circle cx="100.165" cy="100.169" r="68.6761" fill="white" />
    <path
      d="M61.9327 135.168L65.3665 62.4303H87.5133L118.744 112.311L120.843 55.4409L142.717 45.8068C130.969 36.533 116.133 31 100.002 31C61.8938 31 30.9993 61.8945 30.9993 100.002C30.9993 116.017 36.4592 130.761 45.6161 142.47L61.9327 135.168V135.168Z"
      fill="#00b1b1"
    />
    <path
      d="M154.311 57.438L138.491 64.515L135.057 137.253H112.915L112.872 137.185L81.68 87.3729L79.5807 144.243L57.1806 154.106C68.9481 163.428 83.8231 169 99.9985 169C138.106 169 169.001 138.106 169.001 99.9976C169.001 83.9391 163.512 69.1567 154.311 57.4331V57.438Z"
      fill="#00b1b1"
    />
    <path
      fill-rule="evenodd"
      clip-rule="evenodd"
      d="M100 11.396C51.1688 11.396 11.4943 51.0164 11.4943 100C11.4943 148.984 51.1688 188.604 100 188.604C148.831 188.604 188.506 148.984 188.506 100C188.506 51.0164 148.831 11.396 100 11.396ZM0 100C0 44.8205 44.7223 0 100 0C155.278 0 200 44.8205 200 100C200 155.179 155.278 200 100 200C44.7223 200 0 155.179 0 100Z"
      fill="#00b1b1"
    />
  </symbol>
</svg>
