<svg
  xmlns="http://www.w3.org/2000/svg"
  xmlns:xlink="http://www.w3.org/1999/xlink"
>
  <symbol viewBox="0 0 16 16" id="warning-16">
    <path
      d="M8 0C3.58166 0 0 3.58166 0 8C0 12.4183 3.58166 16 8 16C12.418 16 16 12.4183 16 8C16 3.58166 12.4183 0 8 0V0ZM6.86852 4.71655C6.86852 4.08602 7.37518 3.57491 8 3.57491C8.62495 3.57491 9.13148 4.0859 9.13148 4.71655V8.14105C9.13148 8.77157 8.62495 9.28257 8 9.28257C7.3753 9.28257 6.86852 8.77157 6.86852 8.14105V4.71655ZM8 13.0932C7.33435 13.0932 6.79465 12.5488 6.79465 11.8771C6.79465 11.2055 7.33435 10.661 8 10.661C8.66577 10.661 9.20547 11.2055 9.20547 11.8771C9.20535 12.5488 8.66577 13.0932 8 13.0932Z"
      fill="currentColor"
    />
  </symbol>

  <symbol viewBox="0 0 24 24" id="warning-24">
    <path
      d="M12 0C5.3725 0 0 5.3725 0 12C0 18.6275 5.3725 24 12 24C18.627 24 24 18.6275 24 12C24 5.3725 18.6275 0 12 0V0ZM10.3028 7.07482C10.3028 6.12903 11.0628 5.36236 12 5.36236C12.9374 5.36236 13.6972 6.12885 13.6972 7.07482V12.2116C13.6972 13.1574 12.9374 13.9238 12 13.9238C11.063 13.9238 10.3028 13.1574 10.3028 12.2116V7.07482ZM12 19.6398C11.0015 19.6398 10.192 18.8232 10.192 17.8156C10.192 16.8083 11.0015 15.9915 12 15.9915C12.9987 15.9915 13.8082 16.8083 13.8082 17.8156C13.808 18.8232 12.9987 19.6398 12 19.6398Z"
      fill="currentColor"
    />
  </symbol>

  <symbol viewBox="0 0 32 32" id="warning-32">
    <path
      d="M16 0C7.16333 0 0 7.16333 0 16C0 24.8367 7.16333 32 16 32C24.8361 32 32 24.8367 32 16C32 7.16333 24.8367 0 16 0V0ZM13.737 9.4331C13.737 8.17205 14.7504 7.14981 16 7.14981C17.2499 7.14981 18.263 8.1718 18.263 9.4331V16.2821C18.263 17.5431 17.2499 18.5651 16 18.5651C14.7506 18.5651 13.737 17.5431 13.737 16.2821V9.4331ZM16 26.1864C14.6687 26.1864 13.5893 25.0976 13.5893 23.7542C13.5893 22.411 14.6687 21.322 16 21.322C17.3315 21.322 18.4109 22.411 18.4109 23.7542C18.4107 25.0976 17.3315 26.1864 16 26.1864Z"
      fill="currentColor"
    />
  </symbol>
</svg>
