<svg xmlns="http://www.w3.org/2000/svg" xmlns:xlink="http://www.w3.org/1999/xlink">
  <defs>
    <clipPath id="wbtc_clip">
    <rect width="560" height="560" rx="280" fill="#fff"/>
    </clipPath>

    <clipPath id="box_clip">
      <rect width="32" height="32" fill="#fff"/>
    </clipPath>

    <clipPath id="ether_clip">
      <rect width="20" height="20" fill="#fff" transform="translate(6 5.99976)"/>
    </clipPath>

     <clipPath id="logo_box_clip">
      <rect width="64" height="64" fill="#fff"/>
    </clipPath>

    <radialGradient id="gradient_wallet_connect" cx="0" cy="0" r="1" gradientUnits="userSpaceOnUse" gradientTransform="translate(0.000198364 32.001) scale(64)">
      <stop stop-color="#5d9df6"/>
      <stop offset="1" stop-color="#006fff"/>
    </radialGradient>
  </defs>

  <symbol viewBox="0 0 150 44" id="appLogo">
    <path d="M15.7824 27.6478L12.1504 16.3518H14.6464L17.3024 25.0398H16.3264L18.9184 16.3518H20.8864L23.4784 25.0398H22.5184L25.1584 16.3518H27.6384L24.0064 27.6478H22.0384L19.4304 18.9598H20.3584L17.7504 27.6478H15.7824Z" fill="#fff"/>
    <path d="M28.9976 27.6478V16.3518H30.7576L31.5096 18.6078V27.6478H28.9976ZM36.7896 27.6478L30.1336 19.1198L30.7576 16.3518L37.4136 24.8798L36.7896 27.6478ZM36.7896 27.6478L36.1176 25.3918V16.3518H38.6296V27.6478H36.7896Z" fill="#fff"/>
    <path d="M46.1701 27.8238C45.3275 27.8238 44.5435 27.6798 43.8181 27.3918C43.1035 27.0931 42.4741 26.6771 41.9301 26.1438C41.3968 25.6104 40.9808 24.9918 40.6821 24.2878C40.3835 23.5731 40.2341 22.8051 40.2341 21.9838C40.2341 21.1624 40.3835 20.3998 40.6821 19.6958C40.9808 18.9811 41.3968 18.3624 41.9301 17.8398C42.4635 17.3171 43.0875 16.9118 43.8021 16.6238C44.5275 16.3251 45.3115 16.1758 46.1541 16.1758C47.0501 16.1758 47.8448 16.3198 48.5381 16.6078C49.2421 16.8958 49.8555 17.2904 50.3781 17.7918L48.6981 19.4878C48.3995 19.1678 48.0368 18.9171 47.6101 18.7358C47.1941 18.5544 46.7088 18.4638 46.1541 18.4638C45.6635 18.4638 45.2101 18.5491 44.7941 18.7198C44.3888 18.8798 44.0368 19.1144 43.7381 19.4238C43.4501 19.7331 43.2208 20.1064 43.0501 20.5438C42.8901 20.9811 42.8101 21.4611 42.8101 21.9838C42.8101 22.5171 42.8901 23.0024 43.0501 23.4398C43.2208 23.8771 43.4501 24.2504 43.7381 24.5598C44.0368 24.8691 44.3888 25.1091 44.7941 25.2798C45.2101 25.4504 45.6635 25.5358 46.1541 25.5358C46.7301 25.5358 47.2315 25.4451 47.6581 25.2638C48.0848 25.0824 48.4528 24.8318 48.7621 24.5118L50.4581 26.2078C49.9141 26.7091 49.2901 27.1038 48.5861 27.3918C47.8928 27.6798 47.0875 27.8238 46.1701 27.8238Z" fill="#fff"/>
    <path d="M56.7163 27.8238C55.8949 27.8238 55.1216 27.6744 54.3963 27.3758C53.6816 27.0771 53.0576 26.6664 52.5243 26.1438C51.9909 25.6104 51.5696 24.9918 51.2603 24.2878C50.9616 23.5731 50.8123 22.8051 50.8123 21.9838C50.8123 21.1624 50.9669 20.3998 51.2763 19.6958C51.5856 18.9918 52.0123 18.3784 52.5563 17.8558C53.1109 17.3224 53.7563 16.9118 54.4923 16.6238C55.2283 16.3251 56.0176 16.1758 56.8603 16.1758C57.8309 16.1758 58.7109 16.3518 59.5003 16.7038C60.3003 17.0558 60.9616 17.5411 61.4843 18.1598L59.7723 19.8718C59.4096 19.4024 58.9829 19.0504 58.4923 18.8158C58.0016 18.5811 57.4469 18.4638 56.8283 18.4638C56.1669 18.4638 55.5749 18.6131 55.0523 18.9118C54.5296 19.1998 54.1189 19.6104 53.8203 20.1438C53.5323 20.6664 53.3883 21.2798 53.3883 21.9838C53.3883 22.6878 53.5323 23.3064 53.8203 23.8398C54.1083 24.3731 54.5029 24.7891 55.0043 25.0878C55.5056 25.3864 56.0816 25.5358 56.7323 25.5358C57.3936 25.5358 57.9536 25.4131 58.4123 25.1678C58.8816 24.9118 59.2389 24.5491 59.4843 24.0798C59.7403 23.5998 59.8683 23.0184 59.8683 22.3358L61.5323 23.4558L56.4923 23.3758V21.2478H62.4283V21.6158C62.4283 22.9704 62.1829 24.1118 61.6923 25.0398C61.2123 25.9571 60.5403 26.6504 59.6763 27.1198C58.8229 27.5891 57.8363 27.8238 56.7163 27.8238Z" fill="#fff"/>
    <path d="M73.4365 27.8238C72.5085 27.8238 71.7085 27.6744 71.0365 27.3758C70.3752 27.0664 69.7672 26.6024 69.2125 25.9838L70.8445 24.3678C71.2072 24.7838 71.6072 25.1091 72.0445 25.3438C72.4925 25.5678 73.0098 25.6798 73.5965 25.6798C74.1298 25.6798 74.5405 25.5838 74.8285 25.3918C75.1272 25.1998 75.2765 24.9331 75.2765 24.5918C75.2765 24.2824 75.1805 24.0318 74.9885 23.8398C74.7965 23.6478 74.5405 23.4824 74.2205 23.3438C73.9112 23.2051 73.5645 23.0718 73.1805 22.9438C72.8072 22.8158 72.4338 22.6718 72.0605 22.5118C71.6872 22.3411 71.3405 22.1331 71.0205 21.8878C70.7112 21.6318 70.4605 21.3171 70.2685 20.9438C70.0765 20.5598 69.9805 20.0798 69.9805 19.5038C69.9805 18.8104 70.1459 18.2131 70.4765 17.7118C70.8179 17.2104 71.2872 16.8318 71.8845 16.5758C72.4819 16.3091 73.1699 16.1758 73.9485 16.1758C74.7379 16.1758 75.4578 16.3144 76.1085 16.5918C76.7698 16.8691 77.3138 17.2478 77.7405 17.7278L76.1085 19.3438C75.7672 18.9918 75.4205 18.7304 75.0685 18.5598C74.7272 18.3891 74.3378 18.3038 73.9005 18.3038C73.4632 18.3038 73.1165 18.3891 72.8605 18.5598C72.6045 18.7198 72.4765 18.9544 72.4765 19.2638C72.4765 19.5518 72.5725 19.7864 72.7645 19.9678C72.9565 20.1384 73.2072 20.2878 73.5165 20.4158C73.8365 20.5438 74.1832 20.6718 74.5565 20.7998C74.9405 20.9278 75.3192 21.0771 75.6925 21.2478C76.0658 21.4184 76.4072 21.6371 76.7165 21.9038C77.0365 22.1598 77.2925 22.4904 77.4845 22.8958C77.6765 23.2904 77.7725 23.7811 77.7725 24.3678C77.7725 25.4451 77.3885 26.2931 76.6205 26.9118C75.8525 27.5198 74.7912 27.8238 73.4365 27.8238Z" fill="#fff"/>
    <path d="M81.7188 27.6478V16.5118H84.2308V27.6478H81.7188ZM78.1828 18.5438V16.3518H87.7668V18.5438H78.1828Z" fill="#fff"/>
    <path d="M86.9309 27.6478L91.4109 16.3518H93.6829L98.1149 27.6478H95.4589L92.0669 18.2718H92.9789L89.5389 27.6478H86.9309ZM89.4749 25.5998V23.5518H95.6349V25.5998H89.4749Z" fill="#fff"/>
    <path d="M106.142 27.6478L101.566 21.7598L105.998 16.3518H109.102L104.11 22.2238V21.1998L109.262 27.6478H106.142ZM99.3101 27.6478V16.3518H101.822V27.6478H99.3101Z" fill="#fff"/>
    <path d="M110.31 27.6478V16.3518H112.822V27.6478H110.31Z" fill="#fff"/>
    <path d="M114.998 27.6478V16.3518H116.758L117.51 18.6078V27.6478H114.998ZM122.79 27.6478L116.134 19.1198L116.758 16.3518L123.414 24.8798L122.79 27.6478ZM122.79 27.6478L122.118 25.3918V16.3518H124.63V27.6478H122.79Z" fill="#fff"/>
    <path d="M132.138 27.8238C131.317 27.8238 130.543 27.6744 129.818 27.3758C129.103 27.0771 128.479 26.6664 127.946 26.1438C127.413 25.6104 126.991 24.9918 126.682 24.2878C126.383 23.5731 126.234 22.8051 126.234 21.9838C126.234 21.1624 126.389 20.3998 126.698 19.6958C127.007 18.9918 127.434 18.3784 127.978 17.8558C128.533 17.3224 129.178 16.9118 129.914 16.6238C130.65 16.3251 131.439 16.1758 132.282 16.1758C133.253 16.1758 134.133 16.3518 134.922 16.7038C135.722 17.0558 136.383 17.5411 136.906 18.1598L135.194 19.8718C134.831 19.4024 134.405 19.0504 133.914 18.8158C133.423 18.5811 132.869 18.4638 132.25 18.4638C131.589 18.4638 130.997 18.6131 130.474 18.9118C129.951 19.1998 129.541 19.6104 129.242 20.1438C128.954 20.6664 128.81 21.2798 128.81 21.9838C128.81 22.6878 128.954 23.3064 129.242 23.8398C129.53 24.3731 129.925 24.7891 130.426 25.0878C130.927 25.3864 131.503 25.5358 132.154 25.5358C132.815 25.5358 133.375 25.4131 133.834 25.1678C134.303 24.9118 134.661 24.5491 134.906 24.0798C135.162 23.5998 135.29 23.0184 135.29 22.3358L136.954 23.4558L131.914 23.3758V21.2478H137.85V21.6158C137.85 22.9704 137.605 24.1118 137.114 25.0398C136.634 25.9571 135.962 26.6504 135.098 27.1198C134.245 27.5891 133.258 27.8238 132.138 27.8238Z" fill="#fff"/>
</symbol>


  <symbol viewBox="0 0 560 560" id="wbtc">
    <circle cx="280" cy="280" r="265" fill="#fff"/>
    <path d="M456.621 117.525L441.245 132.901C477.935 173.024 498.281 225.426 498.281 279.795C498.281 334.164 477.935 386.565 441.245 426.689L456.621 442.065C497.424 397.806 520.078 339.813 520.078 279.616C520.078 219.418 497.424 161.425 456.621 117.166V117.525Z" fill="#5a5564"/>
    <path d="M133.26 118.858C173.383 82.1677 225.784 61.8211 280.154 61.8211C334.523 61.8211 386.924 82.1677 427.047 118.858L442.424 103.482C398.165 62.6783 340.172 40.0248 279.974 40.0248C219.777 40.0248 161.784 62.6783 117.525 103.482L133.26 118.858Z" fill="#5a5564"/>
    <path d="M118.858 426.842C82.2112 386.728 61.8914 334.359 61.8914 280.026C61.8914 225.692 82.2112 173.323 118.858 133.209L103.482 117.833C62.6784 162.091 40.0248 220.084 40.0248 280.282C40.0248 340.479 62.6784 398.472 103.482 442.731L118.858 426.842Z" fill="#5a5564"/>
    <path d="M426.842 441.04C386.719 477.73 334.318 498.076 279.949 498.076C225.579 498.076 173.178 477.73 133.055 441.04L117.679 456.416C161.938 497.219 219.931 519.873 280.128 519.873C340.326 519.873 398.319 497.219 442.577 456.416L426.842 441.04Z" fill="#5a5564"/>
    <path d="M377.075 228.695C374 196.61 346.323 185.847 311.316 182.566V138.385H284.254V181.746C277.13 181.746 269.852 181.746 262.625 181.746V138.385H235.768V182.874H180.875V211.832C180.875 211.832 200.864 211.474 200.556 211.832C204.161 211.436 207.778 212.454 210.646 214.672C213.515 216.89 215.41 220.135 215.933 223.723V345.502C215.856 346.768 215.526 348.005 214.962 349.141C214.399 350.276 213.613 351.287 212.652 352.114C211.709 352.957 210.606 353.6 209.408 354.005C208.21 354.41 206.943 354.569 205.682 354.472C206.041 354.779 186 354.472 186 354.472L180.875 386.813H235.255V432.019H262.317V387.479H283.947V431.814H311.06V387.121C356.778 384.353 388.658 373.077 392.656 330.28C395.885 295.837 379.689 280.461 353.806 274.26C369.541 266.52 379.279 252.169 377.075 228.695ZM339.147 324.95C339.147 358.572 281.538 354.728 263.189 354.728V295.069C281.538 295.12 339.147 289.841 339.147 324.95ZM326.59 240.893C326.59 271.646 278.514 267.904 263.24 267.904V213.677C278.514 213.677 326.59 208.86 326.59 240.893Z" fill="#f09242"/>
    <path d="M279.949 560C224.574 559.99 170.446 543.561 124.408 512.79C78.3706 482.02 42.4902 438.289 21.3041 387.128C0.117866 335.967 -5.42275 279.672 5.38275 225.362C16.1882 171.052 42.8546 121.166 82.0102 82.0102C121.166 42.8546 171.052 16.1882 225.362 5.38275C279.672 -5.42275 335.967 0.117866 387.128 21.3041C438.289 42.4902 482.02 78.3706 512.79 124.408C543.561 170.446 559.99 224.574 560 279.949C560.007 316.728 552.768 353.147 538.696 387.128C524.625 421.108 503.997 451.984 477.99 477.99C451.984 503.997 421.108 524.625 387.128 538.696C353.147 552.768 316.728 560.007 279.949 560V560ZM279.949 21.8343C228.932 21.8748 179.072 37.0388 136.672 65.4097C94.2709 93.7805 61.2327 134.085 41.7328 181.228C22.2329 228.371 17.1467 280.237 27.117 330.27C37.0873 380.303 61.6665 426.257 97.748 462.325C133.83 498.392 179.794 522.953 229.831 532.903C279.868 542.854 331.732 537.747 378.867 518.228C426.002 498.71 466.293 465.655 494.647 423.243C523.001 380.832 538.146 330.966 538.166 279.949C538.179 246.04 531.509 212.462 518.536 181.133C505.563 149.804 486.541 121.34 462.56 97.368C438.578 73.3958 410.106 54.3859 378.772 41.4252C347.439 28.4645 313.857 21.8073 279.949 21.8343V21.8343Z" fill="#3e3456"/>
  </symbol>

  <symbol viewBox="0 0 200 200" id="wncg">
    <circle cx="100.165" cy="100.169" r="68.6761" fill="white"/>
    <path d="M61.9327 135.168L65.3665 62.4303H87.5133L118.744 112.311L120.843 55.4409L142.717 45.8068C130.969 36.533 116.133 31 100.002 31C61.8938 31 30.9993 61.8945 30.9993 100.002C30.9993 116.017 36.4592 130.761 45.6161 142.47L61.9327 135.168V135.168Z" fill="#00b1b1"/>
    <path d="M154.311 57.438L138.491 64.515L135.057 137.253H112.915L112.872 137.185L81.68 87.3729L79.5807 144.243L57.1806 154.106C68.9481 163.428 83.8231 169 99.9985 169C138.106 169 169.001 138.106 169.001 99.9976C169.001 83.9391 163.512 69.1567 154.311 57.4331V57.438Z" fill="#00b1b1"/>
    <path fill-rule="evenodd" clip-rule="evenodd" d="M100 11.396C51.1688 11.396 11.4943 51.0164 11.4943 100C11.4943 148.984 51.1688 188.604 100 188.604C148.831 188.604 188.506 148.984 188.506 100C188.506 51.0164 148.831 11.396 100 11.396ZM0 100C0 44.8205 44.7223 0 100 0C155.278 0 200 44.8205 200 100C200 155.179 155.278 200 100 200C44.7223 200 0 155.179 0 100Z" fill="#00b1b1"/>
  </symbol>


  <symbol viewBox="0 0 1000 1000" id="balancer">
    <g>
      <path id="SVGID" d="M500,0c276.1,0,500,223.9,500,500s-223.9,500-500,500S0,776.1,0,500,223.9,0,500,0Z" fill="#fff"/>
      <path id="SVGID-2" data-name="SVGID" d="M507.5,709C347.6,709,218,662.8,218,600.9c0-32.3,35.3-61.4,91.8-81.9,44.1,28.3,118.1,42.8,202,42.8,81.9,0,154.3-17.7,198.8-44.8,53.3,20.3,86.4,48.6,86.4,79.8,0,62-129.6,112.2-289.5,112.2Z" fill="#000" />
      <path id="SVGID-3" data-name="SVGID" d="M509.2,547.9c-121.2,0-219.5-38-219.5-84.9,0-26,30.3-49.3,77.8-64.8,33.9,17.7,84.7,29,141.7,29s107.8-11.3,141.7-29c47.6,15.6,77.8,38.8,77.8,64.8.1,46.9-98.2,84.9-219.5,84.9Z" fill="#000" />
      <path id="SVGID-4" data-name="SVGID" d="M508.4,413.1c-93.7,0-169.7-31.4-169.7-70s76-70,169.7-70,169.7,31.4,169.7,70-76,70-169.7,70Z" fill="#000" />
    </g>
  </symbol>

   <symbol viewBox="0 0 1000 1000" id="balancerDark">
    <g>
      <path id="SVGID" d="M500,0c276.1,0,500,223.9,500,500s-223.9,500-500,500S0,776.1,0,500,223.9,0,500,0Z" fill="#000"/>
      <path id="SVGID-2" data-name="SVGID" d="M507.5,709C347.6,709,218,662.8,218,600.9c0-32.3,35.3-61.4,91.8-81.9,44.1,28.3,118.1,42.8,202,42.8,81.9,0,154.3-17.7,198.8-44.8,53.3,20.3,86.4,48.6,86.4,79.8,0,62-129.6,112.2-289.5,112.2Z" fill="#fff" />
      <path id="SVGID-3" data-name="SVGID" d="M509.2,547.9c-121.2,0-219.5-38-219.5-84.9,0-26,30.3-49.3,77.8-64.8,33.9,17.7,84.7,29,141.7,29s107.8-11.3,141.7-29c47.6,15.6,77.8,38.8,77.8,64.8.1,46.9-98.2,84.9-219.5,84.9Z" fill="#fff" />
      <path id="SVGID-4" data-name="SVGID" d="M508.4,413.1c-93.7,0-169.7-31.4-169.7-70s76-70,169.7-70,169.7,31.4,169.7,70-76,70-169.7,70Z" fill="#fff" />
    </g>
  </symbol>

  <symbol viewBox="0 0 32 32" id="binance">
    <path d="M16 31.98C24.8255 31.98 31.98 24.8255 31.98 16C31.98 7.17446 24.8255 0.0199585 16 0.0199585C7.17446 0.0199585 0.0199585 7.17446 0.0199585 16C0.0199585 24.8255 7.17446 31.98 16 31.98Z" fill="#121212"/>
    <path d="M10.0405 16L7.59553 18.4619L5.13361 16L7.59553 13.5381L10.0405 16ZM16 10.0405L20.2108 14.2512L22.6727 11.7893L18.4619 7.59553L16 5.13361L13.5381 7.59553L9.34434 11.7893L11.8063 14.2512L16 10.0405ZM24.4045 13.5381L21.9596 16L24.4215 18.4619L26.8664 16L24.4045 13.5381ZM16 21.9596L11.7893 17.7488L9.34434 20.2108L13.5551 24.4215L16 26.8664L18.4619 24.4045L22.6727 20.1938L20.2108 17.7488L16 21.9596ZM16 18.4619L18.4619 16L16 13.5381L13.5381 16L16 18.4619Z" fill="#f0b90b"/>
  </symbol>

  <symbol viewBox="0 0 32 32" id="bsc">
    <path fill-rule="evenodd" clip-rule="evenodd" d="M16 0C24.8372 0 32 7.16282 32 16C32 24.8372 24.8372 32 16 32C7.16282 32 0 24.8372 0 16C0 7.16282 7.16282 0 16 0Z" fill="#121212"/>
    <path fill-rule="evenodd" clip-rule="evenodd" d="M20.897 13.0869L20.907 15.2383L17.8058 17.0757V20.7595L16.0048 21.8252L14.2039 20.7595V17.0757L11.1027 15.2383V13.0869L12.9113 12.0111L15.9938 13.8575L19.095 12.0111L20.9048 13.0869H20.897ZM11.1016 9.41314L15.9949 6.5L20.897 9.41314L19.0961 10.4889L15.9949 8.64254L12.9025 10.4889L11.1016 9.41314ZM9.81087 19.6748L9.80095 16L8.0011 14.9254V20.7606L12.9032 23.6637V21.5122L9.81087 19.6748ZM9.80095 14.4666V12.3252L11.6107 11.2494L9.80095 10.1737L8 11.2494V13.3909L9.80095 14.4666ZM15.9956 10.1737L14.1947 11.2494L15.9956 12.3252L17.8054 11.2494L15.9956 10.1737ZM12.9025 17.8374L11.1016 16.7617V18.9131L12.9025 19.9788V17.8374ZM15.9949 23.3586L14.1939 22.2829V24.4243L15.9949 25.5L17.8047 24.4243V22.2829L15.9949 23.3586ZM22.1885 10.1737L20.3875 11.2494L22.1885 12.3252V14.4666L23.9982 13.3909V11.2494L22.1885 10.1737ZM23.9993 14.9243L22.1984 16L22.1885 19.6748L19.0972 21.5111V23.6626L23.9993 20.7595V14.9243ZM19.0957 19.9789L20.8966 18.9132V16.7617L19.0957 17.8374V19.9789Z" fill="#E5BA41"/>
  </symbol>

  <symbol viewBox="0 0 32 32" id="bnb">
    <path fill-rule="evenodd" clip-rule="evenodd" d="M16 0C24.8372 0 32 7.16282 32 16C32 24.8372 24.8372 32 16 32C7.16282 32 0 24.8372 0 16C0 7.16282 7.16282 0 16 0Z" fill="#E5BA41"/>
    <path fill-rule="evenodd" clip-rule="evenodd" d="M20.897 13.0869L20.907 15.2383L17.8058 17.0757V20.7595L16.0048 21.8252L14.2039 20.7595V17.0757L11.1027 15.2383V13.0869L12.9113 12.0111L15.9938 13.8575L19.095 12.0111L20.9048 13.0869H20.897ZM11.1016 9.41314L15.9949 6.5L20.897 9.41314L19.0961 10.4889L15.9949 8.64254L12.9025 10.4889L11.1016 9.41314ZM9.81087 19.6748L9.80095 16L8.0011 14.9254V20.7606L12.9032 23.6637V21.5122L9.81087 19.6748ZM9.80095 14.4666V12.3252L11.6107 11.2494L9.80095 10.1737L8 11.2494V13.3909L9.80095 14.4666ZM15.9956 10.1737L14.1947 11.2494L15.9956 12.3252L17.8054 11.2494L15.9956 10.1737ZM12.9025 17.8374L11.1016 16.7617V18.9131L12.9025 19.9788V17.8374ZM15.9949 23.3586L14.1939 22.2829V24.4243L15.9949 25.5L17.8047 24.4243V22.2829L15.9949 23.3586ZM22.1885 10.1737L20.3875 11.2494L22.1885 12.3252V14.4666L23.9982 13.3909V11.2494L22.1885 10.1737ZM23.9993 14.9243L22.1984 16L22.1885 19.6748L19.0972 21.5111V23.6626L23.9993 20.7595V14.9243ZM19.0957 19.9789L20.8966 18.9132V16.7617L19.0957 17.8374V19.9789Z" fill="#fff"/>
  </symbol>

  <symbol viewBox="0 0 64 64" id="coinbaseWallet">
    <g clip-path="url(#logo_box_clip)">
      <path d="M32 0C49.675 0 64 14.325 64 32C64 49.675 49.675 64 32 64C14.325 64 0 49.675 0 32C0 14.325 14.325 0 32 0Z" fill="#0052ff"/>
      <path d="M32.0062 43.25C25.7937 43.25 20.7563 38.2188 20.7563 32C20.7563 25.7812 25.7937 20.75 32.0062 20.75C37.575 20.75 42.2 24.8125 43.0875 30.125H54.4188C53.4625 18.575 43.7938 9.5 32 9.5C19.575 9.5 9.5 19.575 9.5 32C9.5 44.425 19.575 54.5 32 54.5C43.7938 54.5 53.4625 45.425 54.4188 33.875H43.0812C42.1875 39.1875 37.575 43.25 32.0062 43.25Z" fill="#fff"/>
    </g>
  </symbol>

  <symbol viewBox="0 0 32 32" id="ether">
    <rect width="32" height="32" rx="16" fill="#6F97F8"/>
    <g clip-path="url(#ether_clip)">
      <path fill-rule="evenodd" clip-rule="evenodd" d="M16.1331 13.3945L10 16.1868L16.1331 19.8141L16.1331 13.3945Z" fill="#fff" fillOpacity="0.85"/>
      <path fill-rule="evenodd" clip-rule="evenodd" d="M16.1332 19.8142L10 16.1868L16.1332 5.99976V19.8142ZM10.0001 16.1867L16.1332 13.3944L16.1332 19.814L10.0001 16.1867Z" fill="#fff" fillOpacity="0.95"/>
      <path fill-rule="evenodd" clip-rule="evenodd" d="M22.2635 16.1868L16.1329 13.3945L16.1328 13.3946V19.8141L22.2635 16.1868Z" fill="#fff" fillOpacity="0.7"/>
      <path fill-rule="evenodd" clip-rule="evenodd" d="M16.133 13.3945V5.99976L22.2638 16.1868L16.133 19.8142V19.8139L22.2635 16.1867L16.133 13.3945ZM16.133 13.3945L16.1329 13.3944L16.1328 13.3945V19.814L16.133 19.8139V13.3945Z" fill="#fff" fillOpacity="0.75"/>
      <path d="M10 17.3501L16.1332 25.9998V20.9775L10 17.3501Z" fill="#fff" fillOpacity="0.75"/>
      <path d="M16.1333 20.9775V25.9998L22.2689 17.3501L16.1333 20.9775Z" fill="#fff" fillOpacity="0.65"/>
    </g>
  </symbol>

  <symbol viewBox="0 0 318.6 318.6" id="metaMask">
    <polygon points="274.1,35.5 174.6,109.4 193,65.8" fill="#e2761b" stroke="#e2761b" stroke-linecap="round" stroke-linejoin="round" />
    <g>
      <polygon points="44.4,35.5 143.1,110.1 125.6,65.8" fill="#e4761b" stroke="#e4761b" stroke-linecap="round" stroke-linejoin="round" />
      <polygon points="238.3,206.8 211.8,247.4 268.5,263 284.8,207.7" fill="#e4761b" stroke="#e4761b" stroke-linecap="round" stroke-linejoin="round" />
      <polygon points="33.9,207.7 50.1,263 106.8,247.4 80.3,206.8" fill="#e4761b" stroke="#e4761b" stroke-linecap="round" stroke-linejoin="round" />
      <polygon points="103.6,138.2 87.8,162.1 144.1,164.6 142.1,104.1" fill="#e4761b" stroke="#e4761b" stroke-linecap="round" stroke-linejoin="round" />
      <polygon points="214.9,138.2 175.9,103.4 174.6,164.6 230.8,162.1" fill="#e4761b" stroke="#e4761b" stroke-linecap="round" stroke-linejoin="round" />
      <polygon points="106.8,247.4 140.6,230.9 111.4,208.1" fill="#e4761b" stroke="#e4761b" stroke-linecap="round" stroke-linejoin="round" />
      <polygon points="177.9,230.9 211.8,247.4 207.1,208.1" fill="#e4761b" stroke="#e4761b" stroke-linecap="round" stroke-linejoin="round" />
    </g>
    <g>
      <polygon points="211.8,247.4 177.9,230.9 180.6,253 180.3,262.3" fill="#d7c1b3" stroke="#d7c1b3" stroke-linecap="round" stroke-linejoin="round" />
      <polygon points="106.8,247.4 138.3,262.3 138.1,253 140.6,230.9" fill="#d7c1b3" stroke="#d7c1b3" stroke-linecap="round" stroke-linejoin="round" />
    </g>
    <polygon points="138.8,193.5 110.6,185.2 130.5,176.1" fill="#233447" stroke="#233447" stroke-linecap="round" stroke-linejoin="round" />
    <polygon points="179.7,193.5 188,176.1 208,185.2" fill="#233447" stroke="#233447" stroke-linecap="round" stroke-linejoin="round" />
    <g>
      <polygon points="106.8,247.4 111.6,206.8 80.3,207.7" fill="#cd6116" stroke="#cd6116" stroke-linecap="round" stroke-linejoin="round" />
      <polygon points="207,206.8 211.8,247.4 238.3,207.7" fill="#cd6116" stroke="#cd6116" stroke-linecap="round" stroke-linejoin="round" />
      <polygon points="230.8,162.1 174.6,164.6 179.8,193.5 188.1,176.1 208.1,185.2" fill="#cd6116" stroke="#cd6116" stroke-linecap="round" stroke-linejoin="round" />
      <polygon points="110.6,185.2 130.6,176.1 138.8,193.5 144.1,164.6 87.8,162.1" fill="#cd6116" stroke="#cd6116" stroke-linecap="round" stroke-linejoin="round" />
    </g>
    <g>
      <polygon points="87.8,162.1 111.4,208.1 110.6,185.2" fill="#e4751f" stroke="#e4751f" stroke-linecap="round" stroke-linejoin="round" />
      <polygon points="208.1,185.2 207.1,208.1 230.8,162.1" fill="#e4751f" stroke="#e4751f" stroke-linecap="round" stroke-linejoin="round" />
      <polygon points="144.1,164.6 138.8,193.5 145.4,227.6 146.9,182.7" fill="#e4751f" stroke="#e4751f" stroke-linecap="round" stroke-linejoin="round" />
      <polygon points="174.6,164.6 171.9,182.6 173.1,227.6 179.8,193.5" fill="#e4751f" stroke="#e4751f" stroke-linecap="round" stroke-linejoin="round" />
    </g>
    <polygon points="179.8,193.5 173.1,227.6 177.9,230.9 207.1,208.1 208.1,185.2" fill="#f6851b" stroke="#f6851b" stroke-linecap="round" stroke-linejoin="round" />
    <polygon points="110.6,185.2 111.4,208.1 140.6,230.9 145.4,227.6 138.8,193.5" fill="#f6851b" stroke="#f6851b" stroke-linecap="round" stroke-linejoin="round" />
    <polygon points="180.3,262.3 180.6,253 178.1,250.8 140.4,250.8 138.1,253 138.3,262.3 106.8,247.4 117.8,256.4 140.1,271.9 178.4,271.9 200.8,256.4 211.8,247.4" fill="#c0ad9e" stroke="#c0ad9e" stroke-linecap="round" stroke-linejoin="round" />
    <polygon points="177.9,230.9 173.1,227.6 145.4,227.6 140.6,230.9 138.1,253 140.4,250.8 178.1,250.8 180.6,253" fill="#161616" stroke="#161616" stroke-linecap="round" stroke-linejoin="round" />
    <g>
      <polygon points="278.3,114.2 286.8,73.4 274.1,35.5 177.9,106.9 214.9,138.2 267.2,153.5 278.8,140 273.8,136.4 281.8,129.1 275.6,124.3 283.6,118.2" fill="#763d16" stroke="#763d16" stroke-linecap="round" stroke-linejoin="round" />
      <polygon points="31.8,73.4 40.3,114.2 34.9,118.2 42.9,124.3 36.8,129.1 44.8,136.4 39.8,140 51.3,153.5 103.6,138.2 140.6,106.9 44.4,35.5" fill="#763d16" stroke="#763d16" stroke-linecap="round" stroke-linejoin="round" />
    </g>
    <polygon points="267.2,153.5 214.9,138.2 230.8,162.1 207.1,208.1 238.3,207.7 284.8,207.7" fill="#f6851b" stroke="#f6851b" stroke-linecap="round" stroke-linejoin="round" />
    <polygon points="103.6,138.2 51.3,153.5 33.9,207.7 80.3,207.7 111.4,208.1 87.8,162.1" fill="#f6851b" stroke="#f6851b" stroke-linecap="round" stroke-linejoin="round" />
    <polygon points="174.6,164.6 177.9,106.9 193.1,65.8 125.6,65.8 140.6,106.9 144.1,164.6 145.3,182.8 145.4,227.6 173.1,227.6 173.3,182.8" fill="#f6851b" stroke="#f6851b" stroke-linecap="round" stroke-linejoin="round" />
  </symbol>

  <symbol viewBox="0 0 109 22" id="planetarium">
    <path d="M14.5311 2.73222C14.4343 4.00662 14.2346 5.27484 13.9052 6.51423C13.5779 7.75157 13.1208 8.96008 12.5176 10.0924C12.2149 10.6586 11.8773 11.2062 11.5005 11.725C11.1238 12.2439 10.71 12.7359 10.2632 13.193C10.115 13.3453 9.96056 13.4935 9.80615 13.6377C9.85556 13.65 9.90497 13.6603 9.95644 13.6706L10.4608 13.7715C10.7964 13.8353 11.132 13.9115 11.4717 13.9609C12.3426 14.1153 13.2196 14.2306 14.1029 14.3191C14.2099 14.2491 14.317 14.1771 14.422 14.1029C14.9737 13.7138 15.5131 13.3041 16.0052 12.843C16.4972 12.3859 16.9543 11.9 17.3558 11.3668C17.751 10.8315 18.0969 10.2592 18.3749 9.64978C19.149 7.95745 19.359 6.00983 19.0913 4.10338C17.926 2.61899 16.3758 1.45165 14.5929 0.749603C14.5929 0.77225 14.5929 0.792838 14.5929 0.815485C14.599 1.45783 14.5784 2.09606 14.5311 2.73428V2.73222Z" fill="currentColor"/>
    <path d="M4.47582 16.1657C4.61582 16.1081 4.75788 16.0546 4.89787 15.9928L5.31169 15.8034C5.85727 15.5399 6.39256 15.2578 6.89902 14.9284C7.22225 14.7184 7.53725 14.4961 7.84195 14.2614L7.18725 14.1152L6.92991 14.0575L6.67462 13.9896L6.16403 13.8537C5.82227 13.7631 5.48051 13.6767 5.14493 13.5655L4.132 13.2484L3.13349 12.8881C2.96672 12.8264 2.79996 12.7687 2.63526 12.7049L2.14526 12.5011C1.81792 12.3631 1.48851 12.2314 1.16528 12.0873L0.201762 11.6302L0 11.5334C0.152351 13.549 0.864694 15.4081 1.9785 16.9563C2.53438 16.8225 3.08408 16.6681 3.62554 16.4869C3.91171 16.3819 4.202 16.2872 4.482 16.1678L4.47582 16.1657Z" fill="currentColor"/>
    <path d="M0.44885 10.0428C0.520908 10.0881 0.595025 10.1292 0.669141 10.1684L0.891491 10.2898L1.78501 10.7757C2.08559 10.9322 2.39441 11.0722 2.69911 11.2204L3.15822 11.4407C3.31263 11.5107 3.47116 11.5745 3.62557 11.6425L4.56438 12.0398L5.52172 12.396C5.83878 12.5216 6.16407 12.6204 6.48936 12.7274L6.97523 12.886L7.21817 12.9642L7.46523 13.0342L8.45345 13.3101C8.57697 13.343 8.70256 13.3718 8.82609 13.4007C9.09579 13.1392 9.35726 12.8674 9.60225 12.5833C9.99137 12.1325 10.3475 11.6548 10.6667 11.1545C10.9858 10.6542 11.2678 10.1292 11.5149 9.58984C12.009 8.51103 12.3631 7.3684 12.5978 6.20312C12.8346 5.03784 12.9478 3.8458 12.9663 2.65582C12.9746 2.06082 12.9581 1.46377 12.9169 0.872899C12.9025 0.656725 12.8819 0.440552 12.8593 0.226437C12.151 0.0782037 11.4161 -3.05176e-05 10.6625 -3.05176e-05C5.07085 0.00408707 0.477673 4.29873 0.00415039 9.77307C0.00826798 9.77513 0.0123856 9.77719 0.0165032 9.78131L0.450909 10.0448L0.44885 10.0428Z" fill="currentColor"/>
    <path d="M10.2978 14.704L9.77489 14.6278C9.59989 14.6031 9.42901 14.566 9.25607 14.5372C9.11607 14.5105 8.97401 14.4857 8.83402 14.461C8.32549 14.844 7.79227 15.1919 7.24051 15.5007C6.69081 15.8137 6.11435 16.0751 5.53377 16.3119L5.09319 16.4807C4.94701 16.5363 4.79672 16.5816 4.64849 16.6331C4.35408 16.7381 4.04938 16.8163 3.75085 16.9069C3.23821 17.0448 2.72145 17.1601 2.20264 17.2548C2.29528 17.3763 2.39205 17.4936 2.49087 17.611C2.61234 17.6048 2.73381 17.5986 2.85322 17.5925C3.19498 17.5698 3.53468 17.5451 3.87644 17.5163C4.04732 17.5039 4.21614 17.4854 4.38702 17.4669C4.5579 17.4504 4.72672 17.436 4.89554 17.4134C7.60697 17.1107 10.2855 16.3984 12.686 15.1425C12.7787 15.0952 12.8693 15.0437 12.9598 14.9943C12.4204 14.9552 11.881 14.9037 11.3437 14.8378C10.9937 14.8049 10.6478 14.7472 10.2978 14.6999V14.704Z" fill="currentColor"/>
    <path d="M15.54 15.1057C15.5132 15.1057 15.4865 15.1057 15.4597 15.1057C15.3959 15.1572 15.3321 15.2087 15.2682 15.2581C14.6835 15.7131 14.068 16.1207 13.4297 16.4913C13.1127 16.6807 12.7853 16.8475 12.458 17.0204C12.1265 17.1789 11.7971 17.3457 11.4574 17.4877C11.1218 17.6401 10.778 17.7677 10.4362 17.9016C10.0904 18.0251 9.74449 18.1507 9.39449 18.2598C8.69656 18.4821 7.98627 18.6736 7.26981 18.826C6.55335 18.9783 5.83277 19.1142 5.10808 19.1965C4.82396 19.2315 4.53985 19.2583 4.25574 19.283C6.04277 20.6233 8.26215 21.4159 10.6689 21.4159C15.1056 21.4159 18.9102 18.7168 20.5346 14.8731C20.267 14.9019 19.9993 14.9287 19.7296 14.9513C18.34 15.0707 16.942 15.1243 15.5421 15.1098L15.54 15.1057Z" fill="currentColor"/>
    <path d="M19.849 7.87307C19.7584 8.606 19.5834 9.33481 19.3281 10.0348C19.0728 10.7369 18.7372 11.4121 18.3296 12.0401C17.9199 12.6659 17.4422 13.2486 16.9255 13.7818C16.6969 14.0227 16.4561 14.2512 16.2111 14.4715C17.3722 14.5292 18.5396 14.5394 19.7048 14.5003C20.0363 14.49 20.3678 14.4736 20.6992 14.455C21.1357 13.2877 21.3745 12.0257 21.3745 10.706C21.3745 8.66365 20.8022 6.7572 19.8119 5.13281C19.8387 5.31193 19.8592 5.49104 19.8737 5.67222C19.9416 6.39897 19.9395 7.13808 19.8531 7.87101L19.849 7.87307Z" fill="currentColor"/>
    <path d="M29.1002 14.4394V7.00925H31.9517C32.8534 7.00925 33.5534 7.2563 34.0372 7.74218C34.5231 8.22805 34.7701 8.81275 34.7701 9.50039C34.7701 10.2333 34.5107 10.8304 34.0043 11.3162C33.4978 11.8001 32.8431 12.0368 32.0319 12.0368H30.7925V14.4374H29.1023L29.1002 14.4394ZM30.7802 8.26099V10.7871H31.6593C32.6846 10.7871 33.0902 10.2127 33.0902 9.53539C33.0902 8.8251 32.6043 8.26099 31.6696 8.26099H30.7781H30.7802Z" fill="currentColor"/>
    <path d="M36.4421 6.99899H38.1221V13.1445H41.5603V14.4415H36.4421V6.99899V6.99899Z" fill="currentColor"/>
    <path d="M48.0204 14.4397L47.5139 13.2662H44.6604L44.1416 14.4397H42.4719L46.0007 6.86333H46.2478L49.7209 14.4397H48.0183H48.0204ZM46.081 10.0545L45.1669 12.1174H47.0157L46.1242 10.0545H46.0789H46.081Z" fill="currentColor"/>
    <path d="M52.8131 14.4395H51.1455V6.8508H51.3926C51.9217 7.36962 52.6999 8.09019 53.7272 9.02695C54.7525 9.95135 55.5307 10.6616 56.0393 11.1578H56.0846V6.99697H57.7542V14.563H57.5175L52.8502 10.1428H52.8173V14.4395H52.8131Z" fill="currentColor"/>
    <path d="M65.2053 13.1424V14.4395H59.9513V6.99899H64.9912V8.29603H61.6313V9.94307H64.6412V11.1948H61.6313V13.1445H65.2053V13.1424Z" fill="currentColor"/>
    <path d="M72.4441 8.28368H70.2803V14.4395H68.6003V8.28368H66.4242V6.98663H72.4441V8.28368V8.28368Z" fill="currentColor"/>
    <path d="M77.6874 14.4397L77.1809 13.2662H74.3274L73.8086 14.4397H72.1389L75.6677 6.86333H75.9147L79.3879 14.4397H77.6853H77.6874ZM75.748 10.0545L74.8339 12.1174H76.6827L75.7912 10.0545H75.7459H75.748Z" fill="currentColor"/>
    <path d="M83.924 7.00925C84.6899 7.00925 85.3446 7.22336 85.8737 7.66394C86.4151 8.09217 86.6849 8.68922 86.6849 9.4448C86.6849 10.3013 86.199 11.238 85.1963 11.6992L87.1584 14.4394H85.2416L83.2796 11.4068V11.2483C84.4531 11.1124 85.0275 10.4145 85.0275 9.68156C85.0275 8.8251 84.4758 8.28364 83.6069 8.28364H82.592V14.4394H80.912V7.00925H83.9219H83.924Z" fill="currentColor"/>
    <path d="M90.487 14.4395H88.807V6.99899H90.487V14.4395Z" fill="currentColor"/>
    <path d="M97.4663 6.99899H99.134V11.4872C99.134 12.4013 98.8643 13.1445 98.3105 13.7189C97.7587 14.283 96.9681 14.5651 95.9428 14.5651C93.8346 14.5651 92.7517 13.3813 92.7517 11.5201V6.99899H94.4317V11.5098C94.4317 12.4466 94.9608 13.1898 95.9531 13.1898C96.9455 13.1898 97.4643 12.4795 97.4643 11.5654V6.99899H97.4663Z" fill="currentColor"/>
    <path d="M105.304 13.0642H105.055L102.98 10.7975C102.97 10.8078 102.957 10.8078 102.947 10.8078V14.4374H101.335V6.87341H101.582L105.179 11.0342L108.763 6.87341H109V14.4395H107.375V10.8098C107.365 10.7995 107.353 10.7995 107.33 10.7995L105.3 13.0663L105.304 13.0642Z" fill="currentColor"/>
  </symbol>

  <symbol viewBox="0 0 32 32" id="trustWallet">
    <path d="M15.9511 32C24.6517 32 31.705 24.8365 31.705 16C31.705 7.16345 24.6517 0 15.9511 0C7.25051 0 0.197266 7.16345 0.197266 16C0.197266 24.8365 7.25051 32 15.9511 32Z" fill="#3375BB"/>
    <path fill-rule="evenodd" clip-rule="evenodd" d="M15.4154 6.23739C15.7886 5.92087 16.336 5.92087 16.7091 6.23739C19.3802 8.50296 22.4237 8.48541 23.6034 8.4786C23.6624 8.47826 23.7167 8.47795 23.7661 8.47795C24.0339 8.47795 24.2905 8.58536 24.4784 8.77612C24.6663 8.96687 24.7699 9.22505 24.766 9.49281C24.71 13.2556 24.5616 15.9404 24.2703 17.9077C23.9793 19.8732 23.5333 21.2198 22.8141 22.2349C22.0888 23.2587 21.1557 23.8406 20.1627 24.398C19.9907 24.4946 19.8154 24.5912 19.6359 24.69C18.7654 25.1696 17.7988 25.7021 16.6511 26.5382C16.3002 26.7939 15.8244 26.7939 15.4734 26.5382C14.3269 25.7029 13.3615 25.1706 12.4923 24.6914C12.3121 24.592 12.1359 24.4949 11.9631 24.3978C10.9709 23.8403 10.039 23.2582 9.31512 22.234C8.59757 21.2189 8.15308 19.8723 7.86317 17.9072C7.57298 15.9401 7.42516 13.2555 7.36925 9.49281C7.36527 9.22505 7.46886 8.96687 7.6568 8.77612C7.84475 8.58536 8.10135 8.47795 8.36914 8.47795C8.41795 8.47795 8.47172 8.47826 8.53016 8.4786C9.70036 8.48541 12.7442 8.50313 15.4154 6.23739ZM9.38681 10.4712C9.4529 13.679 9.59669 15.9541 9.84175 17.6153C10.112 19.4473 10.493 20.4355 10.9483 21.0796C11.3972 21.7147 11.9856 22.1163 12.9428 22.6542C13.0988 22.7418 13.2634 22.8324 13.4362 22.9276C14.17 23.3318 15.0531 23.8181 16.0623 24.5066C17.0729 23.8173 17.9574 23.3305 18.6924 22.9261C18.8645 22.8314 19.0284 22.7412 19.1838 22.654C20.1423 22.116 20.732 21.7142 21.1822 21.0787C21.6385 20.4346 22.0207 19.4465 22.2919 17.6148C22.5378 15.9538 22.6822 13.679 22.7484 10.4714C21.2303 10.4202 18.5709 10.0991 16.0623 8.27156C13.5568 10.0969 10.9011 10.4194 9.38681 10.4712Z" fill="#fff"/>
  </symbol>

  <symbol viewBox="0 0 64 64" id="walletConnect">
    <g clip-path="url(#logo_box_clip)">
      <path d="M32 64C49.6731 64 64 49.6731 64 32C64 14.3269 49.6731 0 32 0C14.3269 0 0 14.3269 0 32C0 49.6731 14.3269 64 32 64Z" fill="url(#gradient_wallet_connect)"/>
      <path d="M20.0938 24.7156C26.5313 18.4281 36.9812 18.4281 43.4187 24.7156L44.1938 25.4781C44.5188 25.7906 44.5188 26.3031 44.1938 26.6156L41.5437 29.2031C41.3812 29.3656 41.1188 29.3656 40.9563 29.2031L39.8938 28.1656C35.3938 23.7781 28.1187 23.7781 23.6187 28.1656L22.4812 29.2781C22.3187 29.4406 22.0563 29.4406 21.8938 29.2781L19.2438 26.6906C18.9188 26.3781 18.9188 25.8656 19.2438 25.5531L20.0938 24.7156ZM48.9063 30.0656L51.2687 32.3656C51.5938 32.6781 51.5938 33.1906 51.2687 33.5031L40.6313 43.8906C40.3062 44.2031 39.7813 44.2031 39.4688 43.8906L31.9187 36.5156C31.8437 36.4406 31.7063 36.4406 31.6313 36.5156L24.0813 43.8906C23.7563 44.2031 23.2312 44.2031 22.9187 43.8906L12.2437 33.5031C11.9188 33.1906 11.9188 32.6781 12.2437 32.3656L14.6062 30.0656C14.9312 29.7531 15.4563 29.7531 15.7688 30.0656L23.3188 37.4406C23.3938 37.5156 23.5312 37.5156 23.6062 37.4406L31.1563 30.0656C31.4813 29.7531 32.0063 29.7531 32.3188 30.0656L39.8687 37.4406C39.9438 37.5156 40.0813 37.5156 40.1563 37.4406L47.7062 30.0656C48.0562 29.7531 48.5813 29.7531 48.9063 30.0656Z" fill="#fff"/>
    </g>
  </symbol>

  <symbol viewBox="0 0 32 32" id="cake">
    <path d="M5.7,5C5.2,2.4,7.2,0,9.8,0c2.3,0,4.2,1.9,4.2,4.2v5.2c0.6,0,1.2-0.1,1.8-0.1c0.6,0,1.1,0,1.7,0.1V4.2  c0-2.3,1.9-4.2,4.2-4.2c2.6,0,4.6,2.4,4.2,5l-1.1,6.1c3.9,1.7,6.9,4.7,6.9,8.4v2.3c0,3.1-2,5.7-4.9,7.4c-2.9,1.8-6.7,2.8-11,2.8  s-8.1-1-11-2.8C2,27.5,0,24.9,0,21.8v-2.3c0-3.7,2.9-6.7,6.8-8.4L5.7,5z M23.3,11.9l1.3-7.2c0.3-1.8-1-3.5-2.9-3.5  c-1.6,0-2.9,1.3-2.9,2.9v6.6c-0.4-0.1-0.9-0.1-1.3-0.1c-0.6,0-1.1-0.1-1.7-0.1c-0.6,0-1.2,0-1.8,0.1c-0.4,0-0.9,0.1-1.3,0.1V4.2  c0-1.6-1.3-2.9-2.9-2.9C8,1.3,6.6,3,7,4.8L8.3,12c-4.2,1.6-7,4.4-7,7.6v2.3c0,4.9,6.5,8.9,14.5,8.9c8,0,14.5-4,14.5-8.9v-2.3  C30.4,16.3,27.6,13.5,23.3,11.9z"/>
    <path d="M30.4,21.8c0,4.9-6.5,8.9-14.5,8.9c-8,0-14.5-4-14.5-8.9v-2.3h29.1V21.8z"/>
    <path d="M7,4.8C6.6,3,8,1.3,9.8,1.3c1.6,0,2.9,1.3,2.9,2.9v6.6c1-0.1,2-0.2,3.1-0.2c1,0,2,0.1,3,0.2V4.2  c0-1.6,1.3-2.9,2.9-2.9c1.8,0,3.2,1.7,2.9,3.5l-1.3,7.2c4.2,1.6,7.1,4.4,7.1,7.6c0,4.9-6.5,8.9-14.5,8.9c-8,0-14.5-4-14.5-8.9  c0-3.2,2.8-6,7-7.6L7,4.8z"/>
    <path d="M11.8,18.9c0,1.3-0.7,2.4-1.6,2.4c-0.9,0-1.6-1.1-1.6-2.4s0.7-2.4,1.6-2.4C11.1,16.5,11.8,17.6,11.8,18.9z"/>
    <path d="M22.9,18.9c0,1.3-0.7,2.4-1.6,2.4c-0.9,0-1.6-1.1-1.6-2.4s0.7-2.4,1.6-2.4C22.2,16.5,22.9,17.6,22.9,18.9z"/>
  </symbol>

  <symbol viewBox="0 0 336 336" id="busd">
    <path d="M168.2.71l41.5,42.5L105.2,147.71l-41.5-41.5Z"/>
    <path d="M231.2,63.71l41.5,42.5L105.2,273.71l-41.5-41.5Z"/>
    <path d="M42.2,126.71l41.5,42.5-41.5,41.5L.7,169.21Z"/>
    <path d="M294.2,126.71l41.5,42.5L168.2,336.71l-41.5-41.5Z"/>
  </symbol>

  <symbol viewBox="0 0 339.43 295.27" id="usdt">
    <path d="M62.15,1.45l-61.89,130a2.52,2.52,0,0,0,.54,2.94L167.95,294.56a2.55,2.55,0,0,0,3.53,0L338.63,134.4a2.52,2.52,0,0,0,.54-2.94l-61.89-130A2.5,2.5,0,0,0,275,0H64.45a2.5,2.5,0,0,0-2.3,1.45h0Z"/>
    <path d="M191.19,144.8v0c-1.2.09-7.4,0.46-21.23,0.46-11,0-18.81-.33-21.55-0.46v0c-42.51-1.87-74.24-9.27-74.24-18.13s31.73-16.25,74.24-18.15v28.91c2.78,0.2,10.74.67,21.74,0.67,13.2,0,19.81-.55,21-0.66v-28.9c42.42,1.89,74.08,9.29,74.08,18.13s-31.65,16.24-74.08,18.12h0Zm0-39.25V79.68h59.2V40.23H89.21V79.68H148.4v25.86c-48.11,2.21-84.29,11.74-84.29,23.16s36.18,20.94,84.29,23.16v82.9h42.78V151.83c48-2.21,84.12-11.73,84.12-23.14s-36.09-20.93-84.12-23.15h0Zm0,0h0Z"/>
  </symbol>
</svg>