

<svg xmlns="http://www.w3.org/2000/svg" xmlns:xlink="http://www.w3.org/1999/xlink">
  <defs>
    <clipPath id="box_clip">
      <rect width="32" height="32" fill="#fff"/>
    </clipPath>

    <clipPath id="ether_clip">
      <rect width="20" height="20" fill="#fff" transform="translate(6 5.99976)"/>
    </clipPath>

     <clipPath id="logo_box_clip">
      <rect width="64" height="64" fill="#fff"/>
    </clipPath>

    <radialGradient id="gradient_wallet_connect" cx="0" cy="0" r="1" gradientUnits="userSpaceOnUse" gradientTransform="translate(0.000198364 32.001) scale(64)">
      <stop stop-color="#5d9df6"/>
      <stop offset="1" stop-color="#006fff"/>
    </radialGradient>

    <symbol viewBox="0 0 32 32" id="approximate">
      <path d="M7.39929 13.1602C7.17375 12.9673 7.03194 12.6918 7.00478 12.3934C6.97762 12.0948 7.06697 11.7976 7.25392 11.5657C7.33222 11.4632 9.27925 9.1001 12.1607 9.00326C13.9901 8.94053 15.7302 9.78342 17.3245 11.5087C18.4433 12.733 19.6126 13.3309 20.7652 13.3025C22.6284 13.2455 24.0269 11.5941 24.0382 11.56C24.2965 11.259 24.691 11.1177 25.0776 11.188C25.4643 11.2584 25.7863 11.5297 25.9264 11.9032C26.0663 12.2767 26.0037 12.6977 25.7612 13.0121C25.6829 13.1147 23.7358 15.4777 20.8544 15.5746H20.6697C18.9074 15.5746 17.2346 14.7318 15.6905 13.0634C14.5717 11.8392 13.4024 11.2413 12.2498 11.2697C10.3866 11.3267 8.98807 12.978 8.97685 13.0121C8.78728 13.2451 8.51416 13.3915 8.2182 13.4193C7.92223 13.4472 7.62759 13.3538 7.39923 13.1602L7.39929 13.1602ZM24.0382 18.9797C24.0382 18.9797 22.6284 20.6881 20.7653 20.7222C19.6127 20.7222 18.4546 20.1527 17.3245 18.9284C15.73 17.2201 13.9677 16.3603 12.1607 16.423C9.2795 16.5198 7.33263 18.8829 7.25398 18.9855C7.0114 19.3 6.94883 19.7208 7.08876 20.0943C7.22888 20.4679 7.55089 20.7394 7.93752 20.8095C8.32415 20.8799 8.71866 20.7386 8.97699 20.4375C8.97699 20.4375 10.3868 18.7292 12.2499 18.6951C13.4025 18.6951 14.5606 19.2646 15.6907 20.4888C17.2348 22.1573 18.9076 23 20.6698 23H20.8546C23.7358 22.9031 25.6827 20.5401 25.7613 20.4375C26.0039 20.1231 26.0665 19.7022 25.9265 19.3286C25.7864 18.9551 25.4644 18.6838 25.0778 18.6135C24.6911 18.5433 24.2966 18.6844 24.0383 18.9855L24.0382 18.9797Z" fill="currentColor"/>
    </symbol>

    <symbol viewBox="0 0 1000 1000" id="balancer">
      <g>
        <path id="SVGID" d="M500,0c276.1,0,500,223.9,500,500s-223.9,500-500,500S0,776.1,0,500,223.9,0,500,0Z" fill="#fff"/>
        <path id="SVGID-2" data-name="SVGID" d="M507.5,709C347.6,709,218,662.8,218,600.9c0-32.3,35.3-61.4,91.8-81.9,44.1,28.3,118.1,42.8,202,42.8,81.9,0,154.3-17.7,198.8-44.8,53.3,20.3,86.4,48.6,86.4,79.8,0,62-129.6,112.2-289.5,112.2Z" fill="#000" />
        <path id="SVGID-3" data-name="SVGID" d="M509.2,547.9c-121.2,0-219.5-38-219.5-84.9,0-26,30.3-49.3,77.8-64.8,33.9,17.7,84.7,29,141.7,29s107.8-11.3,141.7-29c47.6,15.6,77.8,38.8,77.8,64.8.1,46.9-98.2,84.9-219.5,84.9Z" fill="#000" />
        <path id="SVGID-4" data-name="SVGID" d="M508.4,413.1c-93.7,0-169.7-31.4-169.7-70s76-70,169.7-70,169.7,31.4,169.7,70-76,70-169.7,70Z" fill="#000" />
      </g>
    </symbol>

    <symbol viewBox="0 0 32 32" id="check">
      <path fill-rule="evenodd" clip-rule="evenodd" d="M24.9431 9.72353C25.4638 10.2442 25.4638 11.0885 24.9431 11.6092L13.9431 22.6092C13.4224 23.1299 12.5782 23.1299 12.0575 22.6092L7.05752 17.6092C6.53682 17.0885 6.53682 16.2442 7.05752 15.7235C7.57822 15.2028 8.42244 15.2028 8.94313 15.7235L13.0003 19.7807L23.0575 9.72353C23.5782 9.20283 24.4224 9.20283 24.9431 9.72353Z" fill="currentColor"/>
    </symbol>

    <symbol viewBox="0 0 32 32" id="checkboxOff">
      <g clip-path="url(#box_clip)">
        <path fill-rule="evenodd" clip-rule="evenodd" d="M28 2H4C2.89543 2 2 2.89543 2 4V28C2 29.1046 2.89543 30 4 30H28C29.1046 30 30 29.1046 30 28V4C30 2.89543 29.1046 2 28 2ZM4 0C1.79086 0 0 1.79086 0 4V28C0 30.2091 1.79086 32 4 32H28C30.2091 32 32 30.2091 32 28V4C32 1.79086 30.2091 0 28 0H4Z" fill="#dbdde1"/>
      </g>
    </symbol>

    <symbol viewBox="0 0 32 32" id="checkboxOn">
      <g clip-path="url(#box_clip)">
        <path fill-rule="evenodd" clip-rule="evenodd" d="M28 2H4C2.89543 2 2 2.89543 2 4V28C2 29.1046 2.89543 30 4 30H28C29.1046 30 30 29.1046 30 28V4C30 2.89543 29.1046 2 28 2ZM4 0C1.79086 0 0 1.79086 0 4V28C0 30.2091 1.79086 32 4 32H28C30.2091 32 32 30.2091 32 28V4C32 1.79086 30.2091 0 28 0H4Z" fill="#dbdde1"/>
        <path fill-rule="evenodd" clip-rule="evenodd" d="M26.038 9.29043C26.4299 9.67959 26.4321 10.3128 26.0429 10.7046L14.1262 22.7046C13.9385 22.8937 13.6831 23 13.4167 23C13.1502 23 12.8948 22.8937 12.7071 22.7046L7.29043 17.2501C6.90127 16.8582 6.90348 16.225 7.29536 15.8359C7.68724 15.4467 8.32041 15.4489 8.70957 15.8408L13.4167 20.5808L24.6238 9.29536C25.0129 8.90348 25.6461 8.90127 26.038 9.29043Z" fill="#a370ff"/>
      </g>
    </symbol>

    <symbol viewBox="0 0 32 32" id="chevronDown">
      <path fill-rule="evenodd" clip-rule="evenodd" d="M29.5069 11.2929C29.8974 11.6834 29.8974 12.3166 29.5069 12.7071L21.5069 20.7071C21.1164 21.0976 20.4832 21.0976 20.0927 20.7071L12.0927 12.7071C11.7022 12.3166 11.7022 11.6834 12.0927 11.2929C12.4832 10.9024 13.1164 10.9024 13.5069 11.2929L20.7998 18.5858L28.0927 11.2929C28.4832 10.9024 29.1164 10.9024 29.5069 11.2929Z" fill="currentColor"/>
    </symbol>

    <symbol viewBox="0 0 32 32" id="chevronRight">
      <path fill-rule="evenodd" clip-rule="evenodd" d="M16.0929 7.29289C16.4835 6.90237 17.1166 6.90237 17.5072 7.29289L25.5072 15.2929C25.8977 15.6834 25.8977 16.3166 25.5072 16.7071L17.5072 24.7071C17.1166 25.0976 16.4835 25.0976 16.0929 24.7071C15.7024 24.3166 15.7024 23.6834 16.0929 23.2929L23.3858 16L16.0929 8.70711C15.7024 8.31658 15.7024 7.68342 16.0929 7.29289Z" fill="currentColor"/>
    </symbol>

    <symbol viewBox="0 0 32 32" id="chevronUp">
      <path fill-rule="evenodd" clip-rule="evenodd" d="M29.5069 20.7071C29.8974 20.3166 29.8974 19.6834 29.5069 19.2929L21.5069 11.2929C21.1164 10.9024 20.4832 10.9024 20.0927 11.2929L12.0927 19.2929C11.7022 19.6834 11.7022 20.3166 12.0927 20.7071C12.4832 21.0976 13.1164 21.0976 13.5069 20.7071L20.7998 13.4142L28.0927 20.7071C28.4832 21.0976 29.1164 21.0976 29.5069 20.7071Z" fill="currentColor"/>
    </symbol>

    <symbol viewBox="0 0 32 32" id="close">
      <path fill-rule="evenodd" clip-rule="evenodd" d="M24.7071 8.70711C25.0976 8.31658 25.0976 7.68342 24.7071 7.29289C24.3166 6.90237 23.6834 6.90237 23.2929 7.29289L16 14.5858L8.70711 7.29289C8.31658 6.90237 7.68342 6.90237 7.29289 7.29289C6.90237 7.68342 6.90237 8.31658 7.29289 8.70711L14.5858 16L7.29289 23.2929C6.90237 23.6834 6.90237 24.3166 7.29289 24.7071C7.68342 25.0976 8.31658 25.0976 8.70711 24.7071L16 17.4142L23.2929 24.7071C23.6834 25.0976 24.3166 25.0976 24.7071 24.7071C25.0976 24.3166 25.0976 23.6834 24.7071 23.2929L17.4142 16L24.7071 8.70711Z" fill="currentColor"/>
    </symbol>

    <symbol viewBox="0 0 64 64" id="coinbaseWallet">
      <g clip-path="url(#logo_box_clip)">
        <path d="M32 0C49.675 0 64 14.325 64 32C64 49.675 49.675 64 32 64C14.325 64 0 49.675 0 32C0 14.325 14.325 0 32 0Z" fill="#0052ff"/>
        <path d="M32.0062 43.25C25.7937 43.25 20.7563 38.2188 20.7563 32C20.7563 25.7812 25.7937 20.75 32.0062 20.75C37.575 20.75 42.2 24.8125 43.0875 30.125H54.4188C53.4625 18.575 43.7938 9.5 32 9.5C19.575 9.5 9.5 19.575 9.5 32C9.5 44.425 19.575 54.5 32 54.5C43.7938 54.5 53.4625 45.425 54.4188 33.875H43.0812C42.1875 39.1875 37.575 43.25 32.0062 43.25Z" fill="#fff"/>
      </g>
    </symbol>

    <symbol viewBox="0 0 32 32" id="copy">
      <path d="M24.4 8.79997C26.4329 8.79997 28 10.6284 28 12.7999V24.0001C28 26.1716 26.4329 28 24.4 28H12.4C10.3671 28 8.8 26.1716 8.8 24.0001H11.2C11.2 24.9212 11.7819 25.6 12.4 25.6H24.4C25.0181 25.6 25.6 24.9212 25.6 24.0001V12.7999C25.6 11.8788 25.0181 11.1999 24.4 11.1999V8.79997ZM19.6 4C21.5882 4 23.2 5.6118 23.2 7.59997V19.5999C23.2 21.5881 21.5882 23.1999 19.6 23.1999H7.6C5.61181 23.1999 4 21.5881 4 19.5999V7.59997C4 5.6118 5.61181 4 7.6 4H19.6ZM19.6 6.39998H7.6C6.93721 6.39998 6.4 6.93719 6.4 7.59997V19.5999C6.4 20.2627 6.93721 20.7999 7.6 20.7999H19.6C20.2628 20.7999 20.8 20.2627 20.8 19.5999V7.59997C20.8 6.93719 20.2628 6.39998 19.6 6.39998Z" fill="currentColor"/>
    </symbol>

    <symbol viewBox="0 0 24 24" id="discord">
      <path fill-rule="evenodd" clip-rule="evenodd" d="M10.6888 13.1065C10.7063 12.2334 9.93485 11.5192 8.98248 11.5192C8.02852 11.5192 7.27456 12.2334 7.27456 13.1065C7.27456 13.9795 8.04598 14.6937 8.98248 14.6937C9.93644 14.6937 10.6888 13.9795 10.6888 13.1065ZM16.7983 13.1065C16.7983 12.2334 16.0443 11.5192 15.0904 11.5192C14.1364 11.5192 13.384 12.2334 13.384 13.1065C13.384 13.9795 14.1539 14.6937 15.0904 14.6937C16.0443 14.6937 16.7983 13.9795 16.7983 13.1065ZM16.6744 19C20.2812 18.8835 21.6697 16.4667 21.6697 16.4667C21.6697 11.1001 19.3173 6.74937 19.3173 6.74937C16.9681 4.95097 14.73 5.00018 14.73 5.00018L14.5015 5.26684C17.2776 6.1335 18.5665 7.38428 18.5665 7.38428C17.0508 6.5303 15.3803 5.98642 13.6523 5.7843C12.5562 5.6605 11.449 5.67116 10.3555 5.81604C10.2734 5.81604 10.2024 5.82818 10.125 5.84141C10.1095 5.84405 10.0938 5.84674 10.0777 5.84938C9.50628 5.90017 8.1174 6.11604 6.37139 6.90016C5.76822 7.1827 5.40791 7.38428 5.40791 7.38428C5.40791 7.38428 6.76345 6.06684 9.70152 5.20018L9.53803 5.00018C9.53803 5.00018 7.30154 4.95097 4.95077 6.75096C4.95077 6.75096 2.6 11.1001 2.6 16.4667C2.6 16.4667 3.97141 18.8826 7.57932 19C7.57932 19 8.18248 18.2508 8.67454 17.6175C6.59996 16.9826 5.81743 15.6493 5.81743 15.6493C5.81743 15.6493 5.97933 15.7667 6.27298 15.9334C6.27419 15.9346 6.27541 15.9358 6.27663 15.9371C6.29138 15.9519 6.30727 15.968 6.33806 15.9826C6.36373 16.0008 6.3894 16.0139 6.41508 16.0269C6.43861 16.0389 6.46214 16.0508 6.48568 16.0667C6.89361 16.3001 7.30154 16.4826 7.67614 16.6334C8.34597 16.9001 9.14597 17.1667 10.0777 17.3509C11.4734 17.6244 12.9085 17.6298 14.3062 17.3667C15.1204 17.2214 15.9147 16.9812 16.6729 16.6509C17.2443 16.4334 17.8808 16.1159 18.5506 15.6667C18.5506 15.6667 17.7348 17.0334 15.5951 17.6509C16.0832 18.2811 16.6687 18.9931 16.6744 19Z" fill="currentcolor"/>
    </symbol>

    <symbol viewBox="0 0 32 32" id="done">
      <path fill-rule="evenodd" clip-rule="evenodd" d="M27.9959 14.6321H27.9999C28.7346 14.6321 29.3319 15.2267 29.3332 15.9614C29.3439 19.5227 27.9666 22.8761 25.4546 25.4014C22.9439 27.9267 19.5999 29.3227 16.0386 29.3334H15.9999C12.4519 29.3334 9.11457 27.9574 6.59857 25.4547C4.07323 22.9441 2.67723 19.6001 2.66657 16.0387C2.6559 12.4761 4.03323 9.12408 6.54523 6.59875C9.0559 4.07341 12.3999 2.67741 15.9612 2.66675C17.0212 2.68275 18.1012 2.78941 19.1359 3.03741C19.8506 3.21075 20.2919 3.93075 20.1186 4.64675C19.9466 5.36141 19.2226 5.80141 18.5106 5.63075C17.6826 5.43075 16.8039 5.34675 15.9692 5.33341C13.1199 5.34141 10.4439 6.45875 8.4359 8.47875C6.42657 10.4987 5.32523 13.1814 5.33323 16.0307C5.34123 18.8801 6.45857 21.5547 8.47857 23.5641C10.4919 25.5654 13.1612 26.6667 15.9999 26.6667H16.0306C18.8799 26.6587 21.5559 25.5414 23.5639 23.5214C25.5732 21.5001 26.6746 18.8187 26.6666 15.9694C26.6652 15.2334 27.2599 14.6334 27.9959 14.6321ZM11.0575 15.0563C11.5788 14.5349 12.4215 14.5349 12.9428 15.0563L15.9348 18.0483L24.3308 8.4536C24.8162 7.90293 25.6575 7.84426 26.2122 8.3296C26.7655 8.8136 26.8215 9.65626 26.3362 10.2109L17.0028 20.8776C16.7602 21.1549 16.4135 21.3189 16.0442 21.3323H16.0002C15.6468 21.3323 15.3082 21.1923 15.0575 20.9416L11.0575 16.9416C10.5362 16.4203 10.5362 15.5776 11.0575 15.0563Z" fill="currentColor"/>
    </symbol>

    <symbol viewBox="0 0 32 32" id="ether">
      <rect width="32" height="32" rx="16" fill="#6F97F8"/>
      <g clip-path="url(#ether_clip)">
        <path fill-rule="evenodd" clip-rule="evenodd" d="M16.1331 13.3945L10 16.1868L16.1331 19.8141L16.1331 13.3945Z" fill="#fff" fillOpacity="0.85"/>
        <path fill-rule="evenodd" clip-rule="evenodd" d="M16.1332 19.8142L10 16.1868L16.1332 5.99976V19.8142ZM10.0001 16.1867L16.1332 13.3944L16.1332 19.814L10.0001 16.1867Z" fill="#fff" fillOpacity="0.95"/>
        <path fill-rule="evenodd" clip-rule="evenodd" d="M22.2635 16.1868L16.1329 13.3945L16.1328 13.3946V19.8141L22.2635 16.1868Z" fill="#fff" fillOpacity="0.7"/>
        <path fill-rule="evenodd" clip-rule="evenodd" d="M16.133 13.3945V5.99976L22.2638 16.1868L16.133 19.8142V19.8139L22.2635 16.1867L16.133 13.3945ZM16.133 13.3945L16.1329 13.3944L16.1328 13.3945V19.814L16.133 19.8139V13.3945Z" fill="#fff" fillOpacity="0.75"/>
        <path d="M10 17.3501L16.1332 25.9998V20.9775L10 17.3501Z" fill="#fff" fillOpacity="0.75"/>
        <path d="M16.1333 20.9775V25.9998L22.2689 17.3501L16.1333 20.9775Z" fill="#fff" fillOpacity="0.65"/>
      </g>
    </symbol>

    <symbol viewBox="0 0 32 32" id="export">
      <path fill-rule="evenodd" clip-rule="evenodd" d="M23.0607 6.93934C23.6464 7.52513 23.6464 8.47487 23.0607 9.06066L11.0607 21.0607C10.4749 21.6464 9.52513 21.6464 8.93934 21.0607C8.35355 20.4749 8.35355 19.5251 8.93934 18.9393L20.9393 6.93934C21.5251 6.35355 22.4749 6.35355 23.0607 6.93934Z" fill="currentColor"/>
      <path fill-rule="evenodd" clip-rule="evenodd" d="M8.5 8C8.5 7.17157 9.17157 6.5 10 6.5H22C22.8284 6.5 23.5 7.17157 23.5 8V20C23.5 20.8284 22.8284 21.5 22 21.5C21.1716 21.5 20.5 20.8284 20.5 20V9.5H10C9.17157 9.5 8.5 8.82843 8.5 8Z" fill="currentColor"/>
    </symbol>

    <symbol viewBox="0 0 32 32" id="info">
      <path fill-rule="evenodd" clip-rule="evenodd" d="M16 0C7.17193 0 0 7.1726 0 16C0 24.8274 7.1726 32 16 32C24.8274 32 32 24.8274 32 16C32 7.1726 24.8274 0 16 0ZM16 29.3523C8.60699 29.3523 2.64836 23.3936 2.64836 16.0007C2.64836 8.60772 8.60705 2.64902 16 2.64902C23.393 2.64902 29.3516 8.60772 29.3516 16.0007C29.3516 23.3936 23.393 29.3523 16 29.3523Z" fill="currentColor"/>
      <path fill-rule="evenodd" clip-rule="evenodd" d="M16.1104 11.5867C15.3379 11.5867 14.676 12.2488 14.676 13.0211L14.6758 24.8284C14.6758 25.601 15.3379 26.2628 16.1102 26.2628C16.8827 26.2628 17.5446 25.6007 17.5446 24.8284L17.5448 13.1316C17.5448 12.2489 16.8827 11.5867 16.1104 11.5867V11.5867Z" fill="currentColor"/>
      <path fill-rule="evenodd" clip-rule="evenodd" d="M17.4342 7.28255C17.4342 8.07472 16.792 8.71694 15.9998 8.71694C15.2076 8.71694 14.5654 8.07472 14.5654 7.28255C14.5654 6.49039 15.2076 5.8479 15.9998 5.8479C16.792 5.8479 17.4342 6.49038 17.4342 7.28255Z" fill="currentColor"/>
    </symbol>

    <symbol viewBox="0 0 32 32" id="link">
      <path fill-rule="evenodd" clip-rule="evenodd" d="M27.9829 5.19906C27.9829 4.53678 27.4457 4 26.7829 4H18.2977C17.6349 4 17.0978 4.53678 17.0978 5.19906C17.0978 5.86134 17.6349 6.39812 18.2977 6.39812H23.886L15.752 14.5262C15.2833 14.9945 15.2833 15.7537 15.752 16.2219C16.2206 16.6902 16.9802 16.6902 17.4489 16.2219L25.5829 8.09382V13.678C25.5829 14.3401 26.1203 14.8771 26.7828 14.8771C27.4456 14.8771 27.9828 14.3401 27.9828 13.678L27.9829 5.19906ZM10.9105 27.9998H21.0899C22.0558 27.9998 22.8531 27.9998 23.5024 27.9468C24.177 27.8918 24.797 27.7736 25.3793 27.4771C26.2825 27.0173 27.0168 26.2834 27.4769 25.3811C27.7736 24.7991 27.8919 24.1794 27.947 23.5055C28 22.8567 28 22.0599 28 21.0947V20.2058C28 19.5435 27.4628 19.0068 26.8001 19.0068C26.1373 19.0068 25.6001 19.5435 25.6001 20.2058V21.0451C25.6001 22.0723 25.5991 22.7705 25.5551 23.3104C25.5121 23.8361 25.4342 24.1049 25.3386 24.2924C25.1085 24.7437 24.7413 25.1106 24.2897 25.3405C24.102 25.4361 23.833 25.514 23.3069 25.5569C22.7667 25.6009 22.068 25.6019 21.04 25.6019H10.96C9.932 25.6019 9.23329 25.6009 8.69329 25.5569C8.16717 25.514 7.89815 25.4361 7.71053 25.3405C7.25893 25.1107 6.89168 24.7437 6.66164 24.2924C6.56601 24.1049 6.48807 23.8361 6.44508 23.3104C6.40088 22.7705 6.40008 22.0723 6.40008 21.0451V10.9725C6.40008 9.94525 6.40108 9.24705 6.44508 8.70745C6.48807 8.18171 6.56602 7.91289 6.66164 7.72541C6.89167 7.27413 7.25888 6.90716 7.71053 6.67729C7.89817 6.58173 8.16716 6.50384 8.69329 6.46088C9.2335 6.41672 9.93221 6.41592 10.96 6.41592H11.7999C12.4627 6.41592 12.9998 5.87914 12.9998 5.21686C12.9998 4.55458 12.4627 4.0178 11.7999 4.0178H10.9103C9.94445 4.0178 9.1471 4.0178 8.49781 4.07079C7.82321 4.1258 7.20324 4.24404 6.62086 4.54054C5.71766 5.00045 4.98336 5.7342 4.52312 6.63673C4.22641 7.21869 4.10808 7.83841 4.05303 8.51231C4 9.16133 4 9.95789 4 10.9231V21.0949C4 22.0603 4 22.8569 4.05303 23.5057C4.10808 24.1798 4.22641 24.7993 4.52312 25.3813C4.98337 26.2838 5.71766 27.0176 6.62086 27.4773C7.20324 27.7738 7.82342 27.892 8.49781 27.947C9.1473 28 9.94445 28 10.9105 28L10.9105 27.9998Z" fill="currentColor"/>
    </symbol>

    <symbol viewBox="0 0 32 32" id="loading">
      <circle cx="7" cy="16" r="3" fill="currentColor"/>
      <circle cx="16" cy="16" r="3" fill="currentColor"/>
      <circle cx="25" cy="16" r="3" fill="currentColor"/>
    </symbol>

    <symbol viewBox="0 0 32 32" id="lock">
      <path opacity="0.9" fill-rule="evenodd" clip-rule="evenodd" d="M25.7808 29.9999H6.21919C4.71733 29.9999 3.5 28.8389 3.5 27.4072L3.50032 13.9282C3.50032 12.4962 4.71765 11.3355 6.2195 11.3355H6.74298V10.827H6.76005C6.76163 5.95211 10.9074 2 16.0201 2C21.1347 2 25.2365 5.95319 25.2365 10.8301C25.2365 11.0086 25.2437 11.174 25.2441 11.3356H25.7805C27.2824 11.3356 28.4997 12.4963 28.4997 13.9283L28.5 27.4073C28.5003 28.8393 27.2836 30 25.7811 30L25.7808 29.9999ZM16.0384 5.11291C12.7345 5.11291 10.0561 7.66673 10.0549 10.8161H10.0435V11.336L21.9959 11.3357V11.2947C22.0114 11.1443 22.0231 10.9888 22.0231 10.8182C22.0224 7.6673 19.3434 5.11293 16.0389 5.11293L16.0384 5.11291ZM25.2524 15.4963C25.2524 14.9233 24.7652 14.4592 24.1647 14.4592H7.83677C7.23616 14.4592 6.74907 14.9233 6.74907 15.4963V25.8572C6.74907 26.4302 7.23619 26.8943 7.83677 26.8943H24.1647C24.7653 26.8943 25.2524 26.4299 25.2524 25.8572V15.4963ZM16.2642 23.7685H15.7205C14.9723 23.7685 14.366 23.1904 14.366 22.477V18.8942C14.366 18.1808 14.9723 17.6027 15.7205 17.6027H16.2642C17.0124 17.6027 17.6187 18.1808 17.6187 18.8942V22.477C17.6193 23.1905 17.0124 23.7685 16.2642 23.7685Z" fill="currentColor"/>
    </symbol>

    <symbol viewBox="0 0 318.6 318.6" id="metaMask">
      <polygon points="274.1,35.5 174.6,109.4 193,65.8" fill="#e2761b" stroke="#e2761b" stroke-linecap="round" stroke-linejoin="round" />
      <g>
        <polygon points="44.4,35.5 143.1,110.1 125.6,65.8" fill="#e4761b" stroke="#e4761b" stroke-linecap="round" stroke-linejoin="round" />
        <polygon points="238.3,206.8 211.8,247.4 268.5,263 284.8,207.7" fill="#e4761b" stroke="#e4761b" stroke-linecap="round" stroke-linejoin="round" />
        <polygon points="33.9,207.7 50.1,263 106.8,247.4 80.3,206.8" fill="#e4761b" stroke="#e4761b" stroke-linecap="round" stroke-linejoin="round" />
        <polygon points="103.6,138.2 87.8,162.1 144.1,164.6 142.1,104.1" fill="#e4761b" stroke="#e4761b" stroke-linecap="round" stroke-linejoin="round" />
        <polygon points="214.9,138.2 175.9,103.4 174.6,164.6 230.8,162.1" fill="#e4761b" stroke="#e4761b" stroke-linecap="round" stroke-linejoin="round" />
        <polygon points="106.8,247.4 140.6,230.9 111.4,208.1" fill="#e4761b" stroke="#e4761b" stroke-linecap="round" stroke-linejoin="round" />
        <polygon points="177.9,230.9 211.8,247.4 207.1,208.1" fill="#e4761b" stroke="#e4761b" stroke-linecap="round" stroke-linejoin="round" />
      </g>
      <g>
        <polygon points="211.8,247.4 177.9,230.9 180.6,253 180.3,262.3" fill="#d7c1b3" stroke="#d7c1b3" stroke-linecap="round" stroke-linejoin="round" />
        <polygon points="106.8,247.4 138.3,262.3 138.1,253 140.6,230.9" fill="#d7c1b3" stroke="#d7c1b3" stroke-linecap="round" stroke-linejoin="round" />
      </g>
      <polygon points="138.8,193.5 110.6,185.2 130.5,176.1" fill="#233447" stroke="#233447" stroke-linecap="round" stroke-linejoin="round" />
      <polygon points="179.7,193.5 188,176.1 208,185.2" fill="#233447" stroke="#233447" stroke-linecap="round" stroke-linejoin="round" />
      <g>
        <polygon points="106.8,247.4 111.6,206.8 80.3,207.7" fill="#cd6116" stroke="#cd6116" stroke-linecap="round" stroke-linejoin="round" />
        <polygon points="207,206.8 211.8,247.4 238.3,207.7" fill="#cd6116" stroke="#cd6116" stroke-linecap="round" stroke-linejoin="round" />
        <polygon points="230.8,162.1 174.6,164.6 179.8,193.5 188.1,176.1 208.1,185.2" fill="#cd6116" stroke="#cd6116" stroke-linecap="round" stroke-linejoin="round" />
        <polygon points="110.6,185.2 130.6,176.1 138.8,193.5 144.1,164.6 87.8,162.1" fill="#cd6116" stroke="#cd6116" stroke-linecap="round" stroke-linejoin="round" />
      </g>
      <g>
        <polygon points="87.8,162.1 111.4,208.1 110.6,185.2" fill="#e4751f" stroke="#e4751f" stroke-linecap="round" stroke-linejoin="round" />
        <polygon points="208.1,185.2 207.1,208.1 230.8,162.1" fill="#e4751f" stroke="#e4751f" stroke-linecap="round" stroke-linejoin="round" />
        <polygon points="144.1,164.6 138.8,193.5 145.4,227.6 146.9,182.7" fill="#e4751f" stroke="#e4751f" stroke-linecap="round" stroke-linejoin="round" />
        <polygon points="174.6,164.6 171.9,182.6 173.1,227.6 179.8,193.5" fill="#e4751f" stroke="#e4751f" stroke-linecap="round" stroke-linejoin="round" />
      </g>
      <polygon points="179.8,193.5 173.1,227.6 177.9,230.9 207.1,208.1 208.1,185.2" fill="#f6851b" stroke="#f6851b" stroke-linecap="round" stroke-linejoin="round" />
      <polygon points="110.6,185.2 111.4,208.1 140.6,230.9 145.4,227.6 138.8,193.5" fill="#f6851b" stroke="#f6851b" stroke-linecap="round" stroke-linejoin="round" />
      <polygon points="180.3,262.3 180.6,253 178.1,250.8 140.4,250.8 138.1,253 138.3,262.3 106.8,247.4 117.8,256.4 140.1,271.9 178.4,271.9 200.8,256.4 211.8,247.4" fill="#c0ad9e" stroke="#c0ad9e" stroke-linecap="round" stroke-linejoin="round" />
      <polygon points="177.9,230.9 173.1,227.6 145.4,227.6 140.6,230.9 138.1,253 140.4,250.8 178.1,250.8 180.6,253" fill="#161616" stroke="#161616" stroke-linecap="round" stroke-linejoin="round" />
      <g>
        <polygon points="278.3,114.2 286.8,73.4 274.1,35.5 177.9,106.9 214.9,138.2 267.2,153.5 278.8,140 273.8,136.4 281.8,129.1 275.6,124.3 283.6,118.2" fill="#763d16" stroke="#763d16" stroke-linecap="round" stroke-linejoin="round" />
        <polygon points="31.8,73.4 40.3,114.2 34.9,118.2 42.9,124.3 36.8,129.1 44.8,136.4 39.8,140 51.3,153.5 103.6,138.2 140.6,106.9 44.4,35.5" fill="#763d16" stroke="#763d16" stroke-linecap="round" stroke-linejoin="round" />
      </g>
      <polygon points="267.2,153.5 214.9,138.2 230.8,162.1 207.1,208.1 238.3,207.7 284.8,207.7" fill="#f6851b" stroke="#f6851b" stroke-linecap="round" stroke-linejoin="round" />
      <polygon points="103.6,138.2 51.3,153.5 33.9,207.7 80.3,207.7 111.4,208.1 87.8,162.1" fill="#f6851b" stroke="#f6851b" stroke-linecap="round" stroke-linejoin="round" />
      <polygon points="174.6,164.6 177.9,106.9 193.1,65.8 125.6,65.8 140.6,106.9 144.1,164.6 145.3,182.8 145.4,227.6 173.1,227.6 173.3,182.8" fill="#f6851b" stroke="#f6851b" stroke-linecap="round" stroke-linejoin="round" />
    </symbol>

    <symbol viewBox="0 0 32 32" id="radioOff">
      <path fill-rule="evenodd" clip-rule="evenodd" d="M16 26.6667C10.1186 26.6667 5.33329 21.8814 5.33329 16.0001C5.33329 10.1187 10.1186 5.33341 16 5.33341C21.8813 5.33341 26.6666 10.1187 26.6666 16.0001C26.6666 21.8814 21.8813 26.6667 16 26.6667M16 2.66675C8.63596 2.66675 2.66663 8.63742 2.66663 16.0001C2.66663 23.3627 8.63596 29.3334 16 29.3334C23.364 29.3334 29.3333 23.3627 29.3333 16.0001C29.3333 8.63742 23.364 2.66675 16 2.66675" fill="#fff"/>
    </symbol>

    <symbol viewBox="0 0 32 32" id="radioOn">
      <path fill-rule="evenodd" clip-rule="evenodd" d="M16 2.66675C8.63596 2.66675 2.66663 8.63742 2.66663 16.0001C2.66663 23.3627 8.63596 29.3334 16 29.3334C23.364 29.3334 29.3333 23.3627 29.3333 16.0001C29.3333 8.63742 23.364 2.66675 16 2.66675" fill="#fff"/>
      <path fill-rule="evenodd" clip-rule="evenodd" d="M16 2.66675C8.63596 2.66675 2.66663 8.63742 2.66663 16.0001C2.66663 23.3627 8.63596 29.3334 16 29.3334C23.364 29.3334 29.3333 23.3627 29.3333 16.0001C29.3333 8.63742 23.364 2.66675 16 2.66675" fill="#8549ff"/>
      <path fill-rule="evenodd" clip-rule="evenodd" d="M22.1715 11.259C22.5808 11.6299 22.6119 12.2623 22.241 12.6715L14.991 20.6715C14.809 20.8724 14.5532 20.9907 14.2823 20.9995C14.0113 21.0082 13.7485 20.9066 13.5539 20.7179L9.80385 17.0815C9.40737 16.6971 9.39763 16.064 9.7821 15.6675C10.1666 15.271 10.7997 15.2613 11.1961 15.6457L14.2036 18.5621L20.759 11.3285C21.1299 10.9193 21.7623 10.8882 22.1715 11.259Z" fill="#fff"/>
    </symbol>
    
    <symbol viewBox="0 0 32 32" id="refresh">
      <path d="M21.1754 18.1434C21.3154 17.8057 21.4221 17.4544 21.4934 17.0937L21.1754 18.1434ZM21.1754 18.1434C20.8938 18.8225 20.4799 19.4397 19.9598 19.9598L21.1754 18.1434ZM16 8.9H15.9335L15.9333 8.90038C12.0428 8.93615 8.9 12.1011 8.9 16C8.9 19.9212 12.0788 23.1 16 23.1C17.908 23.1 19.6981 22.3429 21.0204 21.0204C21.6792 20.3618 22.2037 19.5795 22.561 18.7179C22.7388 18.2891 22.8743 17.8429 22.9649 17.3848L22.9649 17.3848C23.0506 16.9513 22.7688 16.5304 22.3353 16.4447C21.902 16.359 21.4811 16.6408 21.3953 17.0743L21.3953 17.0743C21.3253 17.4285 21.2206 17.7735 21.083 18.1051C20.8064 18.772 20.4 19.3782 19.8891 19.889L19.8891 19.8891C18.8639 20.9144 17.4793 21.5 16.0001 21.5C12.9625 21.5 10.5001 19.0375 10.5001 16C10.5001 12.9625 12.9625 10.5 16.0001 10.5C17.4793 10.5 18.8638 11.0856 19.8891 12.111L19.8891 12.111C20.1885 12.4103 20.4519 12.7423 20.6745 13.1002L18.8 13.1V13.0998L18.7943 13.1002L18.7126 13.1049L18.7126 13.1047L18.7068 13.1054C18.3089 13.1516 18 13.4897 18 13.9C18 14.3418 18.3582 14.7 18.8 14.7H22.3V14.7002L22.3057 14.6998L22.3874 14.6951L22.3874 14.6953L22.3932 14.6946C22.7912 14.6484 23.1 14.3103 23.1 13.9V10.4H23.1002L23.0998 10.3943L23.0951 10.3126L23.0953 10.3126L23.0946 10.3068C23.0484 9.90887 22.7103 9.60003 22.3 9.60003V9.59987L22.2943 9.6002L22.2126 9.60489L22.2126 9.60472L22.2068 9.60539C21.8089 9.6516 21.5 9.9897 21.5 10.4V10.4001L21.5014 11.5114C21.3504 11.3264 21.1898 11.1489 21.0205 10.9796C19.6982 9.65711 17.9079 8.9 16 8.9Z" fill="currentColor" stroke="currentColor" stroke-width="0.2"/>
    </symbol>


    <symbol viewBox="0 0 24 24" id="telegram">
      <path fill-rule="evenodd" clip-rule="evenodd" d="M7.70892 13.7817L7.68783 13.7931V13.7947L3.63684 12.5293C2.76077 12.2616 2.75428 11.6581 3.83152 11.2266L19.6218 5.12654C20.5384 4.75016 21.0576 5.22388 20.7607 6.40495L18.0725 19.0949C17.8843 19.9969 17.3408 20.2127 16.5848 19.7958L12.4478 16.7328L10.5204 18.5952C10.5132 18.6022 10.506 18.6091 10.4989 18.6159C10.3091 18.7984 10.1492 18.952 9.85528 18.9911C9.5519 19.0333 9.30206 18.9424 9.12036 18.4379L7.70892 13.7817Z" fill="currentcolor"/>
    </symbol>

    <symbol viewBox="0 0 24 24" id="twitter">
      <path d="M21.8168 6.2163C21.1121 6.52805 20.3647 6.73279 19.5994 6.82374C20.406 6.34133 21.0097 5.5821 21.298 4.68754C20.541 5.13805 19.7111 5.45377 18.8461 5.62455C18.2651 5.00288 17.4949 4.59058 16.6554 4.45175C15.8159 4.31293 14.954 4.45536 14.2038 4.8569C13.4535 5.25844 12.857 5.8966 12.5068 6.67215C12.1567 7.44771 12.0726 8.31722 12.2676 9.1455C10.7325 9.06856 9.23073 8.66963 7.8598 7.97462C6.48886 7.27961 5.27941 6.30405 4.30997 5.11128C3.96682 5.70067 3.78649 6.37068 3.78746 7.05269C3.78746 8.39127 4.46875 9.57385 5.50454 10.2662C4.89157 10.2469 4.29209 10.0814 3.75607 9.7834V9.83141C3.75626 10.7229 4.06475 11.5869 4.62924 12.2769C5.19374 12.9669 5.97949 13.4405 6.85328 13.6173C6.28426 13.7715 5.68761 13.7942 5.1085 13.6838C5.35487 14.4511 5.83504 15.1222 6.48179 15.6031C7.12855 16.084 7.9095 16.3506 8.7153 16.3656C7.91444 16.9945 6.99746 17.4595 6.01679 17.7338C5.03611 18.0082 4.01098 18.0866 3 17.9645C4.76481 19.0994 6.81921 19.702 8.91748 19.7C16.0194 19.7 19.9031 13.8167 19.9031 8.71438C19.9031 8.54821 19.8985 8.3802 19.8911 8.21587C20.6471 7.66952 21.2995 6.9927 21.8178 6.21722L21.8168 6.2163Z" fill="currentcolor"/>
    </symbol>

    <symbol viewBox="0 0 32 32" id="unlock">
      <path fill-rule="evenodd" clip-rule="evenodd" d="M6.61139 31H25.3897C26.8314 31 28 29.8804 28 28.4999V15.5023C28 14.1215 26.8314 13.0022 25.3897 13.0022H10.2524C10.2497 11.6155 10.2521 9.61192 10.2521 9.50262C10.2521 6.46428 12.7914 4.00114 15.9636 4.00114C19.1349 4.00114 21.7332 5.55555 21.7341 8.593V8.59504H21.7498C21.7498 8.59998 21.748 8.60492 21.748 8.61015V9.11005C21.748 9.64716 22.2026 10.0828 22.7637 10.0828H23.8552C24.4163 10.0828 24.8708 9.64742 24.8708 9.11005V8.61015L24.8699 8.60375H24.8811V8.59504H24.869C24.8687 8.56248 24.8629 8.53168 24.859 8.5C24.7995 3.84806 20.8533 1 15.9808 1C11.071 1 7.13345 4.812 7.13345 9.51476C7.13345 9.69146 7.1292 11.7103 7.13375 13.0021H6.6103C5.16858 13.0021 4 14.1214 4 15.5022L4.00061 28.4998C4.00091 29.8807 5.17029 31 6.61139 31ZM7.11875 17.0136C7.11875 16.4611 7.58636 16.0135 8.16289 16.0135H23.837C24.4135 16.0135 24.8811 16.4611 24.8811 17.0136V27.0045C24.8811 27.557 24.4135 28.0046 23.837 28.0046H8.16289C7.58633 28.0046 7.11875 27.5567 7.11875 27.0045V17.0136ZM15.747 24.9904H16.2689C16.9872 24.9904 17.5692 24.433 17.5692 23.745V20.2902C17.5692 19.6022 16.9872 19.0448 16.2689 19.0448H15.747C15.0287 19.0448 14.4467 19.6023 14.4467 20.2902V23.745C14.4461 24.433 15.0288 24.9904 15.747 24.9904Z" fill="currentColor"/>
    </symbol>

    <symbol viewBox="0 0 64 64" id="walletConnect">
      <g clip-path="url(#logo_box_clip)">
        <path d="M32 64C49.6731 64 64 49.6731 64 32C64 14.3269 49.6731 0 32 0C14.3269 0 0 14.3269 0 32C0 49.6731 14.3269 64 32 64Z" fill="url(#gradient_wallet_connect)"/>
        <path d="M20.0938 24.7156C26.5313 18.4281 36.9812 18.4281 43.4187 24.7156L44.1938 25.4781C44.5188 25.7906 44.5188 26.3031 44.1938 26.6156L41.5437 29.2031C41.3812 29.3656 41.1188 29.3656 40.9563 29.2031L39.8938 28.1656C35.3938 23.7781 28.1187 23.7781 23.6187 28.1656L22.4812 29.2781C22.3187 29.4406 22.0563 29.4406 21.8938 29.2781L19.2438 26.6906C18.9188 26.3781 18.9188 25.8656 19.2438 25.5531L20.0938 24.7156ZM48.9063 30.0656L51.2687 32.3656C51.5938 32.6781 51.5938 33.1906 51.2687 33.5031L40.6313 43.8906C40.3062 44.2031 39.7813 44.2031 39.4688 43.8906L31.9187 36.5156C31.8437 36.4406 31.7063 36.4406 31.6313 36.5156L24.0813 43.8906C23.7563 44.2031 23.2312 44.2031 22.9187 43.8906L12.2437 33.5031C11.9188 33.1906 11.9188 32.6781 12.2437 32.3656L14.6062 30.0656C14.9312 29.7531 15.4563 29.7531 15.7688 30.0656L23.3188 37.4406C23.3938 37.5156 23.5312 37.5156 23.6062 37.4406L31.1563 30.0656C31.4813 29.7531 32.0063 29.7531 32.3188 30.0656L39.8687 37.4406C39.9438 37.5156 40.0813 37.5156 40.1563 37.4406L47.7062 30.0656C48.0562 29.7531 48.5813 29.7531 48.9063 30.0656Z" fill="#fff"/>
      </g>
    </symbol>


    <symbol viewBox="0 0 32 32" id="warning">
      <path d="M16 0C7.16333 0 0 7.16333 0 16C0 24.8367 7.16333 32 16 32C24.8361 32 32 24.8367 32 16C32 7.16333 24.8367 0 16 0ZM13.737 9.4331C13.737 8.17205 14.7504 7.14981 16 7.14981C17.2499 7.14981 18.263 8.1718 18.263 9.4331V16.2821C18.263 17.5431 17.2499 18.5651 16 18.5651C14.7506 18.5651 13.737 17.5431 13.737 16.2821V9.4331ZM16 26.1864C14.6687 26.1864 13.5893 25.0976 13.5893 23.7542C13.5893 22.411 14.6687 21.322 16 21.322C17.3315 21.322 18.4109 22.411 18.4109 23.7542C18.4107 25.0976 17.3315 26.1864 16 26.1864Z" fill="currentColor"/>
    </symbol>

    <symbol viewBox="0 0 32 32" id="wncgDark">
      <g clip-path="url(#box_clip)">
        <path fill-rule="evenodd" clip-rule="evenodd" d="M15.9995 2.02801C8.29633 2.02801 2.04036 8.27724 2.04036 16C2.04036 23.7228 8.29633 29.972 15.9995 29.972C23.7026 29.972 29.9586 23.7228 29.9586 16C29.9586 8.27724 23.7026 2.02801 15.9995 2.02801ZM0 16C0 7.16968 7.15696 0 15.9995 0C24.842 0 31.999 7.16968 31.999 16C31.999 24.8303 24.842 32 15.9995 32C7.15696 32 0 24.8303 0 16Z" fill="#fff"/>
        <path d="M8.96758 22.4613L9.60213 9.0987H13.6951L19.4673 18.2623L19.8549 7.81497L23.8979 6.04553C21.726 4.342 18.9847 3.32495 16.0038 3.32495C8.96044 3.32495 3.25049 9.00034 3.25049 16.001C3.25049 18.9437 4.25945 21.6511 5.95193 23.8028L8.96758 22.4623V22.4613Z" fill="#fff"/>
        <path d="M26.0415 8.18091L23.1176 9.48086L22.4831 22.8434H18.3901L18.382 22.8313L12.6169 13.6809L12.2292 24.1282L8.08936 25.9402C10.2644 27.6529 13.0138 28.676 16.0039 28.676C23.0472 28.676 28.7572 23.0006 28.7572 15.9999C28.7572 13.0491 27.7431 10.3347 26.0425 8.18091H26.0415Z" fill="#fff"/>
      </g>
    </symbol>

    <symbol viewBox="0 0 32 32" id="wncgLight">
      <g clip-path="url(#box_clip)">
        <path fill-rule="evenodd" clip-rule="evenodd" d="M15.9995 2.02801C8.29633 2.02801 2.04036 8.27724 2.04036 16C2.04036 23.7228 8.29633 29.972 15.9995 29.972C23.7026 29.972 29.9586 23.7228 29.9586 16C29.9586 8.27724 23.7026 2.02801 15.9995 2.02801ZM0 16C0 7.16968 7.15696 0 15.9995 0C24.842 0 31.999 7.16968 31.999 16C31.999 24.8303 24.842 32 15.9995 32C7.15696 32 0 24.8303 0 16Z" fill="#121212"/>
        <path d="M8.96758 22.4613L9.60213 9.0987H13.6951L19.4673 18.2623L19.8549 7.81497L23.8979 6.04553C21.726 4.342 18.9847 3.32495 16.0038 3.32495C8.96044 3.32495 3.25049 9.00034 3.25049 16.001C3.25049 18.9437 4.25945 21.6511 5.95193 23.8028L8.96758 22.4623V22.4613Z" fill="#377588"/>
        <path d="M26.0415 8.18091L23.1176 9.48086L22.4831 22.8434H18.3901L18.382 22.8313L12.6169 13.6809L12.2292 24.1282L8.08936 25.9402C10.2644 27.6529 13.0138 28.676 16.0039 28.676C23.0472 28.676 28.7572 23.0006 28.7572 15.9999C28.7572 13.0491 27.7431 10.3347 26.0425 8.18091H26.0415Z" fill="#377588"/>
      </g>
    </symbol>
  </defs>
</svg>