<svg xmlns="http://www.w3.org/2000/svg" xmlns:xlink="http://www.w3.org/1999/xlink">
  <defs>
    <symbol viewBox="0 0 24 24" id="alert">
      <path d="M12.866 2.99996L22.392 19.5C22.4798 19.652 22.526 19.8244 22.526 20C22.526 20.1755 22.4798 20.3479 22.392 20.4999C22.3042 20.652 22.178 20.7782 22.026 20.866C21.874 20.9537 21.7015 21 21.526 21H2.474C2.29847 21 2.12603 20.9537 1.97401 20.866C1.822 20.7782 1.69576 20.652 1.608 20.4999C1.52023 20.3479 1.47403 20.1755 1.47403 20C1.47403 19.8244 1.52024 19.652 1.608 19.5L11.134 2.99996C11.2218 2.84795 11.348 2.72172 11.5 2.63396C11.652 2.5462 11.8245 2.5 12 2.5C12.1755 2.5 12.348 2.5462 12.5 2.63396C12.652 2.72172 12.7782 2.84795 12.866 2.99996ZM11 16V18H13V16H11ZM11 8.99996V14H13V8.99996H11Z" fill="currentcolor"/>
    </symbol>

    <symbol viewBox="0 0 10 10" id="approximate">
      <path d="m6.725 4.5c.406 0 .759-.088 1.06-.264.3-.175.705-.561 1.215-1.156l-.608-.71c-.392.458-.686.744-.882.858-.196.115-.445.172-.745.172-.223 0-.464-.053-.726-.16-.117-.046-.372-.168-.764-.366-.497-.245-.765-.375-.804-.39-.471-.214-.87-.32-1.196-.32-.406 0-.759.087-1.06.263-.3.176-.705.561-1.215 1.156l.608.71c.392-.458.686-.744.882-.858.196-.115.445-.172.745-.172.223 0 .464.053.726.16.117.046.398.18.843.4.444.222.686.34.725.356.471.214.87.32 1.196.32zm0 3.336c.406 0 .759-.087 1.06-.263.3-.176.705-.561 1.215-1.156l-.608-.71c-.392.458-.686.744-.882.858-.196.115-.445.172-.745.172-.223 0-.464-.053-.726-.16-.117-.046-.372-.168-.764-.367-.497-.244-.765-.374-.804-.389-.471-.214-.87-.32-1.196-.32-.406 0-.759.087-1.06.263-.3.175-.705.561-1.215 1.156l.608.71c.392-.458.686-.744.882-.858.196-.115.445-.172.745-.172.223 0 .464.053.726.16.117.046.398.18.843.4.444.222.686.34.725.356.471.214.87.32 1.196.32z" fill="currentColor" stroke="currentColor" stroke-width="0.1" />
    </symbol>

    <symbol viewBox="0 0 24 24" id="arrowLeft">
      <path d="M10.828 12L15.778 16.95L14.364 18.364L8 12L14.364 5.63599L15.778 7.04999L10.828 12Z" fill="currentcolor"/>
    </symbol>

    <symbol viewBox="0 0 24 24" id="arrowRight">
      <path d="M13.172 12L8.22198 7.04999L9.63598 5.63599L16 12L9.63598 18.364L8.22198 16.95L13.172 12Z" fill="currentcolor"/>
    </symbol>

    <symbol viewBox="0 0 25 11" id="beta">
      <path d="M3.14601 10.156C2.76467 10.156 2.45267 10.0607 2.21001 9.87C1.96734 9.67933 1.79834 9.376 1.70301 8.96H1.57301L0.910008 10H0.208008L2.39201 1.238H1.27401L1.41701 0.652995L4.09501 0.119995L2.61301 5.424L2.74301 5.463C2.89901 5.13366 3.05934 4.826 3.22401 4.54C3.38867 4.24533 3.56634 3.994 3.75701 3.786C3.95634 3.56933 4.16867 3.40033 4.39401 3.279C4.62801 3.149 4.88801 3.084 5.17401 3.084C5.65934 3.084 6.00601 3.253 6.21401 3.591C6.43067 3.929 6.53901 4.41 6.53901 5.034C6.53901 5.57133 6.46101 6.14333 6.30501 6.75C6.14901 7.348 5.92367 7.90266 5.62901 8.414C5.33434 8.91666 4.97901 9.33266 4.56301 9.66199C4.14701 9.99133 3.67467 10.156 3.14601 10.156ZM2.76901 9.363C3.16767 9.363 3.54034 9.17233 3.88701 8.791C4.24234 8.401 4.52834 7.81166 4.74501 7.023C4.77967 6.87566 4.81867 6.711 4.86201 6.529C4.90534 6.33833 4.94001 6.14766 4.96601 5.957C5.00067 5.76633 5.02667 5.58433 5.04401 5.411C5.07001 5.23766 5.08301 5.08599 5.08301 4.956C5.08301 4.67866 5.05267 4.462 4.99201 4.306C4.93134 4.15 4.81001 4.072 4.62801 4.072C4.37667 4.072 4.12101 4.20633 3.86101 4.475C3.60967 4.735 3.36701 5.05566 3.13301 5.437C2.90767 5.80966 2.70834 6.204 2.53501 6.62C2.36167 7.036 2.23601 7.39566 2.15801 7.699L2.09301 7.959C1.98901 8.375 1.98901 8.713 2.09301 8.973C2.19701 9.233 2.42234 9.363 2.76901 9.363Z" fill="currentColor" />
      <path d="M9.27043 10.156C8.63776 10.156 8.1741 9.97399 7.87943 9.60999C7.59343 9.24599 7.45043 8.713 7.45043 8.011C7.45043 7.68166 7.48076 7.33066 7.54143 6.958C7.6021 6.58533 7.6931 6.217 7.81443 5.853C7.94443 5.489 8.1091 5.14233 8.30843 4.813C8.50776 4.475 8.74176 4.18033 9.01043 3.929C9.2791 3.669 9.58243 3.46533 9.92043 3.318C10.2671 3.162 10.6528 3.084 11.0774 3.084C11.3028 3.084 11.5194 3.11 11.7274 3.162C11.9441 3.20533 12.1348 3.279 12.2994 3.383C12.4728 3.487 12.6071 3.62566 12.7024 3.799C12.8064 3.97233 12.8584 4.18466 12.8584 4.436C12.8584 4.66133 12.8021 4.89533 12.6894 5.138C12.5768 5.372 12.3774 5.593 12.0914 5.801C11.8141 6.009 11.4328 6.18666 10.9474 6.334C10.4621 6.48133 9.8511 6.581 9.11443 6.633C9.0451 6.91033 8.98876 7.18766 8.94543 7.465C8.91076 7.73366 8.89343 7.97633 8.89343 8.193C8.89343 8.92966 9.17943 9.298 9.75143 9.298C10.1414 9.298 10.5098 9.13333 10.8564 8.804C11.2118 8.47466 11.5454 8.01533 11.8574 7.426L12.2994 7.634C12.0914 8.05 11.8834 8.41833 11.6754 8.739C11.4674 9.051 11.2421 9.31533 10.9994 9.532C10.7654 9.74 10.5054 9.896 10.2194 10C9.93343 10.104 9.6171 10.156 9.27043 10.156ZM9.21843 6.178C10.0851 6.06533 10.7004 5.86166 11.0644 5.567C11.4284 5.26366 11.6104 4.88233 11.6104 4.423C11.6104 4.20633 11.5584 4.02866 11.4544 3.89C11.3591 3.75133 11.1901 3.68199 10.9474 3.68199C10.7568 3.68199 10.5834 3.72533 10.4274 3.812C10.2714 3.89 10.1241 4.02866 9.98543 4.228C9.84676 4.41866 9.71243 4.67433 9.58243 4.995C9.4611 5.31566 9.33976 5.71 9.21843 6.178Z" fill="currentColor" />
      <path d="M14.6389 10.156C14.3009 10.156 14.0583 10.0693 13.9109 9.896C13.7636 9.714 13.6899 9.51033 13.6899 9.285C13.6899 9.181 13.7029 9.06833 13.7289 8.94699C13.7549 8.81699 13.7766 8.70866 13.7939 8.622L14.9639 3.916H13.8329L14.0019 3.24H14.5349C14.8123 3.24 15.0203 3.19666 15.1589 3.11C15.2976 3.01466 15.4276 2.85866 15.5489 2.64199L16.2379 1.433H16.9789L16.5369 3.24H18.1229L17.9539 3.916H16.3679L15.0679 9.142L15.2889 9.272L17.0049 7.868L17.3559 8.193L16.1339 9.337C15.9519 9.51033 15.7916 9.65333 15.6529 9.766C15.5143 9.87 15.3886 9.95233 15.2759 10.013C15.1633 10.0737 15.0549 10.1127 14.9509 10.13C14.8556 10.1473 14.7516 10.156 14.6389 10.156Z" fill="currentColor" />
      <path d="M19.517 10.156C19.0316 10.156 18.6806 9.987 18.464 9.649C18.256 9.311 18.152 8.83 18.152 8.206C18.152 7.66866 18.23 7.101 18.386 6.503C18.542 5.89633 18.763 5.34166 19.049 4.839C19.3436 4.32766 19.699 3.90733 20.115 3.578C20.5396 3.24866 21.0163 3.084 21.545 3.084C21.9263 3.084 22.2383 3.17933 22.481 3.36999C22.7236 3.56066 22.8926 3.864 22.988 4.28H23.118L23.781 3.24H24.483L22.975 9.181L23.209 9.285L24.561 7.803L24.951 8.063L24.106 9.142C23.8026 9.52333 23.5426 9.78766 23.326 9.935C23.118 10.0823 22.9013 10.156 22.676 10.156C22.3466 10.156 22.1126 10.0693 21.974 9.896C21.844 9.72266 21.779 9.52333 21.779 9.298C21.779 9.18533 21.7876 9.064 21.805 8.934C21.831 8.804 21.857 8.69133 21.883 8.59599L22.078 7.816L21.948 7.777C21.792 8.115 21.6316 8.43133 21.467 8.726C21.3023 9.012 21.1203 9.26333 20.921 9.48C20.7303 9.688 20.518 9.85266 20.284 9.974C20.05 10.0953 19.7943 10.156 19.517 10.156ZM20.063 9.168C20.3056 9.168 20.557 9.038 20.817 8.778C21.077 8.50933 21.3196 8.18866 21.545 7.816C21.779 7.43466 21.9826 7.036 22.156 6.62C22.3293 6.204 22.455 5.84433 22.533 5.541L22.598 5.281C22.702 4.865 22.702 4.527 22.598 4.267C22.494 4.007 22.2686 3.877 21.922 3.877C21.5233 3.877 21.1463 4.072 20.791 4.462C20.4443 4.84333 20.1626 5.42833 19.946 6.217C19.9026 6.36433 19.8593 6.53333 19.816 6.724C19.7813 6.906 19.7466 7.09233 19.712 7.283C19.686 7.47366 19.66 7.65566 19.634 7.829C19.6166 8.00233 19.608 8.154 19.608 8.284C19.608 8.56133 19.6383 8.778 19.699 8.934C19.7596 9.09 19.881 9.168 20.063 9.168Z" fill="currentColor" />
    </symbol>

    <svg viewBox="0 0 24 24" id="bin">
      <path d="M17 6H22V8H20V21C20 21.2652 19.8946 21.5196 19.7071 21.7071C19.5196 21.8946 19.2652 22 19 22H5C4.73478 22 4.48043 21.8946 4.29289 21.7071C4.10536 21.5196 4 21.2652 4 21V8H2V6H7V3C7 2.73478 7.10536 2.48043 7.29289 2.29289C7.48043 2.10536 7.73478 2 8 2H16C16.2652 2 16.5196 2.10536 16.7071 2.29289C16.8946 2.48043 17 2.73478 17 3V6ZM18 8H6V20H18V8ZM9 11H11V17H9V11ZM13 11H15V17H13V11ZM9 4V6H15V4H9Z" fill="currentColor"/>
    </svg>

    <symbol viewBox="0 0 24 24" id="check">
      <path d="M9.99999 15.172L19.192 5.979L20.607 7.393L9.99999 18L3.63599 11.636L5.04999 10.222L9.99999 15.172Z" fill="currentcolor"/>
    </symbol>

    <symbol viewBox="0 0 24 24" id="checkCircle">
      <path d="M12 22C6.477 22 2 17.523 2 12C2 6.477 6.477 2 12 2C17.523 2 22 6.477 22 12C22 17.523 17.523 22 12 22ZM11.003 16L18.073 8.929L16.659 7.515L11.003 13.172L8.174 10.343L6.76 11.757L11.003 16Z" fill="currentcolor"/>
    </symbol>

    <symbol viewBox="0 0 24 24" id="clipboard">
      <path d="M7 6V3C7 2.73478 7.10536 2.48043 7.29289 2.29289C7.48043 2.10536 7.73478 2 8 2H20C20.2652 2 20.5196 2.10536 20.7071 2.29289C20.8946 2.48043 21 2.73478 21 3V17C21 17.2652 20.8946 17.5196 20.7071 17.7071C20.5196 17.8946 20.2652 18 20 18H17V21C17 21.552 16.55 22 15.993 22H4.007C3.87513 22.0008 3.7444 21.9755 3.62232 21.9256C3.50025 21.8757 3.38923 21.8022 3.29566 21.7093C3.20208 21.6164 3.12779 21.5059 3.07705 21.3841C3.02632 21.2624 3.00013 21.1319 3 21L3.003 7C3.003 6.448 3.453 6 4.01 6H7ZM5.003 8L5 20H15V8H5.003ZM9 6H17V16H19V4H9V6Z" fill="currentColor"/>
    </symbol>

    <symbol viewBox="0 0 24 24" id="clock">
      <path d="M12.0001 22C10.8182 22 9.64785 21.7672 8.55592 21.3149C7.46399 20.8626 6.47184 20.1997 5.63611 19.364C4.80038 18.5282 4.13745 17.5361 3.68515 16.4442C3.23286 15.3522 3.00007 14.1819 3.00007 13C3.00007 11.8181 3.23286 10.6478 3.68515 9.55585C4.13745 8.46392 4.80038 7.47177 5.63611 6.63604C6.47184 5.80031 7.46399 5.13738 8.55592 4.68509C9.64785 4.23279 10.8182 4 12.0001 4C14.387 4 16.6762 4.94821 18.364 6.63604C20.0519 8.32387 21.0001 10.6131 21.0001 13C21.0001 15.387 20.0519 17.6761 18.364 19.364C16.6762 21.0518 14.387 22 12.0001 22ZM12.0001 20C12.9193 20 13.8296 19.8189 14.6789 19.4672C15.5281 19.1154 16.2998 18.5998 16.9498 17.9497C17.5998 17.2997 18.1154 16.5281 18.4672 15.6788C18.819 14.8295 19.0001 13.9193 19.0001 13C19.0001 12.0807 18.819 11.1705 18.4672 10.3212C18.1154 9.47194 17.5998 8.70026 16.9498 8.05025C16.2998 7.40024 15.5281 6.88463 14.6789 6.53284C13.8296 6.18106 12.9193 6 12.0001 6C10.1436 6 8.36308 6.7375 7.05032 8.05025C5.73757 9.36301 5.00007 11.1435 5.00007 13C5.00007 14.8565 5.73757 16.637 7.05032 17.9497C8.36308 19.2625 10.1436 20 12.0001 20ZM13.0001 13H16.0001V15H11.0001V8H13.0001V13ZM1.74707 6.282L5.28207 2.747L6.69707 4.161L3.16007 7.697L1.74707 6.282ZM18.7171 2.747L22.2531 6.282L20.8391 7.697L17.3031 4.161L18.7181 2.747H18.7171Z" fill="currentColor"/>
    </symbol>

    <symbol viewBox="0 0 24 24" id="close">
      <path d="M12 10.586L16.95 5.63599L18.364 7.04999L13.414 12L18.364 16.95L16.95 18.364L12 13.414L7.04999 18.364L5.63599 16.95L10.586 12L5.63599 7.04999L7.04999 5.63599L12 10.586Z" fill="currentcolor"/>
    </symbol>

    <symbol viewBox="0 0 24 24" id="closeCircle">
      <path d="M12 22C6.477 22 2 17.523 2 12C2 6.477 6.477 2 12 2C17.523 2 22 6.477 22 12C22 17.523 17.523 22 12 22ZM12 10.586L9.172 7.757L7.757 9.172L10.586 12L7.757 14.828L9.172 16.243L12 13.414L14.828 16.243L16.243 14.828L13.414 12L16.243 9.172L14.828 7.757L12 10.586Z" fill="currentcolor"/>
    </symbol>

    <symbol viewBox="0 0 24 24" id="diamond">
      <path d="M11.375 24C11.1458 22.6458 10.5417 21.1875 9.5625 19.625C8.58333 18.0417 7.1875 16.5729 5.375 15.2187C3.58333 13.8646 1.79167 13 0 12.625V11.3125C1.77083 10.8958 3.46875 10.125 5.09375 9C6.73958 7.85417 8.11458 6.47917 9.21875 4.875C10.3437 3.22917 11.0625 1.60417 11.375 0H12.6875C12.875 1.04167 13.25 2.11458 13.8125 3.21875C14.375 4.30208 15.0938 5.34375 15.9688 6.34375C16.8646 7.32292 17.8646 8.20833 18.9688 9C20.6146 10.1667 22.2917 10.9375 24 11.3125V12.625C22.8542 12.8542 21.6667 13.3229 20.4375 14.0312C19.2292 14.7396 18.1042 15.5833 17.0625 16.5625C16.0208 17.5208 15.1667 18.5312 14.5 19.5937C13.5208 21.1562 12.9167 22.625 12.6875 24H11.375Z" fill="currentColor"/>
    </symbol>

    <symbol viewBox="0 0 24 24" id="discord">
      <path fill-rule="evenodd" clip-rule="evenodd" d="M10.6888 13.1065C10.7063 12.2334 9.93485 11.5192 8.98248 11.5192C8.02852 11.5192 7.27456 12.2334 7.27456 13.1065C7.27456 13.9795 8.04598 14.6937 8.98248 14.6937C9.93644 14.6937 10.6888 13.9795 10.6888 13.1065ZM16.7983 13.1065C16.7983 12.2334 16.0443 11.5192 15.0904 11.5192C14.1364 11.5192 13.384 12.2334 13.384 13.1065C13.384 13.9795 14.1539 14.6937 15.0904 14.6937C16.0443 14.6937 16.7983 13.9795 16.7983 13.1065ZM16.6744 19C20.2812 18.8835 21.6697 16.4667 21.6697 16.4667C21.6697 11.1001 19.3173 6.74937 19.3173 6.74937C16.9681 4.95097 14.73 5.00018 14.73 5.00018L14.5015 5.26684C17.2776 6.1335 18.5665 7.38428 18.5665 7.38428C17.0508 6.5303 15.3803 5.98642 13.6523 5.7843C12.5562 5.6605 11.449 5.67116 10.3555 5.81604C10.2734 5.81604 10.2024 5.82818 10.125 5.84141C10.1095 5.84405 10.0938 5.84674 10.0777 5.84938C9.50628 5.90017 8.1174 6.11604 6.37139 6.90016C5.76822 7.1827 5.40791 7.38428 5.40791 7.38428C5.40791 7.38428 6.76345 6.06684 9.70152 5.20018L9.53803 5.00018C9.53803 5.00018 7.30154 4.95097 4.95077 6.75096C4.95077 6.75096 2.6 11.1001 2.6 16.4667C2.6 16.4667 3.97141 18.8826 7.57932 19C7.57932 19 8.18248 18.2508 8.67454 17.6175C6.59996 16.9826 5.81743 15.6493 5.81743 15.6493C5.81743 15.6493 5.97933 15.7667 6.27298 15.9334C6.27419 15.9346 6.27541 15.9358 6.27663 15.9371C6.29138 15.9519 6.30727 15.968 6.33806 15.9826C6.36373 16.0008 6.3894 16.0139 6.41508 16.0269C6.43861 16.0389 6.46214 16.0508 6.48568 16.0667C6.89361 16.3001 7.30154 16.4826 7.67614 16.6334C8.34597 16.9001 9.14597 17.1667 10.0777 17.3509C11.4734 17.6244 12.9085 17.6298 14.3062 17.3667C15.1204 17.2214 15.9147 16.9812 16.6729 16.6509C17.2443 16.4334 17.8808 16.1159 18.5506 15.6667C18.5506 15.6667 17.7348 17.0334 15.5951 17.6509C16.0832 18.2811 16.6687 18.9931 16.6744 19Z" fill="currentcolor"/>
    </symbol>

    <symbol viewBox="0 0 24 24" id="externalLink">
      <path d="M10 6V8H5V19H16V14H18V20C18 20.2652 17.8946 20.5196 17.7071 20.7071C17.5196 20.8946 17.2652 21 17 21H4C3.73478 21 3.48043 20.8946 3.29289 20.7071C3.10536 20.5196 3 20.2652 3 20V7C3 6.73478 3.10536 6.48043 3.29289 6.29289C3.48043 6.10536 3.73478 6 4 6H10ZM21 3V11H19V6.413L11.207 14.207L9.793 12.793L17.585 5H13V3H21Z" fill="currentColor"/>
    </symbol>

    <symbol viewBox="0 0 24 24" id="github">
      <path d="M12 2C6.475 2 2 6.475 2 12C1.99887 14.0993 2.65882 16.1456 3.88622 17.8487C5.11362 19.5517 6.84615 20.8251 8.838 21.488C9.338 21.575 9.525 21.275 9.525 21.012C9.525 20.775 9.512 19.988 9.512 19.15C7 19.613 6.35 18.538 6.15 17.975C6.037 17.687 5.55 16.8 5.125 16.562C4.775 16.375 4.275 15.912 5.112 15.9C5.9 15.887 6.462 16.625 6.65 16.925C7.55 18.437 8.988 18.012 9.562 17.75C9.65 17.1 9.912 16.663 10.2 16.413C7.975 16.163 5.65 15.3 5.65 11.475C5.65 10.387 6.037 9.488 6.675 8.787C6.575 8.537 6.225 7.512 6.775 6.137C6.775 6.137 7.612 5.875 9.525 7.163C10.3391 6.93706 11.1802 6.82334 12.025 6.825C12.875 6.825 13.725 6.937 14.525 7.162C16.437 5.862 17.275 6.138 17.275 6.138C17.825 7.513 17.475 8.538 17.375 8.788C18.012 9.488 18.4 10.375 18.4 11.475C18.4 15.313 16.063 16.163 13.838 16.413C14.2 16.725 14.513 17.325 14.513 18.263C14.513 19.6 14.5 20.675 14.5 21.013C14.5 21.275 14.688 21.587 15.188 21.487C17.173 20.8168 18.8979 19.541 20.1199 17.8392C21.3419 16.1373 21.9994 14.0951 22 12C22 6.475 17.525 2 12 2Z" fill="currentColor"/>
    </symbol>

    <symbol viewBox="0 0 24 24" id="lock">
      <path d="M19 10H20C20.2652 10 20.5196 10.1054 20.7071 10.2929C20.8946 10.4804 21 10.7348 21 11V21C21 21.2652 20.8946 21.5196 20.7071 21.7071C20.5196 21.8946 20.2652 22 20 22H4C3.73478 22 3.48043 21.8946 3.29289 21.7071C3.10536 21.5196 3 21.2652 3 21V11C3 10.7348 3.10536 10.4804 3.29289 10.2929C3.48043 10.1054 3.73478 10 4 10H5V9C5 8.08075 5.18106 7.1705 5.53284 6.32122C5.88463 5.47194 6.40024 4.70026 7.05025 4.05025C7.70026 3.40024 8.47194 2.88463 9.32122 2.53284C10.1705 2.18106 11.0807 2 12 2C12.9193 2 13.8295 2.18106 14.6788 2.53284C15.5281 2.88463 16.2997 3.40024 16.9497 4.05025C17.5998 4.70026 18.1154 5.47194 18.4672 6.32122C18.8189 7.1705 19 8.08075 19 9V10ZM17 10V9C17 7.67392 16.4732 6.40215 15.5355 5.46447C14.5979 4.52678 13.3261 4 12 4C10.6739 4 9.40215 4.52678 8.46447 5.46447C7.52678 6.40215 7 7.67392 7 9V10H17ZM11 14V18H13V14H11Z" fill="currentColor"/>
    </symbol>

    <symbol viewBox="0 0 24 24" id="info">
      <path d="M12 22C6.477 22 2 17.523 2 12C2 6.477 6.477 2 12 2C17.523 2 22 6.477 22 12C22 17.523 17.523 22 12 22ZM12 20C14.1217 20 16.1566 19.1571 17.6569 17.6569C19.1571 16.1566 20 14.1217 20 12C20 9.87827 19.1571 7.84344 17.6569 6.34315C16.1566 4.84285 14.1217 4 12 4C9.87827 4 7.84344 4.84285 6.34315 6.34315C4.84285 7.84344 4 9.87827 4 12C4 14.1217 4.84285 16.1566 6.34315 17.6569C7.84344 19.1571 9.87827 20 12 20V20ZM11 7H13V9H11V7ZM11 11H13V17H11V11Z" fill="currentColor"/>
    </symbol>

    <symbol viewBox="0 0 24 24" id="medium">
      <path fill-rule="evenodd" clip-rule="evenodd" d="M19.1913 17.4662C19.1913 17.604 19.2596 17.8086 19.396 17.8768H19.3987L20.7 19.1781V19.2463H13.9874V19.1781L15.3583 17.8768C15.4947 17.739 15.5629 17.6026 15.5629 17.398V9.3159C15.5629 8.97215 15.5629 8.492 15.6311 8.08279L11.1079 19.3827H11.0397L6.38279 8.97079C6.33724 8.7877 6.2917 8.72688 6.24615 8.66605C6.2235 8.63579 6.20084 8.60552 6.17818 8.56021V15.4119C6.10861 15.8907 6.17818 16.3013 6.38279 16.7132L8.23246 19.1781V19.2463H3.3V19.1781L5.14967 16.6437C5.35428 16.2331 5.42249 15.7543 5.35428 15.3423V7.80861C5.35428 7.46623 5.28608 7.05428 5.0119 6.78147L3.78015 5.0682V5H8.57347L12.5484 13.8364L16.0404 5H20.6986V5.0682L19.396 6.57549C19.2596 6.71326 19.1913 6.91787 19.1913 7.05428V17.4662Z" fill="currentcolor"/>
    </symbol>

    <symbol viewBox="0 0 24 24" id="pulse">
      <path d="M9 7.53906L15 21.5391L18.659 13.0001H23V11.0001H17.341L15 16.4611L9 2.46106L5.341 11.0001H1V13.0001H6.659L9 7.53906Z" fill="currentColor"/>
    </symbol>

    <symbol viewBox="0 0 24 24" id="question">
      <path d="M12 22C6.477 22 2 17.523 2 12C2 6.477 6.477 2 12 2C17.523 2 22 6.477 22 12C22 17.523 17.523 22 12 22ZM12 20C14.1217 20 16.1566 19.1571 17.6569 17.6569C19.1571 16.1566 20 14.1217 20 12C20 9.87827 19.1571 7.84344 17.6569 6.34315C16.1566 4.84285 14.1217 4 12 4C9.87827 4 7.84344 4.84285 6.34315 6.34315C4.84285 7.84344 4 9.87827 4 12C4 14.1217 4.84285 16.1566 6.34315 17.6569C7.84344 19.1571 9.87827 20 12 20ZM11 15H13V17H11V15ZM13 13.355V14H11V12.5C11 12.2348 11.1054 11.9804 11.2929 11.7929C11.4804 11.6054 11.7348 11.5 12 11.5C12.2841 11.5 12.5623 11.4193 12.8023 11.2673C13.0423 11.1154 13.2343 10.8984 13.3558 10.6416C13.4773 10.3848 13.5234 10.0988 13.4887 9.81684C13.454 9.53489 13.34 9.26858 13.1598 9.04891C12.9797 8.82924 12.7409 8.66523 12.4712 8.57597C12.2015 8.48671 11.912 8.47587 11.6364 8.54471C11.3608 8.61354 11.1104 8.75923 10.9144 8.96482C10.7183 9.1704 10.5847 9.42743 10.529 9.706L8.567 9.313C8.68863 8.70508 8.96951 8.14037 9.38092 7.67659C9.79233 7.2128 10.3195 6.86658 10.9086 6.67332C11.4977 6.48006 12.1275 6.44669 12.7337 6.57661C13.3399 6.70654 13.9007 6.99511 14.3588 7.41282C14.8169 7.83054 15.1559 8.36241 15.3411 8.95406C15.5263 9.54572 15.5511 10.1759 15.4129 10.7803C15.2747 11.3847 14.9785 11.9415 14.5545 12.3939C14.1306 12.8462 13.5941 13.1779 13 13.355Z" fill="currentcolor"/>
    </symbol>

    <symbol viewBox="0 0 24 24" id="telegram">
      <path fill-rule="evenodd" clip-rule="evenodd" d="M7.70892 13.7817L7.68783 13.7931V13.7947L3.63684 12.5293C2.76077 12.2616 2.75428 11.6581 3.83152 11.2266L19.6218 5.12654C20.5384 4.75016 21.0576 5.22388 20.7607 6.40495L18.0725 19.0949C17.8843 19.9969 17.3408 20.2127 16.5848 19.7958L12.4478 16.7328L10.5204 18.5952C10.5132 18.6022 10.506 18.6091 10.4989 18.6159C10.3091 18.7984 10.1492 18.952 9.85528 18.9911C9.5519 19.0333 9.30206 18.9424 9.12036 18.4379L7.70892 13.7817Z" fill="currentcolor"/>
    </symbol>

    <symbol viewBox="0 0 24 24" id="twitter">
      <path d="M21.8168 6.2163C21.1121 6.52805 20.3647 6.73279 19.5994 6.82374C20.406 6.34133 21.0097 5.5821 21.298 4.68754C20.541 5.13805 19.7111 5.45377 18.8461 5.62455C18.2651 5.00288 17.4949 4.59058 16.6554 4.45175C15.8159 4.31293 14.954 4.45536 14.2038 4.8569C13.4535 5.25844 12.857 5.8966 12.5068 6.67215C12.1567 7.44771 12.0726 8.31722 12.2676 9.1455C10.7325 9.06856 9.23073 8.66963 7.8598 7.97462C6.48886 7.27961 5.27941 6.30405 4.30997 5.11128C3.96682 5.70067 3.78649 6.37068 3.78746 7.05269C3.78746 8.39127 4.46875 9.57385 5.50454 10.2662C4.89157 10.2469 4.29209 10.0814 3.75607 9.7834V9.83141C3.75626 10.7229 4.06475 11.5869 4.62924 12.2769C5.19374 12.9669 5.97949 13.4405 6.85328 13.6173C6.28426 13.7715 5.68761 13.7942 5.1085 13.6838C5.35487 14.4511 5.83504 15.1222 6.48179 15.6031C7.12855 16.084 7.9095 16.3506 8.7153 16.3656C7.91444 16.9945 6.99746 17.4595 6.01679 17.7338C5.03611 18.0082 4.01098 18.0866 3 17.9645C4.76481 19.0994 6.81921 19.702 8.91748 19.7C16.0194 19.7 19.9031 13.8167 19.9031 8.71438C19.9031 8.54821 19.8985 8.3802 19.8911 8.21587C20.6471 7.66952 21.2995 6.9927 21.8178 6.21722L21.8168 6.2163Z" fill="currentcolor"/>
    </symbol>

    <symbol viewBox="0 0 1000 1000" id="balancer">
      <g>
        <path id="SVGID" d="M500,0c276.1,0,500,223.9,500,500s-223.9,500-500,500S0,776.1,0,500,223.9,0,500,0Z" fill="#fff"/>
        <path id="SVGID-2" data-name="SVGID" d="M507.5,709C347.6,709,218,662.8,218,600.9c0-32.3,35.3-61.4,91.8-81.9,44.1,28.3,118.1,42.8,202,42.8,81.9,0,154.3-17.7,198.8-44.8,53.3,20.3,86.4,48.6,86.4,79.8,0,62-129.6,112.2-289.5,112.2Z" fill="#000" />
        <path id="SVGID-3" data-name="SVGID" d="M509.2,547.9c-121.2,0-219.5-38-219.5-84.9,0-26,30.3-49.3,77.8-64.8,33.9,17.7,84.7,29,141.7,29s107.8-11.3,141.7-29c47.6,15.6,77.8,38.8,77.8,64.8.1,46.9-98.2,84.9-219.5,84.9Z" fill="#000" />
        <path id="SVGID-4" data-name="SVGID" d="M508.4,413.1c-93.7,0-169.7-31.4-169.7-70s76-70,169.7-70,169.7,31.4,169.7,70-76,70-169.7,70Z" fill="#000" />
      </g>
    </symbol>

    <symbol viewBox="0 0 50 50" id="ethereum">
      <path d="M10 25.4676L25.333 34.536V0L10 25.4676Z" fill="white" fill-opacity="0.45"/>
      <path d="M10 25.4676L25.333 34.536V0L10 25.4676Z" fill="#010101" fill-opacity="0.45"/>
      <path d="M25.333 18.4868L10 25.4676L25.333 34.536L40.6599 25.4676L25.333 18.4868Z" fill="white" fill-opacity="0.6"/>
      <path d="M25.333 18.4868L10 25.4676L25.333 34.536L40.6599 25.4676L25.333 18.4868Z" fill="#010101" fill-opacity="0.6"/>
      <path d="M25.333 0V34.536L40.6599 25.4676L25.333 0Z" fill="white" fill-opacity="0.8"/>
      <path d="M25.333 0V34.536L40.6599 25.4676L25.333 0Z" fill="#010101" fill-opacity="0.8"/>
      <path d="M10 28.3758L25.333 50V37.4442L10 28.3758Z" fill="white" fill-opacity="0.45"/>
      <path d="M10 28.3758L25.333 50V37.4442L10 28.3758Z" fill="#010101" fill-opacity="0.45"/>
      <path d="M25.333 37.4442V50L40.672 28.3758L25.333 37.4442Z" fill="white" fill-opacity="0.8"/>
      <path d="M25.333 37.4442V50L40.672 28.3758L25.333 37.4442Z" fill="#010101" fill-opacity="0.8"/>
    </symbol>

    <symbol viewBox="0 0 50 50" id="ethereumSimple">
      <path fill-rule="evenodd" clip-rule="evenodd" d="M25.333 18.4868L10 25.4676L25.333 34.536L25.333 18.4868Z" fill="currentColor" fill-opacity="0.85"/>
      <path fill-rule="evenodd" clip-rule="evenodd" d="M25.333 0L25.333 18.4868L10 25.4676L25.333 0Z" fill="currentColor" fill-opacity="0.95"/>
      <path fill-rule="evenodd" clip-rule="evenodd" d="M40.6599 25.4676L25.333 18.4868V34.536L40.6599 25.4676Z" fill="currentColor" fill-opacity="0.7"/>
      <path fill-rule="evenodd" clip-rule="evenodd" d="M25.333 18.4868V0L40.6599 25.4676L40.6599 25.4676L25.333 18.4868Z" fill="currentColor" fill-opacity="0.75"/>
      <path d="M10 28.3758L25.333 50V37.4442L10 28.3758Z" fill="currentColor" fill-opacity="0.75"/>
      <path d="M25.333 37.4442V50L40.672 28.3758L25.333 37.4442Z" fill="currentColor" fill-opacity="0.65"/>
    </symbol>


    <symbol viewBox="0 0 318.6 318.6" id="metamask">
      <polygon points="274.1,35.5 174.6,109.4 193,65.8" fill="#e2761b" stroke="#e2761b" stroke-linecap="round" stroke-linejoin="round" />
      <g>
        <polygon points="44.4,35.5 143.1,110.1 125.6,65.8" fill="#e4761b" stroke="#e4761b" stroke-linecap="round" stroke-linejoin="round" />
        <polygon points="238.3,206.8 211.8,247.4 268.5,263 284.8,207.7" fill="#e4761b" stroke="#e4761b" stroke-linecap="round" stroke-linejoin="round" />
        <polygon points="33.9,207.7 50.1,263 106.8,247.4 80.3,206.8" fill="#e4761b" stroke="#e4761b" stroke-linecap="round" stroke-linejoin="round" />
        <polygon points="103.6,138.2 87.8,162.1 144.1,164.6 142.1,104.1" fill="#e4761b" stroke="#e4761b" stroke-linecap="round" stroke-linejoin="round" />
        <polygon points="214.9,138.2 175.9,103.4 174.6,164.6 230.8,162.1" fill="#e4761b" stroke="#e4761b" stroke-linecap="round" stroke-linejoin="round" />
        <polygon points="106.8,247.4 140.6,230.9 111.4,208.1" fill="#e4761b" stroke="#e4761b" stroke-linecap="round" stroke-linejoin="round" />
        <polygon points="177.9,230.9 211.8,247.4 207.1,208.1" fill="#e4761b" stroke="#e4761b" stroke-linecap="round" stroke-linejoin="round" />
      </g>
      <g>
        <polygon points="211.8,247.4 177.9,230.9 180.6,253 180.3,262.3" fill="#d7c1b3" stroke="#d7c1b3" stroke-linecap="round" stroke-linejoin="round" />
        <polygon points="106.8,247.4 138.3,262.3 138.1,253 140.6,230.9" fill="#d7c1b3" stroke="#d7c1b3" stroke-linecap="round" stroke-linejoin="round" />
      </g>
      <polygon points="138.8,193.5 110.6,185.2 130.5,176.1" fill="#233447" stroke="#233447" stroke-linecap="round" stroke-linejoin="round" />
      <polygon points="179.7,193.5 188,176.1 208,185.2" fill="#233447" stroke="#233447" stroke-linecap="round" stroke-linejoin="round" />
      <g>
        <polygon points="106.8,247.4 111.6,206.8 80.3,207.7" fill="#cd6116" stroke="#cd6116" stroke-linecap="round" stroke-linejoin="round" />
        <polygon points="207,206.8 211.8,247.4 238.3,207.7" fill="#cd6116" stroke="#cd6116" stroke-linecap="round" stroke-linejoin="round" />
        <polygon points="230.8,162.1 174.6,164.6 179.8,193.5 188.1,176.1 208.1,185.2" fill="#cd6116" stroke="#cd6116" stroke-linecap="round" stroke-linejoin="round" />
        <polygon points="110.6,185.2 130.6,176.1 138.8,193.5 144.1,164.6 87.8,162.1" fill="#cd6116" stroke="#cd6116" stroke-linecap="round" stroke-linejoin="round" />
      </g>
      <g>
        <polygon points="87.8,162.1 111.4,208.1 110.6,185.2" fill="#e4751f" stroke="#e4751f" stroke-linecap="round" stroke-linejoin="round" />
        <polygon points="208.1,185.2 207.1,208.1 230.8,162.1" fill="#e4751f" stroke="#e4751f" stroke-linecap="round" stroke-linejoin="round" />
        <polygon points="144.1,164.6 138.8,193.5 145.4,227.6 146.9,182.7" fill="#e4751f" stroke="#e4751f" stroke-linecap="round" stroke-linejoin="round" />
        <polygon points="174.6,164.6 171.9,182.6 173.1,227.6 179.8,193.5" fill="#e4751f" stroke="#e4751f" stroke-linecap="round" stroke-linejoin="round" />
      </g>
      <polygon points="179.8,193.5 173.1,227.6 177.9,230.9 207.1,208.1 208.1,185.2" fill="#f6851b" stroke="#f6851b" stroke-linecap="round" stroke-linejoin="round" />
      <polygon points="110.6,185.2 111.4,208.1 140.6,230.9 145.4,227.6 138.8,193.5" fill="#f6851b" stroke="#f6851b" stroke-linecap="round" stroke-linejoin="round" />
      <polygon points="180.3,262.3 180.6,253 178.1,250.8 140.4,250.8 138.1,253 138.3,262.3 106.8,247.4 117.8,256.4 140.1,271.9 178.4,271.9 200.8,256.4 211.8,247.4" fill="#c0ad9e" stroke="#c0ad9e" stroke-linecap="round" stroke-linejoin="round" />
      <polygon points="177.9,230.9 173.1,227.6 145.4,227.6 140.6,230.9 138.1,253 140.4,250.8 178.1,250.8 180.6,253" fill="#161616" stroke="#161616" stroke-linecap="round" stroke-linejoin="round" />
      <g>
        <polygon points="278.3,114.2 286.8,73.4 274.1,35.5 177.9,106.9 214.9,138.2 267.2,153.5 278.8,140 273.8,136.4 281.8,129.1 275.6,124.3 283.6,118.2" fill="#763d16" stroke="#763d16" stroke-linecap="round" stroke-linejoin="round" />
        <polygon points="31.8,73.4 40.3,114.2 34.9,118.2 42.9,124.3 36.8,129.1 44.8,136.4 39.8,140 51.3,153.5 103.6,138.2 140.6,106.9 44.4,35.5" fill="#763d16" stroke="#763d16" stroke-linecap="round" stroke-linejoin="round" />
      </g>
      <polygon points="267.2,153.5 214.9,138.2 230.8,162.1 207.1,208.1 238.3,207.7 284.8,207.7" fill="#f6851b" stroke="#f6851b" stroke-linecap="round" stroke-linejoin="round" />
      <polygon points="103.6,138.2 51.3,153.5 33.9,207.7 80.3,207.7 111.4,208.1 87.8,162.1" fill="#f6851b" stroke="#f6851b" stroke-linecap="round" stroke-linejoin="round" />
      <polygon points="174.6,164.6 177.9,106.9 193.1,65.8 125.6,65.8 140.6,106.9 144.1,164.6 145.3,182.8 145.4,227.6 173.1,227.6 173.3,182.8" fill="#f6851b" stroke="#f6851b" stroke-linecap="round" stroke-linejoin="round" />
    </symbol>
  </defs>
</svg>