<?xml version="1.0" standalone="no"?>
<!DOCTYPE svg PUBLIC "-//W3C//DTD SVG 20010904//EN"
 "http://www.w3.org/TR/2001/REC-SVG-20010904/DTD/svg10.dtd">
<svg version="1.0" xmlns="http://www.w3.org/2000/svg"
 width="260.000000pt" height="260.000000pt" viewBox="0 0 260.000000 260.000000"
 preserveAspectRatio="xMidYMid meet">
<metadata>
Created by potrace 1.14, written by Peter Selinger 2001-2017
</metadata>
<g transform="translate(0.000000,260.000000) scale(0.100000,-0.100000)"
fill="#000000" stroke="none">
<path d="M1105 2535 c-116 -21 -195 -44 -293 -86 -86 -36 -235 -121 -266 -151
-8 -7 -32 -28 -54 -46 -114 -92 -234 -244 -304 -385 -44 -87 -90 -208 -102
-267 -3 -14 -8 -36 -11 -50 -21 -92 -27 -330 -11 -440 12 -84 52 -220 92 -310
85 -195 193 -335 375 -485 126 -106 329 -198 524 -241 106 -23 344 -27 446 -7
41 8 85 17 99 19 55 11 179 57 252 94 307 153 531 412 638 739 79 243 77 526
-6 781 -74 226 -255 476 -434 600 -19 13 -37 27 -40 31 -3 3 -21 14 -40 24
-19 10 -37 21 -40 24 -10 13 -160 81 -233 105 -129 44 -224 59 -377 61 -83 1
-175 -3 -215 -10z"/>
</g>
</svg>
