<?xml version="1.0" standalone="no"?>
<!DOCTYPE svg PUBLIC "-//W3C//DTD SVG 20010904//EN"
 "http://www.w3.org/TR/2001/REC-SVG-20010904/DTD/svg10.dtd">
<svg version="1.0" xmlns="http://www.w3.org/2000/svg"
 width="700.000000pt" height="700.000000pt" viewBox="0 0 700.000000 700.000000"
 preserveAspectRatio="xMidYMid meet">
<metadata>
Created by potrace 1.14, written by Peter Selinger 2001-2017
</metadata>
<g transform="translate(0.000000,700.000000) scale(0.100000,-0.100000)"
fill="#000000" stroke="none">
<path d="M3278 6996 c-1 -2 -39 -6 -83 -10 -799 -62 -1600 -437 -2176 -1019
-293 -296 -552 -669 -704 -1017 -25 -58 -52 -118 -59 -135 -51 -115 -148 -423
-171 -546 -3 -13 -11 -58 -20 -99 -22 -115 -30 -160 -41 -255 -26 -230 -26
-667 1 -826 2 -13 6 -46 9 -74 9 -78 22 -152 51 -285 21 -96 91 -339 114 -395
5 -11 25 -65 46 -120 63 -166 249 -531 312 -610 4 -6 34 -49 65 -95 157 -235
400 -500 648 -707 81 -67 304 -233 314 -233 3 0 32 -18 65 -40 33 -22 63 -40
67 -40 4 0 15 -6 23 -14 9 -8 81 -47 161 -88 356 -182 733 -302 1109 -354 25
-3 57 -8 71 -10 163 -25 682 -25 842 1 13 2 46 7 73 10 72 10 86 12 120 19 17
3 44 8 60 11 343 65 740 212 1039 384 49 28 90 51 92 51 10 0 260 174 346 240
156 122 330 285 458 429 36 41 70 79 76 85 65 68 263 353 352 508 46 79 172
331 172 342 0 3 11 29 24 58 57 127 151 421 182 573 17 81 54 301 59 350 4 33
9 71 11 85 9 46 11 524 4 605 -15 153 -21 210 -25 225 -2 8 -7 35 -10 60 -17
129 -80 384 -136 552 -348 1037 -1169 1858 -2205 2206 -167 57 -419 119 -554
137 -19 3 -46 7 -60 10 -13 2 -52 7 -86 11 -33 3 -74 8 -90 10 -32 5 -540 14
-546 10z m537 -409 c11 -2 47 -8 80 -11 366 -42 806 -189 1143 -383 218 -125
461 -312 647 -498 527 -527 843 -1208 902 -1945 13 -168 7 -511 -11 -620 -3
-14 -7 -47 -11 -74 -35 -282 -141 -626 -280 -911 -160 -329 -354 -599 -618
-858 -506 -498 -1162 -804 -1872 -875 -92 -9 -501 -9 -590 0 -657 69 -1241
320 -1735 747 -403 347 -709 800 -894 1316 -29 83 -83 266 -91 312 -3 18 -10
45 -16 60 -6 15 -10 28 -8 28 1 0 -12 99 -16 115 -2 8 -18 112 -21 140 -24
191 -24 620 0 745 2 11 7 43 10 70 6 44 33 192 40 220 2 6 7 28 11 50 5 22 10
42 10 45 11 49 80 268 95 305 4 11 16 40 25 65 37 99 124 283 188 395 435 769
1185 1322 2038 1504 103 22 136 29 189 36 19 3 44 7 55 10 11 2 58 7 105 11
47 3 87 8 89 10 5 5 513 -3 536 -9z"/>
<path d="M3308 5805 c-2 -2 -28 -6 -58 -9 -417 -45 -803 -200 -1149 -459 -86
-64 -303 -270 -373 -354 -235 -281 -417 -655 -488 -1010 -23 -113 -24 -116
-37 -228 -15 -130 -9 -469 11 -575 3 -14 7 -41 10 -60 47 -298 171 -613 343
-870 96 -144 107 -160 118 -160 6 -1 28 -24 50 -52 71 -90 305 -318 327 -318
4 0 8 -6 8 -13 0 -28 274 -205 434 -281 150 -71 307 -127 456 -161 227 -52
309 -60 565 -59 185 1 236 5 436 39 48 9 214 54 287 79 464 159 873 470 1156
879 207 299 359 708 393 1057 15 155 8 476 -12 590 -1 8 -6 35 -10 60 -33 214
-133 496 -251 711 -68 124 -193 309 -210 309 -5 0 -24 20 -41 44 -55 72 -245
260 -320 315 -18 14 -30 28 -27 32 2 4 -4 13 -15 18 -11 6 -25 17 -33 24 -29
29 -220 148 -320 200 -225 116 -517 209 -733 233 -27 3 -61 8 -75 11 -26 6
-437 13 -442 8z"/>
</g>
</svg>
