<?xml version="1.0" standalone="no"?>
<!DOCTYPE svg PUBLIC "-//W3C//DTD SVG 20010904//EN"
 "http://www.w3.org/TR/2001/REC-SVG-20010904/DTD/svg10.dtd">
<svg version="1.0" xmlns="http://www.w3.org/2000/svg"
 width="700.000000pt" height="700.000000pt" viewBox="0 0 700.000000 700.000000"
 preserveAspectRatio="xMidYMid meet">
<metadata>
Created by potrace 1.14, written by Peter Selinger 2001-2017
</metadata>
<g transform="translate(0.000000,700.000000) scale(0.100000,-0.100000)"
fill="#000000" stroke="none">
<path d="M3285 6994 c-22 -2 -89 -9 -150 -14 -648 -63 -1304 -332 -1820 -746
-145 -116 -373 -340 -494 -484 -451 -538 -718 -1164 -803 -1885 -7 -62 -13
-220 -13 -365 0 -258 10 -376 46 -590 183 -1080 875 -2023 1854 -2525 379
-194 773 -312 1230 -367 135 -16 590 -16 735 1 513 58 996 220 1426 478 250
151 436 295 652 507 588 577 935 1293 1034 2131 7 62 13 220 13 365 0 145 -6
303 -13 365 -99 844 -447 1558 -1043 2140 -556 544 -1251 876 -2029 971 -118
14 -539 27 -625 18z m620 -419 c356 -49 641 -137 970 -300 484 -239 883 -587
1187 -1035 475 -699 644 -1562 467 -2388 -194 -908 -789 -1686 -1612 -2108
-326 -167 -609 -257 -987 -315 -125 -20 -185 -23 -430 -23 -309 0 -435 13
-687 70 -918 206 -1711 845 -2117 1706 -218 462 -321 998 -287 1495 30 455
123 805 317 1200 168 340 407 659 684 910 505 460 1122 734 1805 803 136 13
550 5 690 -15z"/>
<path d="M3320 5803 c-106 -8 -274 -37 -396 -68 -406 -104 -751 -302 -1054
-605 -360 -358 -577 -790 -657 -1301 -24 -158 -24 -500 0 -658 58 -374 199
-722 410 -1016 27 -38 51 -72 53 -74 4 -5 527 230 540 243 7 7 29 395 63 1131
29 616 55 1162 58 1213 l6 92 370 -2 371 -3 513 -820 c283 -451 518 -824 523
-829 7 -7 10 7 10 40 1 101 68 1845 71 1848 2 1 162 71 354 155 193 84 356
156 363 160 16 9 -101 94 -248 182 -395 234 -884 347 -1350 312z"/>
<path d="M5065 4812 c-132 -60 -247 -111 -256 -114 -22 -9 -21 20 -79 -1273
-28 -610 -53 -1125 -56 -1142 l-5 -33 -368 0 -367 0 -520 830 c-512 819 -519
830 -526 793 -4 -21 -21 -445 -39 -943 -17 -498 -34 -908 -38 -911 -3 -4 -168
-78 -366 -164 -198 -87 -363 -160 -367 -164 -8 -7 88 -80 200 -150 261 -163
574 -278 892 -327 159 -25 500 -25 659 -1 321 50 626 162 893 327 282 176 557
451 736 736 462 740 467 1686 12 2429 -63 103 -144 215 -155 214 -5 0 -118
-48 -250 -107z"/>
</g>
</svg>
